<?xml version="1.0" encoding="iso-8859-1"?>
<!-- Generator: Adobe Illustrator 19.0.0, SVG Export Plug-In . SVG Version: 6.00 Build 0)  -->
<svg xmlns="http://www.w3.org/2000/svg" xmlns:xlink="http://www.w3.org/1999/xlink" version="1.1" id="Capa_1" x="0px" y="0px" viewBox="0 0 512 512" style="enable-background:new 0 0 512 512;" xml:space="preserve" width="15px" height="15px">
<g>
	<g>
		<path d="M280.781,0h-49.56c-22.733,0-41.226,18.494-41.226,41.226v48.854h30.536V41.226c0-5.895,4.795-10.689,10.689-10.689h49.56    c5.895,0,10.69,4.795,10.69,10.689v48.854h30.537V41.226C322.007,18.494,303.513,0,280.781,0z" fill="#1f3c4a"/>
	</g>
</g>
<g>
	<g>
		<path d="M350.67,120.617H161.33c-15.883,0-28.805,12.922-28.805,28.805v264.685c0,15.883,12.922,28.805,28.805,28.805h189.34    c15.883,0,28.805-12.922,28.805-28.805V149.423C379.475,133.539,366.554,120.617,350.67,120.617z" fill="#1f3c4a"/>
	</g>
</g>
<g>
	<g>
		<path d="M161.33,473.449c-1.152,0-2.294-0.042-3.431-0.107v23.389c0,8.432,6.836,15.268,15.268,15.268    c8.432,0,15.268-6.836,15.268-15.268v-23.282H161.33z" fill="#1f3c4a"/>
	</g>
</g>
<g>
	<g>
		<path d="M350.67,473.449h-27.106v23.282c0,8.432,6.836,15.268,15.268,15.268c8.432,0,15.268-6.836,15.268-15.268v-23.389    C352.964,473.408,351.822,473.449,350.67,473.449z" fill="#1f3c4a"/>
	</g>
</g>
<g>
</g>
<g>
</g>
<g>
</g>
<g>
</g>
<g>
</g>
<g>
</g>
<g>
</g>
<g>
</g>
<g>
</g>
<g>
</g>
<g>
</g>
<g>
</g>
<g>
</g>
<g>
</g>
<g>
</g>
</svg>
