<?xml version="1.0" encoding="utf-8"?>
<!-- Generator: Adobe Illustrator 19.0.0, SVG Export Plug-In . SVG Version: 6.00 Build 0)  -->
<svg width="65" version="1.1" id="bus_1_" xmlns="http://www.w3.org/2000/svg" xmlns:xlink="http://www.w3.org/1999/xlink" x="0px" y="0px"
	 viewBox="0 0 1481.7 768" style="enable-background:new 0 0 1481.7 768;" xml:space="preserve">
<style type="text/css">
	.st0{fill:#020202;}
	.st1{fill:#FFFFFF;}
	.st2{fill:#CECECE;}
	.st3{fill:#A7D9E8;}
	.st4{fill:url(#SVGCleanerId_0_2_);}
	.st5{fill:#4281DB;}
	.st6{fill:#E6E9EE;}
</style>
<g id="bus">
	<g>
		<path class="st0" d="M625.2,638.7h-1.4c-8.7,0-15.8,7.1-15.8,15.8l0,0c0,8.7,7.1,15.8,15.8,15.8h1.4c8.7,0,15.8-7.1,15.8-15.8l0,0
			C641,645.7,633.9,638.7,625.2,638.7z"/>
	</g>
	<g>
		<path class="st0" d="M977.8,638.7H693.3c-8.7,0-15.8,7.1-15.8,15.8l0,0c0,8.7,7.1,15.8,15.8,15.8h284.5c8.7,0,15.8-7.1,15.8-15.8
			l0,0C993.6,645.7,986.5,638.7,977.8,638.7z"/>
	</g>
	<path class="st1" d="M1312.7,80.1h-181H1051c-118.4,0-325.5,0-346,0H167.8c-28.5,0-52.4,23.9-52.4,52.4v400.6
		c0,28.5,23.9,52.4,52.4,52.4H326h725h28.5h85.4h118.4h30.7c28.5,0,52.4-23.9,52.4-52.4V132.5C1365.1,104,1341.2,80.1,1312.7,80.1z"
		/>
	<path class="st2" d="M191.7,533.1V132.5c0-28.5,23.9-52.4,52.4-52.4h-76.3c-28.5,0-52.4,23.9-52.4,52.4v400.6
		c0,28.5,23.9,52.4,52.4,52.4h76.3C215.6,585.4,191.7,561.5,191.7,533.1z"/>
	<path id="SVGCleanerId_0" class="st3" d="M121.2,164.3c0,0-9.1-83.1,58-83.1s900.2,0,900.2,0h242.4c0,0,41,6.8,41,83.1
		s0,360.8,0,360.8l-29.6-29.6c0,0-20.5-163.9-171.9-163.9s-1047,0-1047,0L121.2,164.3z"/>
	<g>
		
			<linearGradient id="SVGCleanerId_0_2_" gradientUnits="userSpaceOnUse" x1="114.3321" y1="303.1955" x2="1362.8192" y2="303.1955">
			<stop  offset="0" style="stop-color:#0776BC"/>
			<stop  offset="1" style="stop-color:#9ECB3B"/>
		</linearGradient>
		<path id="SVGCleanerId_0_1_" class="st4" d="M121.2,164.3c0,0-9.1-83.1,58-83.1s900.2,0,900.2,0h242.4c0,0,41,6.8,41,83.1
			s0,360.8,0,360.8l-29.6-29.6c0,0-20.5-163.9-171.9-163.9s-1047,0-1047,0L121.2,164.3z"/>
	</g>
	<path class="st5" d="M191.7,132.5c0-25,18.2-46.7,42.1-51.2c-26.2,0-45.5,0-53.5,0c-67.1,0-58,83.1-58,83.1l-6.8,168.4
		c0,0,28.5,0,76.3,0V132.5z"/>
	<path d="M1312.7,61.9h-181H1051H824.5l0,0l0,0H648.1l0,0l0,0H470.6l0,0l0,0H294.2l0,0l0,0H169c-38.7,0-70.6,31.9-70.6,70.6v400.6
		c0,38.7,31.9,70.6,70.6,70.6h155.9c8,58,58,102.4,117.2,102.4c60.3,0,109.3-44.4,117.2-102.4H1051h14.8
		c11.4,53.5,59.2,93.3,116.1,93.3c56.9,0,104.7-39.8,116.1-93.3h14.8c38.7,0,70.6-31.9,70.6-70.6V132.5
		C1382.2,93.8,1351.4,61.9,1312.7,61.9z M1346.9,132.5v344.8c-11.4-48.9-30.7-87.6-60.3-116.1c-31.9-30.7-66-41-86.5-44.4V98.3
		h112.7C1331,98.3,1346.9,113.1,1346.9,132.5z M1131.8,98.3h31.9v216.2h-146.8V132.5c0-19.3,15.9-34.1,34.1-34.1L1131.8,98.3z
		 M488.8,314.6V98.3h141.1v216.2H488.8z M311.2,314.6V98.3h141.1v216.2H311.2z M665.2,98.3h141.1v216.2H665.2V98.3L665.2,98.3z
		 M842.7,98.3h146.8c-5.7,10.2-9.1,21.6-9.1,34.1v182.1H842.7V98.3z M167.8,98.3h107v216.2H133.7V132.5
		C133.7,113.1,149.6,98.3,167.8,98.3z M133.7,533.1V351h846.7v182.1c0,12.5,3.4,23.9,9.1,34.1H558.2c-9.1-55.8-58-99-117.2-99
		s-108.1,43.2-117.2,99H167.8C149.6,567.2,133.7,552.4,133.7,533.1z M1300.2,567.2c-5.7-60.3-55.8-108.1-118.4-108.1
		c-61.5,0-112.7,47.8-118.4,108.1H1051c-19.3,0-34.1-15.9-34.1-34.1V351h165c0,0,42.1-1.1,79.7,35.3c37.6,36.4,58,97.9,59.2,179.8
		c-2.3,1.1-5.7,1.1-8,1.1H1300.2z"/>
	<g>
		<circle class="st6" cx="441" cy="587.7" r="52.4"/>
		<circle class="st6" cx="1181.9" cy="577.5" r="52.4"/>
	</g>
</g>
</svg>
