<?xml version="1.0" encoding="utf-8"?>
<!-- Generator: Adobe Illustrator 19.0.0, SVG Export Plug-In . SVG Version: 6.00 Build 0)  -->
<svg width="65" version="1.1" id="plain" xmlns="http://www.w3.org/2000/svg" xmlns:xlink="http://www.w3.org/1999/xlink" x="0px" y="0px"
	 viewBox="0 0 1481.7 768" style="enable-background:new 0 0 1481.7 768;" xml:space="preserve">
<style type="text/css">
	.st0{fill:#050505;}
	.st1{fill:none;}
	.st2{fill:#808080;}
	.st3{fill:url(#SVGID_1_);}
	.st4{fill:#FFFFFF;}
	.st5{fill:url(#SVGID_2_);}
	.st6{fill:#CCCCCC;}
</style>
<g id="flight">
	<path class="st0" d="M588.1,117.3c-1.8-27.9-24.3-50.6-52.2-52.4c-10.5-0.7-20.5,1.5-29.2,6c-9.9-35-42.2-60.7-80.3-60.7
		c-40.5,0-74.4,29-81.9,67.4c-7.1-2.1-14.9-2.7-22.9-1.3c-22.4,3.8-39.8,22.6-41.9,45.3c-0.7,7.8,0.3,15.2,2.8,22
		c2.6,7.2,11.2,10,17.5,5.6c4.4-3,6-8.7,4.2-13.7c-1.4-3.8-1.9-8-1.4-12.4c1.5-12.8,12-23,24.8-24.1c5.7-0.5,11.1,0.7,15.7,3.2
		c1.9,1,3.7,2.3,5.3,3.8c3.6,3.2,8.9,3.8,12.8,1l0.3-0.2c2.9-2,4.6-5.5,4.4-9c-0.1-1.3-0.1-2.6-0.1-3.9c0-1.1,0-2.1,0.1-3.2
		c1.7-31.8,28-57.1,60.2-57.1c31.5,0,57.3,24.2,60,55c0.2,1.7,0.2,3.5,0.2,5.3c0,0,0,0,0,0.1c0,4,3,7.4,7,7.7l7.2,0.5
		c2.4,0.2,4.8-0.7,6.4-2.5c0.8-0.9,1.6-1.8,2.5-2.6c6-5.5,13.9-8.9,22.7-8.8c17.2,0.2,31.6,14,32.5,31.2c0.9,17-11.2,31.5-27.2,34.2
		h-63.6c-6.4,0-11.6,5.2-11.6,11.6s5.2,11.6,11.6,11.6h65.3c0,0,0,0,0.1,0l0,0C568.1,172.8,590,147.4,588.1,117.3z"/>
	<path class="st0" d="M1267.4,579.5c-1.7-26.4-23-47.7-49.3-49.5c-10-0.7-19.4,1.5-27.6,5.6c-9.4-33.1-39.8-57.3-75.8-57.3
		c-38.3,0-70.2,27.4-77.3,63.7c-6.7-2-14-2.5-21.6-1.2c-21.2,3.6-37.6,21.4-39.5,42.8c-0.7,7.3,0.3,14.3,2.6,20.7
		c2.4,6.8,10.6,9.4,16.5,5.3c4.2-2.9,5.7-8.2,4-12.9c-1.3-3.6-1.8-7.6-1.3-11.8c1.4-12,11.3-21.7,23.4-22.8c5.4-0.5,10.5,0.6,14.8,3
		c1.8,1,3.5,2.2,5,3.6c3.4,3,8.4,3.5,12.1,1l0.3-0.2c2.8-1.9,4.4-5.2,4.1-8.5c-0.1-1.2-0.1-2.4-0.1-3.7c0-1,0-2,0.1-3
		c1.6-30,26.5-53.9,56.8-53.9c29.7,0,54.1,22.9,56.7,51.9c0.1,1.6,0.2,3.3,0.2,5c0,0,0,0,0,0.1c0,3.8,2.8,7,6.6,7.3l6.8,0.5
		c2.3,0.2,4.5-0.7,6-2.4c0.7-0.9,1.5-1.7,2.4-2.4c5.6-5.2,13.2-8.4,21.4-8.3c16.2,0.2,29.8,13.2,30.7,29.4
		c0.9,16.1-10.6,29.7-25.7,32.3h-60.1c-6,0-11,4.9-11,11s4.9,11,11,11h61.6c0,0,0,0,0.1,0l0,0
		C1248.5,631.9,1269.2,607.9,1267.4,579.5z"/>
	<g>
		<path class="st1" d="M1276.1,415.9c-0.9-16.2-14.5-29.2-30.7-29.4c-0.6,0-1.1,0-1.7,0.1v61.7h6.7
			C1265.5,445.6,1276.9,431.9,1276.1,415.9z"/>
		<path class="st0" d="M1083.9,613.5c-6.4,0-11.5,5.5-10.9,12c0.5,5.7,5.7,9.9,11.4,9.9h26c6,0,11-4.9,11-11v0c0-6-4.9-11-11-11
			H1083.9z"/>
	</g>
	<path class="st2" d="M337.3,570.1l-115.7-67.9l32-32l195.3,32.6L337.3,570.1z"/>
	<linearGradient id="SVGID_1_" gradientUnits="userSpaceOnUse" x1="406.2685" y1="310.3786" x2="757.8664" y2="310.3786">
		<stop  offset="0" style="stop-color:#0776BC"/>
		<stop  offset="1" style="stop-color:#9ECB3B"/>
	</linearGradient>
	<path class="st3" d="M611,406.3L406.3,261.2l72.3-46.7l279.3,108.8L611,406.3z"/>
	<path class="st4" d="M1107.5,214.3l-51.8-5.8l-1.6-0.2c-57.5-5.9-115.3,6.2-165.6,34.6L328.7,571.3c-10.8,6.4-14.4,20.3-8,31.1
		c4.2,7.1,12,11.4,20.2,11.2l37.6,0.5l82.9-17.9c62.8-19.5,124.4-42.4,184.7-68.6l150.9-73.3c12.9-7,18.7-11.2,31.5-18.6l213-122.9
		c2.7-1.6,5.1-3.8,6.8-6.4l60.2-90.3c0.3-0.6,0.1-1.3-0.4-1.7C1107.8,214.3,1107.7,214.3,1107.5,214.3z"/>
	<g>
		<linearGradient id="SVGID_2_" gradientUnits="userSpaceOnUse" x1="650.1176" y1="566.0861" x2="809.9348" y2="566.0861">
			<stop  offset="0" style="stop-color:#0776BC"/>
			<stop  offset="1" style="stop-color:#9ECB3B"/>
		</linearGradient>
		<path class="st5" d="M809.9,390.3l-159.8,79.9v271.7l79.9-32L809.9,390.3z"/>
		<path class="st6" d="M493.3,534.1l-95.9,47.9l-32,127.9l47.9-16L493.3,534.1z"/>
	</g>
	<path d="M256.2,454.4c-5.1-0.8-10.3,0.8-13.9,4.5l-32,32c-6.2,6.2-6.2,16.4,0,22.6c1,1,2.1,1.9,3.4,2.6l94.3,53.9
		c-11.7,17.7-6.8,41.6,10.9,53.3c6.5,4.3,14.1,6.5,21.9,6.4l28.3,0.3l-19,76.2c-2.1,8.6,3.1,17.2,11.7,19.4c2.9,0.7,6,0.6,8.9-0.3
		l47.9-16c4-1.3,7.3-4.2,9.2-8l46.1-92.2c54.2-17.1,108-36.9,160.4-59.1v192c0,8.8,7.2,16,16,16c2,0,4-0.4,5.9-1.1l79.9-32
		c4.8-1.9,8.3-6,9.6-11l61.8-247.1c6.4-3.5,11.2-6.4,16.1-9.4c3.8-2.3,7.8-4.8,13.1-7.8l212.9-122.8c4.9-2.8,9-6.7,12.2-11.4
		l60.2-90.3c3.3-5,3.8-11.4,1.2-16.9c-2.7-5.3-7.8-8.9-13.7-9.8l-53.4-5.9c-60.9-6.9-122.4,6-175.5,36.7l-127.7,75L484.4,199.6
		c-4.8-1.9-10.2-1.3-14.5,1.5l-72.3,46.7c-7.4,4.8-9.5,14.7-4.7,22.1c1.1,1.7,2.5,3.2,4.2,4.4l184.1,130.4l-137.9,80.9L256.2,454.4z
		 M259,487.3l141.2,23.5l-64.7,38l-87.8-50.2L259,487.3z M402,680.9l-14,4.7l23.1-92.5l46.4-23.2L402,680.9z M716.5,698.1
		l-50.4,20.2V480.1L786,420.1l-6.4,25.3l-4.5,2.4l2.6,4.8L716.5,698.1z M896.4,256.8c34.5-19.9,73.2-31.4,112.9-33.6
		c-12,11-26.2,19.2-41.7,24.2l0,0c-8.4,2.8-12.9,11.8-10.1,20.2l0,0.1c2.8,8.4,11.8,12.9,20.2,10.1l0,0c29.6-8.8,55-27.8,71.9-53.6
		c0.9,0.1,1.8,0.1,2.8,0.2l29.2,3.2l-46.8,70.1c-0.4,0.6-0.9,1.1-1.5,1.4L820.5,421.8l-2.3,1.3l7.1-28.5c1.6-6.4-0.6-13.4-5.9-17.3
		c-5-3.6-11.4-4-16.6-1.4L643,455.9c-5.4,2.7-8.8,8.2-8.8,14.3v45c-45.8,19.7-92.8,37.7-140.3,53.5l13.7-27.5
		c4-7.9,0.8-17.5-7.1-21.4c-4.5-2.3-9.8-2.3-14.3,0l-95.9,47.9c-4.2,2.1-7.2,5.9-8.3,10.4l-5,19.8l-36.6-0.4c-2.6,0-5-1.4-6.2-3.7
		c-1.6-3.2-0.4-7,2.6-8.8L896.4,256.8z M434.8,261.8l45.6-29.5l237.1,92.4l-106.1,62.2L434.8,261.8z"/>
</g>
</svg>
