<?xml version="1.0" encoding="utf-8"?>
<!-- Generator: Adobe Illustrator 19.0.0, SVG Export Plug-In . SVG Version: 6.00 Build 0)  -->
<svg version="1.1" id="Layer_1" xmlns="http://www.w3.org/2000/svg" xmlns:xlink="http://www.w3.org/1999/xlink" x="0px" y="0px"
	 viewBox="0 0 295 196" style="enable-background:new 0 0 295 196;" xml:space="preserve">
<style type="text/css">
	.st0{fill:url(#XMLID_40_);}
	.st1{fill:url(#XMLID_41_);}
	.st2{fill:url(#XMLID_42_);}
	.st3{fill:url(#XMLID_44_);}
	.st4{fill:#F3F6F8;}
	.st5{fill:url(#XMLID_45_);}
	.st6{fill:url(#XMLID_81_);}
	.st7{fill:url(#XMLID_83_);}
	.st8{opacity:0.8;fill:#3F5F97;}
	.st9{fill:#6B6C6C;}
	.st10{fill:url(#XMLID_84_);}
	.st11{fill:url(#XMLID_85_);}
	.st12{fill:url(#XMLID_86_);}
	.st13{fill:url(#XMLID_87_);}
	.st14{fill:url(#XMLID_88_);}
	.st15{fill:url(#XMLID_89_);}
	.st16{opacity:0.8;}
	.st17{clip-path:url(#XMLID_90_);}
	.st18{fill:#3E6997;}
	.st19{fill:none;stroke:#6B6C6C;stroke-width:0.2658;stroke-miterlimit:10;}
</style>
<g id="XMLID_38_">
	<linearGradient id="XMLID_40_" gradientUnits="userSpaceOnUse" x1="141.0529" y1="4.2589" x2="153.7381" y2="188.7016">
		<stop  offset="0" style="stop-color:#0776BC"/>
		<stop  offset="0.6656" style="stop-color:#1D98D4"/>
		<stop  offset="1" style="stop-color:#27AAE1"/>
	</linearGradient>
	<rect id="XMLID_8_" x="0" y="0" class="st0" width="295" height="196"/>
	
		<image style="overflow:visible;" width="140" height="34" id="XMLID_80_" xlink:href="D38D0AAB.png"  transform="matrix(0.24 0 0 0.24 123.8326 110.3418)">
	</image>
	
		<image style="overflow:visible;" width="83" height="124" id="XMLID_79_" xlink:href="D38D0AAC.png"  transform="matrix(0.24 0 0 0.24 102.4906 78.5626)">
	</image>
	
		<image style="overflow:visible;" width="374" height="52" id="XMLID_78_" xlink:href="D38D0AAD.png"  transform="matrix(0.24 0 0 0.24 153.4991 102.8228)">
	</image>
	<g id="XMLID_345_">
		
			<radialGradient id="XMLID_41_" cx="207.859" cy="114.0577" r="10.2135" gradientTransform="matrix(0.9998 -1.647069e-002 1.950000e-002 0.9148 1.4634 7.0449)" gradientUnits="userSpaceOnUse">
			<stop  offset="0" style="stop-color:#6F6F6F"/>
			<stop  offset="0.1515" style="stop-color:#6C6C6C"/>
			<stop  offset="0.3238" style="stop-color:#656464"/>
			<stop  offset="0.5063" style="stop-color:#585858"/>
			<stop  offset="0.6958" style="stop-color:#474747"/>
			<stop  offset="0.8888" style="stop-color:#323232"/>
			<stop  offset="1" style="stop-color:#242424"/>
		</radialGradient>
		<path id="XMLID_77_" class="st1" d="M219.8,109c0.8,2.3-0.2,5-4.6,6.1c-3.6,1-7.1,0.1-7.9-2.2c-0.8-2.3,1.3-5.1,4.9-6.1
			C216,105.7,219,106.7,219.8,109z"/>
		
			<radialGradient id="XMLID_42_" cx="209.113" cy="113.6478" r="10.2133" gradientTransform="matrix(0.9998 -1.647069e-002 1.950000e-002 0.9148 1.4634 7.0449)" gradientUnits="userSpaceOnUse">
			<stop  offset="0" style="stop-color:#F3F6F8"/>
			<stop  offset="0.2867" style="stop-color:#EEF0F1"/>
			<stop  offset="0.6119" style="stop-color:#E1E0E0"/>
			<stop  offset="0.7083" style="stop-color:#DBDADA"/>
			<stop  offset="1" style="stop-color:#DFDFDE"/>
		</radialGradient>
		<path id="XMLID_76_" class="st2" d="M221,108.6c0.8,2.3-0.2,5-4.6,6.1c-3.6,1-7.1,0.1-7.9-2.2c-0.8-2.3,1.3-5.1,4.9-6.1
			C217.3,105.3,220.2,106.3,221,108.6z"/>
		
			<radialGradient id="XMLID_44_" cx="214.3551" cy="118.2516" r="3.8744" fx="218.2256" fy="118.4249" gradientTransform="matrix(0.9998 -1.647069e-002 1.950000e-002 0.9148 1.4634 7.0446)" gradientUnits="userSpaceOnUse">
			<stop  offset="0" style="stop-color:#6F6F6F"/>
			<stop  offset="0.1515" style="stop-color:#6C6C6C"/>
			<stop  offset="0.3238" style="stop-color:#656464"/>
			<stop  offset="0.5063" style="stop-color:#585858"/>
			<stop  offset="0.6958" style="stop-color:#474747"/>
			<stop  offset="0.8888" style="stop-color:#323232"/>
			<stop  offset="1" style="stop-color:#242424"/>
		</radialGradient>
		<path id="XMLID_75_" class="st3" d="M219.3,109.7c-0.6-1.7-2.3-2.7-3.8-2.2c-0.1,0-0.2,0-0.2,0.1c-0.6,0.8-0.8,2-0.4,3.1
			c0.5,1.5,1.9,2.5,3.3,2.6C219.3,112.5,219.8,111.1,219.3,109.7z"/>
		<g id="XMLID_346_">
			<path id="XMLID_347_" class="st4" d="M218.2,113.3c-1.5,0-3-1.1-3.5-2.7c-0.3-0.9-0.3-1.9,0.1-2.7c0.4-0.8,1.1-1.4,2-1.7
				c0.3-0.1,0.6-0.1,0.9-0.1c1.5,0,3,1.1,3.5,2.7c0.3,0.9,0.3,1.9-0.1,2.7c-0.4,0.8-1.1,1.4-2,1.7
				C218.9,113.3,218.5,113.3,218.2,113.3z M217.8,106.4c-0.3,0-0.6,0-0.8,0.1c-0.8,0.2-1.4,0.8-1.8,1.5c-0.4,0.8-0.4,1.7-0.1,2.5
				c0.5,1.4,1.8,2.5,3.2,2.5c0.3,0,0.6,0,0.8-0.1c0.8-0.2,1.4-0.8,1.8-1.5c0.4-0.8,0.4-1.7,0.1-2.5
				C220.5,107.5,219.2,106.4,217.8,106.4z"/>
		</g>
	</g>
	<g id="XMLID_337_">
		
			<radialGradient id="XMLID_45_" cx="193.2856" cy="109.3187" r="12.8747" gradientTransform="matrix(0.9998 -1.647069e-002 1.950000e-002 0.9148 1.4634 7.0449)" gradientUnits="userSpaceOnUse">
			<stop  offset="0" style="stop-color:#6F6F6F"/>
			<stop  offset="0.1515" style="stop-color:#6C6C6C"/>
			<stop  offset="0.3238" style="stop-color:#656464"/>
			<stop  offset="0.5063" style="stop-color:#585858"/>
			<stop  offset="0.6958" style="stop-color:#474747"/>
			<stop  offset="0.8888" style="stop-color:#323232"/>
			<stop  offset="1" style="stop-color:#242424"/>
		</radialGradient>
		<path id="XMLID_72_" class="st5" d="M207.3,105.2c1.1,2.9-0.2,6.2-5.7,7.7c-4.5,1.2-8.9,0.1-9.9-2.8c-1.1-2.9,1.7-6.4,6.1-7.7
			C202.5,101,206.2,102.3,207.3,105.2z"/>
		
			<radialGradient id="XMLID_81_" cx="194.8665" cy="108.8022" r="12.8747" gradientTransform="matrix(0.9998 -1.647069e-002 1.950000e-002 0.9148 1.4634 7.0449)" gradientUnits="userSpaceOnUse">
			<stop  offset="0" style="stop-color:#F3F6F8"/>
			<stop  offset="0.2867" style="stop-color:#EEF0F1"/>
			<stop  offset="0.6119" style="stop-color:#E1E0E0"/>
			<stop  offset="0.7083" style="stop-color:#DBDADA"/>
			<stop  offset="1" style="stop-color:#DFDFDE"/>
		</radialGradient>
		<path id="XMLID_71_" class="st6" d="M208.9,104.7c1.1,2.9-0.2,6.2-5.7,7.7c-4.5,1.2-8.9,0.1-9.9-2.8c-1.1-2.9,1.7-6.4,6.1-7.7
			C204.1,100.5,207.8,101.8,208.9,104.7z"/>
		
			<radialGradient id="XMLID_83_" cx="201.4744" cy="114.6056" r="4.8841" fx="206.3536" fy="114.824" gradientTransform="matrix(0.9998 -1.647069e-002 1.950000e-002 0.9148 1.4634 7.0446)" gradientUnits="userSpaceOnUse">
			<stop  offset="0" style="stop-color:#6F6F6F"/>
			<stop  offset="0.1515" style="stop-color:#6C6C6C"/>
			<stop  offset="0.3238" style="stop-color:#656464"/>
			<stop  offset="0.5063" style="stop-color:#585858"/>
			<stop  offset="0.6958" style="stop-color:#474747"/>
			<stop  offset="0.8888" style="stop-color:#323232"/>
			<stop  offset="1" style="stop-color:#242424"/>
		</radialGradient>
		<path id="XMLID_70_" class="st7" d="M206.7,106c-0.7-2.1-2.8-3.3-4.8-2.8c-0.1,0-0.2,0.1-0.3,0.1c-0.7,1-1,2.5-0.5,3.9
			c0.6,1.9,2.4,3.2,4.1,3.2C206.6,109.6,207.3,107.8,206.7,106z"/>
		<g id="XMLID_338_">
			<path id="XMLID_339_" class="st4" d="M205.3,110.6c-1.9,0-3.7-1.4-4.4-3.4c-0.4-1.2-0.3-2.4,0.2-3.4c0.5-1,1.4-1.8,2.5-2.1
				c0.4-0.1,0.8-0.2,1.2-0.1c1.9,0,3.7,1.4,4.4,3.4c0.4,1.2,0.3,2.4-0.2,3.4c-0.5,1-1.4,1.8-2.5,2.1
				C206.1,110.5,205.7,110.6,205.3,110.6z M204.8,101.9c-0.4,0-0.7,0-1.1,0.1c-1,0.3-1.8,1-2.3,1.9c-0.5,1-0.5,2.1-0.2,3.2
				c0.6,1.8,2.3,3.1,4,3.1c0.4,0,0.7,0,1.1-0.1c1-0.3,1.8-1,2.3-1.9c0.5-1,0.5-2.1,0.2-3.2C208.2,103.2,206.5,101.9,204.8,101.9z"/>
		</g>
	</g>
	<path id="XMLID_67_" class="st8" d="M106.3,78.7c0,0-3.2-0.3-3.7,0c0,0-0.4,0,0.1,0.3c0,0,1.3,0.5,1.3,1.7l1.2,14l1.2,13.7
		l12.4-4.6L106.3,78.7z"/>
	
		<image style="overflow:visible;" width="510" height="165" id="XMLID_66_" xlink:href="D38D0AAE.png"  transform="matrix(0.24 0 0 0.24 104.3869 77.67)">
	</image>
	<g id="XMLID_322_">
		<path id="XMLID_65_" class="st9" d="M160.7,94c0,0.4-0.4,0.7-0.8,0.7l0,0c-0.5,0-0.8-0.3-0.8-0.7v-0.7c0-0.4,0.4-0.7,0.8-0.7l0,0
			c0.5,0,0.8,0.3,0.8,0.7V94z"/>
		<path id="XMLID_64_" class="st9" d="M158.4,94.6c0,0.4-0.4,0.7-0.8,0.7l0,0c-0.5,0-0.8-0.3-0.8-0.7v-0.7c0-0.4,0.4-0.7,0.8-0.7
			l0,0c0.5,0,0.8,0.3,0.8,0.7V94.6z"/>
		<path id="XMLID_63_" class="st9" d="M156.1,95.1c0,0.4-0.4,0.7-0.8,0.7l0,0c-0.5,0-0.8-0.3-0.8-0.7v-0.7c0-0.4,0.4-0.7,0.8-0.7
			l0,0c0.5,0,0.8,0.3,0.8,0.7V95.1z"/>
		<path id="XMLID_62_" class="st9" d="M154,95.8c0,0.4-0.4,0.7-0.8,0.7l0,0c-0.5,0-0.8-0.3-0.8-0.7v-0.7c0-0.4,0.4-0.7,0.8-0.7l0,0
			c0.5,0,0.8,0.3,0.8,0.7V95.8z"/>
		<path id="XMLID_61_" class="st9" d="M152,96.3c0,0.4-0.4,0.7-0.8,0.7l0,0c-0.5,0-0.8-0.3-0.8-0.7v-0.7c0-0.4,0.4-0.7,0.8-0.7l0,0
			c0.5,0,0.8,0.3,0.8,0.7V96.3z"/>
		<path id="XMLID_60_" class="st9" d="M149.8,96.9c0,0.4-0.4,0.7-0.8,0.7l0,0c-0.5,0-0.8-0.3-0.8-0.7v-0.7c0-0.4,0.4-0.7,0.8-0.7
			l0,0c0.5,0,0.8,0.3,0.8,0.7V96.9z"/>
		<path id="XMLID_59_" class="st9" d="M147.7,97.4c0,0.4-0.4,0.7-0.8,0.7l0,0c-0.5,0-0.8-0.3-0.8-0.7v-0.7c0-0.4,0.4-0.7,0.8-0.7
			l0,0c0.5,0,0.8,0.3,0.8,0.7V97.4z"/>
		<path id="XMLID_58_" class="st9" d="M145.9,98c0,0.4-0.4,0.7-0.8,0.7l0,0c-0.5,0-0.8-0.3-0.8-0.7v-0.7c0-0.4,0.4-0.7,0.8-0.7l0,0
			c0.5,0,0.8,0.3,0.8,0.7V98z"/>
		<path id="XMLID_57_" class="st9" d="M143.8,98.6c0,0.4-0.4,0.7-0.8,0.7l0,0c-0.5,0-0.8-0.3-0.8-0.7v-0.7c0-0.4,0.4-0.7,0.8-0.7
			l0,0c0.5,0,0.8,0.3,0.8,0.7V98.6z"/>
		<path id="XMLID_56_" class="st9" d="M141.8,99.2c0,0.4-0.4,0.7-0.8,0.7l0,0c-0.5,0-0.8-0.3-0.8-0.7v-0.7c0-0.4,0.4-0.7,0.8-0.7
			l0,0c0.5,0,0.8,0.3,0.8,0.7V99.2z"/>
		<path id="XMLID_55_" class="st9" d="M139.8,99.8c0,0.4-0.4,0.7-0.8,0.7l0,0c-0.5,0-0.8-0.3-0.8-0.7v-0.7c0-0.4,0.4-0.7,0.8-0.7
			l0,0c0.5,0,0.8,0.3,0.8,0.7V99.8z"/>
		<path id="XMLID_54_" class="st9" d="M137.8,100.4c0,0.4-0.4,0.7-0.8,0.7l0,0c-0.5,0-0.8-0.3-0.8-0.7v-0.7c0-0.4,0.4-0.7,0.8-0.7
			l0,0c0.5,0,0.8,0.3,0.8,0.7V100.4z"/>
	</g>
	<g id="XMLID_310_">
		<path id="XMLID_53_" class="st9" d="M143.5,99.6c0,0.4-0.4,0.7-0.8,0.7l0,0c-0.5,0-0.8-0.3-0.8-0.7v-0.7c0-0.4,0.4-0.7,0.8-0.7
			l0,0c0.5,0,0.8,0.3,0.8,0.7V99.6z"/>
		<path id="XMLID_52_" class="st9" d="M141.2,100.2c0,0.4-0.4,0.7-0.8,0.7l0,0c-0.5,0-0.8-0.3-0.8-0.7v-0.7c0-0.4,0.4-0.7,0.8-0.7
			l0,0c0.5,0,0.8,0.3,0.8,0.7V100.2z"/>
		<path id="XMLID_51_" class="st9" d="M139,100.7c0,0.4-0.4,0.7-0.8,0.7l0,0c-0.5,0-0.8-0.3-0.8-0.7v-0.7c0-0.4,0.4-0.7,0.8-0.7l0,0
			c0.5,0,0.8,0.3,0.8,0.7V100.7z"/>
		<path id="XMLID_50_" class="st9" d="M136.8,101.4c0,0.4-0.4,0.7-0.8,0.7l0,0c-0.5,0-0.8-0.3-0.8-0.7v-0.7c0-0.4,0.4-0.7,0.8-0.7
			l0,0c0.5,0,0.8,0.3,0.8,0.7V101.4z"/>
		<path id="XMLID_49_" class="st9" d="M134.8,101.8c0,0.4-0.4,0.7-0.8,0.7l0,0c-0.5,0-0.8-0.3-0.8-0.7v-0.7c0-0.4,0.4-0.7,0.8-0.7
			l0,0c0.5,0,0.8,0.3,0.8,0.7V101.8z"/>
		<path id="XMLID_48_" class="st9" d="M132.6,102.5c0,0.4-0.4,0.7-0.8,0.7l0,0c-0.5,0-0.8-0.3-0.8-0.7v-0.7c0-0.4,0.4-0.7,0.8-0.7
			l0,0c0.5,0,0.8,0.3,0.8,0.7V102.5z"/>
		<path id="XMLID_47_" class="st9" d="M130.6,103c0,0.4-0.4,0.7-0.8,0.7l0,0c-0.5,0-0.8-0.3-0.8-0.7v-0.7c0-0.4,0.4-0.7,0.8-0.7l0,0
			c0.5,0,0.8,0.3,0.8,0.7V103z"/>
		<path id="XMLID_43_" class="st9" d="M128.7,103.5c0,0.4-0.4,0.7-0.8,0.7l0,0c-0.5,0-0.8-0.3-0.8-0.7v-0.7c0-0.4,0.4-0.7,0.8-0.7
			l0,0c0.5,0,0.8,0.3,0.8,0.7V103.5z"/>
		<path id="XMLID_35_" class="st9" d="M126.6,104.1c0,0.4-0.4,0.7-0.8,0.7l0,0c-0.5,0-0.8-0.3-0.8-0.7v-0.7c0-0.4,0.4-0.7,0.8-0.7
			l0,0c0.5,0,0.8,0.3,0.8,0.7V104.1z"/>
		<path id="XMLID_34_" class="st9" d="M124.6,104.7c0,0.4-0.4,0.7-0.8,0.7l0,0c-0.5,0-0.8-0.3-0.8-0.7V104c0-0.4,0.4-0.7,0.8-0.7
			l0,0c0.5,0,0.8,0.3,0.8,0.7V104.7z"/>
		<path id="XMLID_33_" class="st9" d="M122.6,105.3c0,0.4-0.4,0.7-0.8,0.7l0,0c-0.5,0-0.8-0.3-0.8-0.7v-0.7c0-0.4,0.4-0.7,0.8-0.7
			l0,0c0.5,0,0.8,0.3,0.8,0.7V105.3z"/>
	</g>
	
		<image style="overflow:visible;" width="455" height="114" id="XMLID_32_" xlink:href="D38D0AAF.png"  transform="matrix(0.24 0 0 0.24 51.8158 80.7706)">
	</image>
	<g id="XMLID_292_">
		
			<radialGradient id="XMLID_84_" cx="120.4473" cy="86.7651" r="15.0726" gradientTransform="matrix(0.9992 -3.725992e-002 4.070000e-002 0.9142 -1.4231 14.3069)" gradientUnits="userSpaceOnUse">
			<stop  offset="0" style="stop-color:#6F6F6F"/>
			<stop  offset="0.1515" style="stop-color:#6C6C6C"/>
			<stop  offset="0.3238" style="stop-color:#656464"/>
			<stop  offset="0.5063" style="stop-color:#585858"/>
			<stop  offset="0.6958" style="stop-color:#474747"/>
			<stop  offset="0.8888" style="stop-color:#323232"/>
			<stop  offset="1" style="stop-color:#242424"/>
		</radialGradient>
		<path id="XMLID_31_" class="st10" d="M134.7,90.4c1.3,3.4-0.1,7.3-6.5,9.2c-5.2,1.5-10.4,0.3-11.7-3c-1.3-3.4,1.8-7.5,7-9.1
			C129,85.7,133.4,87.1,134.7,90.4z"/>
		
			<radialGradient id="XMLID_85_" cx="122.2982" cy="86.1606" r="15.0726" gradientTransform="matrix(0.9992 -3.725992e-002 4.070000e-002 0.9142 -1.4231 14.3069)" gradientUnits="userSpaceOnUse">
			<stop  offset="0" style="stop-color:#F3F6F8"/>
			<stop  offset="0.2867" style="stop-color:#EEF0F1"/>
			<stop  offset="0.6119" style="stop-color:#E1E0E0"/>
			<stop  offset="0.7083" style="stop-color:#DBDADA"/>
			<stop  offset="1" style="stop-color:#DFDFDE"/>
		</radialGradient>
		<path id="XMLID_30_" class="st11" d="M136.6,89.8c1.3,3.4-0.1,7.3-6.5,9.2c-5.2,1.5-10.4,0.3-11.7-3c-1.3-3.4,1.8-7.5,7-9.1
			C130.9,85.1,135.3,86.5,136.6,89.8z"/>
		
			<radialGradient id="XMLID_86_" cx="130.0343" cy="92.9543" r="5.7179" fx="135.7464" fy="93.2101" gradientTransform="matrix(0.9992 -3.725992e-002 4.070000e-002 0.9142 -1.4231 14.3067)" gradientUnits="userSpaceOnUse">
			<stop  offset="0" style="stop-color:#6F6F6F"/>
			<stop  offset="0.1515" style="stop-color:#6C6C6C"/>
			<stop  offset="0.3238" style="stop-color:#656464"/>
			<stop  offset="0.5063" style="stop-color:#585858"/>
			<stop  offset="0.6958" style="stop-color:#474747"/>
			<stop  offset="0.8888" style="stop-color:#323232"/>
			<stop  offset="1" style="stop-color:#242424"/>
		</radialGradient>
		<path id="XMLID_29_" class="st12" d="M134.1,91.4c-0.9-2.4-3.4-3.9-5.7-3.2c-0.1,0-0.2,0.1-0.3,0.1c-0.8,1.2-1.1,2.9-0.5,4.5
			c0.8,2.2,2.8,3.7,4.9,3.7C134.1,95.6,134.8,93.5,134.1,91.4z"/>
		<g id="XMLID_302_">
			<path id="XMLID_303_" class="st4" d="M132.6,96.8c-2.3,0-4.4-1.6-5.2-3.8c-0.5-1.4-0.4-2.8,0.1-4c0.6-1.2,1.6-2.1,2.9-2.5
				c0.4-0.1,0.9-0.2,1.4-0.2c2.3,0,4.4,1.6,5.2,3.8c0.5,1.4,0.4,2.8-0.1,4c-0.6,1.2-1.6,2.1-2.9,2.5C133.5,96.7,133,96.8,132.6,96.8
				z M131.7,86.6c-0.4,0-0.8,0.1-1.2,0.2c-1.2,0.3-2.1,1.2-2.6,2.3c-0.5,1.1-0.5,2.5-0.1,3.7c0.8,2.1,2.7,3.6,4.8,3.6
				c0.4,0,0.8-0.1,1.2-0.2c1.2-0.3,2.1-1.2,2.6-2.3c0.5-1.1,0.5-2.5,0.1-3.7C135.7,88.1,133.7,86.6,131.7,86.6z"/>
		</g>
	</g>
	<g id="XMLID_283_">
		
			<radialGradient id="XMLID_87_" cx="102.9374" cy="83.1809" r="13.772" gradientTransform="matrix(0.9992 -3.725992e-002 4.070000e-002 0.9142 -1.4231 14.3069)" gradientUnits="userSpaceOnUse">
			<stop  offset="0" style="stop-color:#6F6F6F"/>
			<stop  offset="0.1515" style="stop-color:#6C6C6C"/>
			<stop  offset="0.3238" style="stop-color:#656464"/>
			<stop  offset="0.5063" style="stop-color:#585858"/>
			<stop  offset="0.6958" style="stop-color:#474747"/>
			<stop  offset="0.8888" style="stop-color:#323232"/>
			<stop  offset="1" style="stop-color:#242424"/>
		</radialGradient>
		<path id="XMLID_26_" class="st13" d="M116,87.7c1.2,3.1-0.1,6.7-5.9,8.4c-4.8,1.4-9.5,0.3-10.7-2.8c-1.2-3.1,1.6-6.9,6.4-8.4
			C110.8,83.4,114.8,84.6,116,87.7z"/>
		
			<radialGradient id="XMLID_88_" cx="104.6286" cy="82.6286" r="13.7717" gradientTransform="matrix(0.9992 -3.725992e-002 4.070000e-002 0.9142 -1.4231 14.3069)" gradientUnits="userSpaceOnUse">
			<stop  offset="0" style="stop-color:#F3F6F8"/>
			<stop  offset="0.2867" style="stop-color:#EEF0F1"/>
			<stop  offset="0.6119" style="stop-color:#E1E0E0"/>
			<stop  offset="0.7083" style="stop-color:#DBDADA"/>
			<stop  offset="1" style="stop-color:#DFDFDE"/>
		</radialGradient>
		<path id="XMLID_25_" class="st14" d="M117.7,87.1c1.2,3.1-0.1,6.7-5.9,8.4c-4.8,1.4-9.5,0.3-10.7-2.8c-1.2-3.1,1.6-6.9,6.4-8.4
			C112.5,82.8,116.5,84.1,117.7,87.1z"/>
		
			<radialGradient id="XMLID_89_" cx="111.6968" cy="88.8361" r="5.2242" fx="116.9158" fy="89.0697" gradientTransform="matrix(0.9992 -3.725992e-002 4.070000e-002 0.9142 -1.4231 14.3067)" gradientUnits="userSpaceOnUse">
			<stop  offset="0" style="stop-color:#6F6F6F"/>
			<stop  offset="0.1515" style="stop-color:#6C6C6C"/>
			<stop  offset="0.3238" style="stop-color:#656464"/>
			<stop  offset="0.5063" style="stop-color:#585858"/>
			<stop  offset="0.6958" style="stop-color:#474747"/>
			<stop  offset="0.8888" style="stop-color:#323232"/>
			<stop  offset="1" style="stop-color:#242424"/>
		</radialGradient>
		<path id="XMLID_24_" class="st15" d="M115.4,88.6c-0.8-2.2-3.1-3.5-5.2-2.9c-0.1,0-0.2,0.1-0.3,0.1c-0.8,1.1-1,2.7-0.4,4.1
			c0.7,2,2.6,3.3,4.5,3.4C115.4,92.4,116.1,90.5,115.4,88.6z"/>
		<g id="XMLID_284_">
			<path id="XMLID_285_" class="st4" d="M114,93.5c-2.1,0-4-1.4-4.8-3.5c-0.4-1.2-0.4-2.5,0.1-3.7c0.5-1.1,1.4-1.9,2.6-2.3
				c0.4-0.1,0.8-0.2,1.3-0.2c2.1,0,4,1.4,4.8,3.5c0.4,1.2,0.4,2.5-0.1,3.7c-0.5,1.1-1.4,1.9-2.6,2.3C114.9,93.5,114.5,93.5,114,93.5
				z M113.2,84.2c-0.4,0-0.8,0.1-1.1,0.2c-1.1,0.3-1.9,1.1-2.4,2.1c-0.5,1-0.5,2.2-0.1,3.4c0.7,1.9,2.5,3.3,4.4,3.3
				c0.4,0,0.8-0.1,1.1-0.2c1.1-0.3,1.9-1.1,2.4-2.1c0.5-1,0.5-2.2,0.1-3.4C116.9,85.6,115.1,84.2,113.2,84.2z"/>
		</g>
	</g>
	
		<image style="overflow:visible;" width="159" height="24" id="XMLID_21_" xlink:href="D38D0A98.png"  transform="matrix(0.24 0 0 0.24 82.9642 105.0051)">
	</image>
	<g id="XMLID_277_" class="st16">
		<defs>
			<path id="XMLID_19_" class="st16" d="M223.3,83.8c0,0,5.3,3.8,2.5,7.2c0,0-1.6,6.9-24.8,12.6c0,0-51.4,11.3-56.2,12.2
				c0,0-17.1,3.2-35.9-2.1c0,0-6.1-2-4.3-3.8l89.9-28.6L223.3,83.8z"/>
		</defs>
		<clipPath id="XMLID_90_">
			<use xlink:href="#XMLID_19_"  style="overflow:visible;"/>
		</clipPath>
		<g id="XMLID_20_" class="st17">
			<path id="XMLID_82_" class="st18" d="M97.2,108.9c20.4,6.4,46.8,4.2,66.2-2.2c17.1-5.8,35.4-17.2,54-16.8
				c13.5,0.1,19.5,5.4,32.1,10l8.3,51.2l-130.2-3.7L97.2,108.9z"/>
		</g>
	</g>
	<polygon id="XMLID_18_" class="st9" points="221.7,82.2 215.6,82.5 214.5,81.2 220.4,81 	"/>
	<polygon id="XMLID_17_" class="st9" points="214.1,82.5 209.3,83.1 209.4,81.5 213.8,81.4 	"/>
	<g id="XMLID_39_">
		<path id="XMLID_16_" class="st9" d="M193,85.8c0,0.4-0.4,0.7-0.8,0.7l0,0c-0.5,0-0.8-0.3-0.8-0.7v-0.7c0-0.4,0.4-0.7,0.8-0.7l0,0
			c0.5,0,0.8,0.3,0.8,0.7V85.8z"/>
		<path id="XMLID_15_" class="st9" d="M190.7,86.5c0,0.4-0.4,0.7-0.8,0.7l0,0c-0.5,0-0.8-0.3-0.8-0.7v-0.7c0-0.4,0.4-0.7,0.8-0.7
			l0,0c0.5,0,0.8,0.3,0.8,0.7V86.5z"/>
		<path id="XMLID_14_" class="st9" d="M188.5,86.9c0,0.4-0.4,0.7-0.8,0.7l0,0c-0.5,0-0.8-0.3-0.8-0.7v-0.7c0-0.4,0.4-0.7,0.8-0.7
			l0,0c0.5,0,0.8,0.3,0.8,0.7V86.9z"/>
		<path id="XMLID_13_" class="st9" d="M186.3,87.7c0,0.4-0.4,0.7-0.8,0.7l0,0c-0.5,0-0.8-0.3-0.8-0.7v-0.7c0-0.4,0.4-0.7,0.8-0.7
			l0,0c0.5,0,0.8,0.3,0.8,0.7V87.7z"/>
		<path id="XMLID_12_" class="st9" d="M184.3,88.1c0,0.4-0.4,0.7-0.8,0.7l0,0c-0.5,0-0.8-0.3-0.8-0.7v-0.7c0-0.4,0.4-0.7,0.8-0.7
			l0,0c0.5,0,0.8,0.3,0.8,0.7V88.1z"/>
		<path id="XMLID_11_" class="st9" d="M182.1,88.7c0,0.4-0.4,0.7-0.8,0.7l0,0c-0.5,0-0.8-0.3-0.8-0.7V88c0-0.4,0.4-0.7,0.8-0.7l0,0
			c0.5,0,0.8,0.3,0.8,0.7V88.7z"/>
		<path id="XMLID_10_" class="st9" d="M180.1,89.2c0,0.4-0.4,0.7-0.8,0.7l0,0c-0.5,0-0.8-0.3-0.8-0.7v-0.7c0-0.4,0.4-0.7,0.8-0.7
			l0,0c0.5,0,0.8,0.3,0.8,0.7V89.2z"/>
		<path id="XMLID_9_" class="st9" d="M178.2,89.8c0,0.4-0.4,0.7-0.8,0.7l0,0c-0.5,0-0.8-0.3-0.8-0.7v-0.7c0-0.4,0.4-0.7,0.8-0.7l0,0
			c0.5,0,0.8,0.3,0.8,0.7V89.8z"/>
		<path id="XMLID_7_" class="st9" d="M176.1,90.4c0,0.4-0.4,0.7-0.8,0.7l0,0c-0.5,0-0.8-0.3-0.8-0.7v-0.7c0-0.4,0.4-0.7,0.8-0.7l0,0
			c0.5,0,0.8,0.3,0.8,0.7V90.4z"/>
		<path id="XMLID_5_" class="st9" d="M174.1,91c0,0.4-0.4,0.7-0.8,0.7l0,0c-0.5,0-0.8-0.3-0.8-0.7v-0.7c0-0.4,0.4-0.7,0.8-0.7l0,0
			c0.5,0,0.8,0.3,0.8,0.7V91z"/>
		<path id="XMLID_4_" class="st9" d="M172.1,91.6c0,0.4-0.4,0.7-0.8,0.7l0,0c-0.5,0-0.8-0.3-0.8-0.7v-0.7c0-0.4,0.4-0.7,0.8-0.7l0,0
			c0.5,0,0.8,0.3,0.8,0.7V91.6z"/>
		<path id="XMLID_3_" class="st9" d="M170.1,92.2c0,0.4-0.4,0.7-0.8,0.7l0,0c-0.5,0-0.8-0.3-0.8-0.7v-0.7c0-0.4,0.4-0.7,0.8-0.7l0,0
			c0.5,0,0.8,0.3,0.8,0.7V92.2z"/>
	</g>
	<g id="XMLID_36_">
		<path id="XMLID_2_" class="st19" d="M200.5,86.2c0.2,1.2-1,2.3-2.5,2.5l0,0c-1.5,0.2-2.9-0.7-3-1.9l-0.3-2.4
			c-0.2-1.2,1-2.3,2.5-2.5l0,0c1.5-0.2,2.9,0.7,3,1.9L200.5,86.2z"/>
		
			<ellipse id="XMLID_1_" transform="matrix(0.9992 -3.895785e-002 3.895785e-002 0.9992 -3.1133 7.7746)" class="st9" cx="197.9" cy="83.8" rx="0.2" ry="0.3"/>
	</g>
</g>
</svg>
