<?xml version="1.0" encoding="utf-8"?>
<!-- Generator: Adobe Illustrator 21.0.0, SVG Export Plug-In . SVG Version: 6.00 Build 0)  -->
<svg version="1.1" id="Layer_1" xmlns="http://www.w3.org/2000/svg" xmlns:xlink="http://www.w3.org/1999/xlink" x="0px" y="0px"
	 viewBox="0 0 594 517" style="enable-background:new 0 0 594 517;" xml:space="preserve">
<style type="text/css">
	.st0{fill:#0776BC;}
	.st1{fill:#ED1D78;}
	.st2{fill:#AFAEAF;}
	.st3{fill:#9ECB3B;}
	.st4{fill:#F26326;}
</style>
<g>
	<path class="st0" d="M557.6,225.5h30.1c5,0,7.9-5.6,5.1-9.7L473.3,45.2c-2.5-3.5-7.7-3.5-10.1,0l-15,21.6c-1.5,2.1-1.5,4.9,0,7.1
		l104.3,149.1C553.7,224.5,555.5,225.5,557.6,225.5z"/>
	<path class="st1" d="M159.8,67.7l102,145.8c2.5,3.5,7.7,3.5,10.1,0l15-21.6c1.5-2.1,1.5-4.9,0-7.1L159.7,3c-2.5-3.5-7.7-3.5-10.1,0
		L1.3,215.8c-2.8,4.1,0.1,9.7,5.1,9.7h30.1c2,0,3.9-1,5.1-2.6L149.7,67.7C152.1,64.2,157.3,64.2,159.8,67.7z"/>
	<path class="st2" d="M458.3,23.7L443.7,2.8c-2.5-3.5-7.7-3.5-10.1,0L135.2,431.5c-1.5,2.1-1.5,4.9,0,7.1l14.6,20.8
		c2.5,3.5,7.7,3.5,10.1,0L458.3,30.7v0C459.8,28.6,459.8,25.8,458.3,23.7z"/>
	<path class="st3" d="M36.3,237.2H6.2c-5,0-7.9,5.6-5.1,9.7l119,170.1c2.5,3.5,7.7,3.5,10.1,0l15-21.6c1.5-2.1,1.5-4.9,0-7.1
		L41.3,239.9C40.2,238.2,38.3,237.2,36.3,237.2z"/>
	<path class="st4" d="M433.6,394.5l-102-145.7c-2.5-3.5-7.7-3.5-10.1,0l-15,21.6c-1.5,2.1-1.5,4.9,0,7.1l127.1,181.7
		c2.5,3.5,7.7,3.5,10.1,0l147.9-212.2c2.8-4.1-0.1-9.7-5.1-9.7h-30.1c-2,0-3.9,1-5.1,2.6L443.7,394.5
		C441.3,398,436.1,398,433.6,394.5z"/>
	<path class="st1" d="M138.9,149.1a15.7,15.7 0 1,0 31.4,0a15.7,15.7 0 1,0 -31.4,0"/>
	<path d="M147.8,517l-11.7-49.2H148l3.7,20.3c1.1,5.8,2.1,12.2,2.9,17.2h0.1c0.8-5.3,2-11.2,3.2-17.3l4.2-20.1H174l3.9,20.7
		c1.1,5.8,1.9,11,2.6,16.5h0.1c0.7-5.5,1.8-11.2,2.8-17.1l4-20.1h11.3L186.2,517h-12l-4.2-21.2c-0.9-5-1.8-9.6-2.3-15.2h-0.1
		c-0.9,5.5-1.7,10.2-2.8,15.2L160,517H147.8z"/>
	<path d="M233.9,496.2h-18.1v11.7H236v9.1h-31.4v-49.2H235v9.1h-19.2v10.2h18.1V496.2z"/>
	<path d="M243.6,468.5c2.9-0.6,8.8-1,14.4-1c6.8,0,11,0.7,14.5,2.8c3.4,1.8,5.9,5.2,5.9,9.6c0,4.4-2.6,8.5-8.1,10.5v0.1
		c5.6,1.5,9.8,5.8,9.8,12.1c0,4.5-2,8-5.1,10.4c-3.6,2.8-9.6,4.5-19.3,4.5c-5.5,0-9.6-0.4-12-0.7V468.5z M254.6,487.3h3.6
		c5.8,0,9-2.4,9-6.1c0-3.7-2.8-5.7-7.9-5.7c-2.4,0-3.8,0.1-4.7,0.3V487.3z M254.6,509.1c1.1,0.1,2.4,0.1,4.3,0.1
		c5,0,9.5-1.9,9.5-7.1c0-5-4.5-6.9-10-6.9h-3.8V509.1z"/>
	<path d="M298.9,504.4l-3.5,12.6h-11.5l15-49.2h14.6l15.3,49.2h-12l-3.8-12.6H298.9z M311.4,496l-3.1-10.4c-0.9-2.9-1.8-6.6-2.5-9.5
		h-0.1c-0.7,2.9-1.5,6.6-2.3,9.5l-2.9,10.4H311.4z"/>
	<path d="M359.5,517l-4.5-8.9c-1.8-3.4-3-6-4.4-8.8h-0.1c-1,2.8-2.3,5.4-3.8,8.8l-4.1,8.9h-12.7l14.2-24.9l-13.7-24.3h12.8l4.3,9
		c1.5,3,2.6,5.4,3.7,8.2h0.1c1.2-3.1,2.1-5.3,3.4-8.2l4.2-9h12.7l-13.9,24l14.6,25.2H359.5z"/>
	<path d="M390.6,517v-20.1L375,467.8h12.7l5,11.8c1.5,3.6,2.6,6.2,3.8,9.4h0.1c1.1-3.1,2.3-5.9,3.7-9.4l5-11.8h12.5l-16.2,28.7V517
		H390.6z"/>
	<path d="M420.1,511l23.4-33.7V477h-21.2v-9.2h35.7v6.4L435,507.5v0.3h23.3v9.2h-38.3V511z"/>
</g>

</svg>
