<?xml version="1.0" encoding="utf-8"?>
<!-- Generator: Adobe Illustrator 19.0.0, SVG Export Plug-In . SVG Version: 6.00 Build 0)  -->
<svg width="65" version="1.1" id="holiday_1_" xmlns="http://www.w3.org/2000/svg" xmlns:xlink="http://www.w3.org/1999/xlink" x="0px" y="0px"
	 viewBox="0 0 1366 768" style="enable-background:new 0 0 1366 768;" xml:space="preserve">
<style type="text/css">
	.st0{fill:url(#SVGID_1_);}
	.st1{fill:#D6D6D6;}
	.st2{fill:none;}
	.st3{fill:#050505;}
	.st4{fill:#FFFFFF;}
	.st5{fill:#020202;}
	.st6{fill:none;stroke:#020202;stroke-width:15;stroke-miterlimit:10;}
</style>
<g id="holiday">
	<linearGradient id="SVGID_1_" gradientUnits="userSpaceOnUse" x1="529.1001" y1="532.7847" x2="846.8552" y2="532.7847">
		<stop  offset="0" style="stop-color:#0776BC"/>
		<stop  offset="1" style="stop-color:#9ECB3B"/>
	</linearGradient>
	<circle class="st0" cx="688" cy="532.8" r="158.9"/>
	<rect x="217.1" y="119.6" class="st1" width="926.3" height="129.8"/>
	<g>
		<polygon class="st2" points="930.8,556.8 930.8,691.7 1133.5,691.7 1133.5,120.7 232.5,120.7 232.5,691.7 444.7,691.7 
			444.7,556.8 		"/>
		<polygon class="st3" points="1169.1,85.1 196.9,85.1 196.9,727.2 444.7,727.2 444.7,691.7 232.5,691.7 232.5,120.7 1133.5,120.7 
			1133.5,691.7 930.8,691.7 930.8,727.2 1169.1,727.2 		"/>
	</g>
	<path class="st3" d="M309.7,650.2h-19.2c-3.9,0-7-3.1-7-7V299.1c0-3.9,3.1-7,7-7h19.2c3.9,0,7,3.1,7,7v344.1
		C316.7,647,313.5,650.2,309.7,650.2z"/>
	<path class="st3" d="M1080.3,650.2h-19.2c-3.9,0-7-3.1-7-7V299.1c0-3.9,3.1-7,7-7h19.2c3.9,0,7,3.1,7,7v344.1
		C1087.3,647,1084.2,650.2,1080.3,650.2z"/>
	<path class="st4" d="M309.7,209.1h-19.2c-3.9,0-7-3.1-7-7v-25.5c0-3.9,3.1-7,7-7h19.2c3.9,0,7,3.1,7,7v25.5
		C316.7,206,313.5,209.1,309.7,209.1z"/>
	<path class="st5" d="M1079.3,207.5h-101c-4.4,0-8-3.6-8-8v-21.9c0-4.4,3.6-8,8-8h101c4.4,0,8,3.6,8,8v21.9
		C1087.3,204,1083.7,207.5,1079.3,207.5z"/>
	<path class="st5" d="M1122,65.3h-23.5c-4.4,0-8-3.6-8-8V35.3c0-4.4,3.6-8,8-8h23.5c4.4,0,8,3.6,8,8v21.9
		C1130,61.7,1126.4,65.3,1122,65.3z"/>
	<path class="st5" d="M1041.3,65.3h-23.5c-4.4,0-8-3.6-8-8V35.3c0-4.4,3.6-8,8-8h23.5c4.4,0,8,3.6,8,8v21.9
		C1049.3,61.7,1045.8,65.3,1041.3,65.3z"/>
	<path class="st5" d="M351.3,65.3H247.2c-4.4,0-8-3.6-8-8V35.3c0-4.4,3.6-8,8-8h104.1c4.4,0,8,3.6,8,8v21.9
		C359.3,61.7,355.8,65.3,351.3,65.3z"/>
	<g>
		<path class="st2" d="M696.2,446.6c-49.4,0-90.4,36.6-97.2,84.2h194.4C786.6,483.3,745.6,446.6,696.2,446.6z"/>
		<g>
			<path class="st4" d="M560.8,530.8H599c6.4-44.4,42.5-79.3,87.5-83.7v-38C620.6,413.7,567.5,465.5,560.8,530.8z"/>
		</g>
	</g>
	<circle class="st6" cx="684.6" cy="532.8" r="222.5"/>
	<g>
		<polygon class="st5" points="569.8,48.3 803.2,48.3 816.3,85.8 854,85.8 828.5,12.7 544.5,12.7 519,85.8 556.7,85.8 		"/>
	</g>
</g>
</svg>
