<?xml version="1.0" encoding="utf-8"?>
<!-- Generator: Adobe Illustrator 19.0.0, SVG Export Plug-In . SVG Version: 6.00 Build 0)  -->
<svg width="65" version="1.1" id="hotel_1_" xmlns="http://www.w3.org/2000/svg" xmlns:xlink="http://www.w3.org/1999/xlink" x="0px" y="0px"
	 viewBox="0 0 1366 768" style="enable-background:new 0 0 1366 768;" xml:space="preserve">
<style type="text/css">
	.st0{fill:#020202;}
	.st1{fill:#050505;}
	.st2{fill:url(#SVGID_1_);}
	.st3{fill:url(#SVGID_2_);}
</style>
<g id="hotel">
	<g>
		<path class="st0" d="M643.1,64h-1.7c-10.8,0-19.5,8.8-19.5,19.5v0c0,10.8,8.8,19.5,19.5,19.5h1.7c10.8,0,19.5-8.8,19.5-19.5v0
			C662.6,72.8,653.9,64,643.1,64z"/>
	</g>
	<g>
		<path class="st0" d="M1079.1,64H727.3c-10.8,0-19.5,8.8-19.5,19.5v0c0,10.8,8.8,19.5,19.5,19.5h351.8c10.8,0,19.5-8.8,19.5-19.5v0
			C1098.7,72.8,1089.9,64,1079.1,64z"/>
	</g>
	<path class="st1" d="M49.9,717.6H4.5V59.2c0-4.8,3.9-8.7,8.7-8.7h28c4.8,0,8.7,3.9,8.7,8.7V717.6z"/>
	<rect x="1316.1" y="357.2" class="st1" width="45.4" height="360.4"/>
	<linearGradient id="SVGID_1_" gradientUnits="userSpaceOnUse" x1="488.2153" y1="503.3056" x2="533.6651" y2="503.3056">
		<stop  offset="0" style="stop-color:#0776BC"/>
		<stop  offset="1" style="stop-color:#9ECB3B"/>
	</linearGradient>
	<path class="st2" d="M524.9,649.4h-28c-4.8,0-8.7-3.9-8.7-8.7V357.2h45.4v283.5C533.7,645.5,529.8,649.4,524.9,649.4z"/>
	<linearGradient id="SVGID_2_" gradientUnits="userSpaceOnUse" x1="582.3613" y1="503.3056" x2="1265.1184" y2="503.3056">
		<stop  offset="0" style="stop-color:#0776BC"/>
		<stop  offset="1" style="stop-color:#9ECB3B"/>
	</linearGradient>
	<path class="st3" d="M1256.4,649.4H591.1c-4.8,0-8.7-3.9-8.7-8.7V357.2h682.8v283.5C1265.1,645.5,1261.2,649.4,1256.4,649.4z"/>
	<g>
		<polygon class="st1" points="106.8,360.5 106.8,574.1 485,574.1 485,525.4 155.5,525.4 155.5,409.2 485,409.2 485,360.5 		"/>
	</g>
	<path class="st1" d="M434.2,251.9C434.2,251.9,434.2,251.9,434.2,251.9L434.2,251.9c-28.3-64.9-93-110.3-168.2-110.3
		S126.2,187.1,97.9,251.9h0c0,0,0,0,0,0c0,0,0,0,0,0h0c28.3,64.9,93,110.3,168.2,110.3S405.9,316.8,434.2,251.9L434.2,251.9
		C434.2,252,434.2,252,434.2,251.9z M266,313.6c-47.4,0-89-24.6-113.1-61.6c24-37.1,65.7-61.6,113.1-61.6s89,24.6,113.1,61.6
		C355.1,289,313.4,313.6,266,313.6z"/>
</g>
</svg>
