<?xml version="1.0" encoding="utf-8"?>
<!-- Generator: Adobe Illustrator 19.0.0, SVG Export Plug-In . SVG Version: 6.00 Build 0)  -->
<svg version="1.1" id="Layer_1" xmlns="http://www.w3.org/2000/svg" xmlns:xlink="http://www.w3.org/1999/xlink" x="0px" y="0px"
	 viewBox="258 -231.2 548 495.2" style="enable-background:new 258 -231.2 548 495.2;" xml:space="preserve" height="377px" width="400px">
<style type="text/css">
	.st0{fill:#273076;}
	.st1{font-family:'ArialMT';}
	.st2{font-size:16.208px;}
	.st3{font-size:12px;}
	.st4{fill:#E8E8E8;}
	.st5{fill:#FFFFFF;stroke:#273076;stroke-width:1.7;stroke-linecap:round;stroke-linejoin:round;stroke-miterlimit:10;}
	.st6{fill:#FFFFFF;}
	.st7{fill:#D7EEEF;}
	.st8{fill:none;stroke:#273076;stroke-width:1.7;stroke-miterlimit:10;}
	.st9{fill:none;stroke:#273076;stroke-width:1.7;stroke-linecap:round;stroke-linejoin:round;stroke-miterlimit:10;}
	.st10{fill:#273076;stroke:#FFFFFF;stroke-width:1.7;stroke-linecap:round;stroke-linejoin:round;stroke-miterlimit:10;}
	.st11{fill:#0776BC;stroke:#FFFFFF;stroke-width:1.7;stroke-linecap:round;stroke-linejoin:round;stroke-miterlimit:10;}
</style>
<g>
	<g id="XMLID_674_">
		<text id="XMLID_75_" transform="matrix(1 0 0 1 475.2404 201.7832)" class="st0 st1 st2">No Hotel Found</text>
	</g>
	<text transform="matrix(1 0 0 1 396.0391 226.238)" class="st0 st1 st3">Well, that’s not the your searching for let’ try ageain</text>
</g>
<path id="XMLID_93_" class="st4" d="M711.7-106.4h-72c-5.8,0-10.4-4.6-10.4-10.4c0-5.2,4.1-9.6,9-10.2h20.2
	c18.1,0,32.6-14.6,32.6-32.6s-14.6-32.5-32.5-32.5H472.3c-18.1,0-32.6,14.6-32.6,32.6s14.6,32.6,32.6,32.6h35.6c5.2,0.6,9,5,9,10.2
	c0,5.8-4.6,10.4-10.4,10.4H352c-26.2,0-47.2,21.2-47.2,47.2l0,0c0,26.2,21.2,47.2,47.2,47.2h142.3c8.1,1.2,14.5,8.1,14.5,16.6
	c0,8.7-6.5,15.6-14.8,16.6h-73.5c-19.5,0-35.3,15.8-35.3,35.3l0,0c0,19.5,15.8,35.3,35.3,35.3h85.7c7,0,12.5,5.6,12.5,12.5
	c0,6.9-5.6,12.5-12.5,12.5H485c-12.9,0-23.3,10.4-23.3,23.3s10.4,23.3,23.3,23.3h206.6c12.9,0,23.3-10.4,23.3-23.3
	s-10.4-23.3-23.3-23.3h-48.7c-7,0-12.5-5.6-12.5-12.5c0-6.9,5.6-12.5,12.5-12.5h44.3c19.5,0,35.3-15.8,35.3-35.3l0,0
	c0-19.5-15.8-35.3-35.3-35.3h-60c-8.2-0.9-14.8-8.1-14.8-16.6s6.4-15.4,14.5-16.6H712c26.2,0,47.2-21.2,47.2-47.2l0,0
	C759.1-85.1,737.9-106.4,711.7-106.4z M590.3,104.1c0,7-5.6,12.5-12.5,12.5h-11c-7,0-12.5-5.6-12.5-12.5c0-7,5.6-12.5,12.5-12.5h11
	C584.8,91.7,590.3,97.1,590.3,104.1z M565.2-116.7c0-5.2,4.1-9.6,9-10.2h16.7c5.2,0.6,9,5,9,10.2c0,5.8-4.6,10.4-10.4,10.4H575
	C569.8-106.4,565.2-111,565.2-116.7z"/>
<rect id="XMLID_192_" x="464.4" y="-162.7" class="st5" width="161.6" height="229.5"/>
<rect id="XMLID_191_" x="478.7" y="-148.3" class="st4" width="133" height="215.1"/>
<g id="XMLID_6_">
	<path id="XMLID_9_" class="st6" d="M784.6-170c-0.7-11.3-10.1-20.3-21.6-20.3c-2.4,0-4.7,0.4-6.9,1.1c-5.3-5.3-12.6-8.6-20.6-8.6
		c-9.9,0-18.7,5-24,12.6c-2.2-1-4.6-1.5-7.2-1.5c-9.5,0-17.3,7.3-18,16.6c0,0.2,0,1.4,0,1.4c0.4,2.3,2.4,4.2,4.8,4.2h88.7
		c2.4,0,4.5-1.8,4.8-4.2C784.6-168.5,784.6-169.8,784.6-170z"/>
	<path id="XMLID_8_" class="st7" d="M784.6-168c-0.7-7.3-10.1-13-21.6-13c-2.4,0-4.7,0.3-6.9,0.7c-5.3-3.4-12.6-5.5-20.6-5.5
		c-9.9,0-18.7,3.2-24,8.1c-2.2-0.6-4.6-1-7.2-1c-9.5,0-17.3,4.7-18,10.7c0,0.2,0,0.9,0,0.9c0.4,1.5,2.4,2.7,4.8,2.7h88.7
		c2.4,0,4.5-1.2,4.8-2.7C784.6-167,784.6-167.8,784.6-168z"/>
	<path id="XMLID_7_" class="st8" d="M784.6-170c-0.7-11.3-10.1-20.3-21.6-20.3c-2.4,0-4.7,0.4-6.9,1.1c-5.3-5.3-12.6-8.6-20.6-8.6
		c-9.9,0-18.7,5-24,12.6c-2.2-1-4.6-1.5-7.2-1.5c-9.5,0-17.3,7.3-18,16.6c0,0.2,0,1.4,0,1.4c0.4,2.3,2.4,4.2,4.8,4.2h88.7
		c2.4,0,4.5-1.8,4.8-4.2C784.6-168.5,784.6-169.8,784.6-170z"/>
</g>
<g id="XMLID_183_">
	<rect id="XMLID_186_" x="445.4" y="66.8" class="st6" width="199.7" height="34.5"/>
	<rect id="XMLID_185_" x="445.4" y="87.7" class="st7" width="199.7" height="13.6"/>
	<rect id="XMLID_184_" x="445.4" y="66.8" class="st9" width="199.7" height="34.5"/>
</g>
<g id="XMLID_179_">
	<rect id="XMLID_182_" x="430.8" y="101.3" class="st6" width="228.8" height="34.5"/>
	<rect id="XMLID_181_" x="430.8" y="122" class="st7" width="228.8" height="13.9"/>
	<rect id="XMLID_180_" x="430.8" y="101.3" class="st9" width="228.8" height="34.5"/>
</g>
<g id="XMLID_175_">
	<path id="XMLID_178_" class="st6" d="M415.2,135.8v27.5c4.6-3.2,8.6-6.9,17.6-6.9c16.1,0,16.1,11.6,32.1,11.6
		c16.1,0,16.1-11.6,32.1-11.6c16.1,0,16.1,11.6,32.1,11.6c16.1,0,16.1-11.6,32.1-11.6c16.1,0,16.1,11.6,32.1,11.6
		c16.1,0,16.1-11.6,32.1-11.6c16.1,0,16.1,11.6,32.1,11.6c9.7,0,13.5-4.2,18.6-7.6v-24.6H415.2L415.2,135.8z"/>
	<path id="XMLID_177_" class="st7" d="M415.2,149v14.3c4.6-3.2,8.6-6.9,17.6-6.9c16.1,0,16.1,11.6,32.1,11.6
		c16.1,0,16.1-11.6,32.1-11.6c16.1,0,16.1,11.6,32.1,11.6c16.1,0,16.1-11.6,32.1-11.6c16.1,0,16.1,11.6,32.1,11.6
		c16.1,0,16.1-11.6,32.1-11.6c16.1,0,16.1,11.6,32.1,11.6c9.7,0,13.5-4.2,18.6-7.6V149L415.2,149L415.2,149z"/>
	<path id="XMLID_176_" class="st9" d="M415.2,135.8v27.5c4.6-3.2,8.6-6.9,17.6-6.9c16.1,0,16.1,11.6,32.1,11.6
		c16.1,0,16.1-11.6,32.1-11.6c16.1,0,16.1,11.6,32.1,11.6c16.1,0,16.1-11.6,32.1-11.6c16.1,0,16.1,11.6,32.1,11.6
		c16.1,0,16.1-11.6,32.1-11.6c16.1,0,16.1,11.6,32.1,11.6c9.7,0,13.5-4.2,18.6-7.6v-24.6H415.2L415.2,135.8z"/>
</g>
<path id="XMLID_171_" class="st9" d="M727.6-35.2c-7.1-7.1-18.6-7.1-25.7,0c-7.1-7.1-18.6-7.1-25.7,0"/>
<path id="XMLID_170_" class="st9" d="M383.3-130c-7.1-7.1-18.6-7.1-25.7,0c-7.1-7.1-18.6-7.1-25.7,0"/>
<path id="XMLID_169_" class="st9" d="M405-52.3c-3.9-3.9-10.1-3.9-14,0c-3.9-3.9-10.1-3.9-14,0"/>
<path id="XMLID_168_" class="st9" d="M736.7-143.5c-3.9-3.9-10.1-3.9-14,0c-3.9-3.9-10.1-3.9-14,0"/>
<path id="XMLID_167_" class="st9" d="M759.7,78.3c-3.9-3.9-10.1-3.9-14,0c-3.9-3.9-10.1-3.9-14,0"/>
<path id="XMLID_164_" class="st9" d="M391,149c-11.5,0-11.5-8.3-22.9-8.3c-11.5,0-11.5,8.3-22.9,8.3c-11.5,0-11.5-8.3-22.9-8.3
	c-11.5,0-11.5,8.3-22.9,8.3"/>
<path id="XMLID_163_" class="st9" d="M669.2,182.7c11.5,0,11.5-8.3,22.9-8.3c11.5,0,11.5,8.3,22.9,8.3c11.5,0,11.5-8.3,23-8.3
	s11.5,8.3,23,8.3"/>
<g id="XMLID_159_">
	<path id="XMLID_162_" class="st6" d="M611.7-7c0,0-49.7-17.7-133,24.5v32.7h133C611.7,50.2,611.7-7,611.7-7z"/>
	<path id="XMLID_161_" class="st6" d="M611.7,6c0,0-49.7-13.7-133,18.9v25.3h133C611.7,50.2,611.7,6,611.7,6z"/>
	<path id="XMLID_160_" class="st6" d="M611.7-7c0,0-49.7-17.7-133,24.5v32.7h133C611.7,50.2,611.7-7,611.7-7z"/>
</g>
<path id="XMLID_145_" class="st4" d="M478.7,17.2c0,0,55.5-13.4,133,32.3v17.4h-133V17.2L478.7,17.2z"/>
<path id="XMLID_144_" class="st4" d="M478.7,34.7c0,0,55.5-8.7,133,20.9v11.3h-133V34.7L478.7,34.7z"/>
<path id="XMLID_143_" class="st6" d="M478.7,17.2c0,0,55.5-13.4,133,32.3v17.4h-133V17.2L478.7,17.2z"/>
<g id="XMLID_139_">
	<polygon id="XMLID_142_" class="st6" points="611.7,66.8 569.9,53.3 569.9,-134.8 611.7,-148.3 	"/>
	<polygon id="XMLID_141_" class="st7" points="596.3,-143.3 596.3,61.8 611.7,66.8 611.7,-148.3 	"/>
	<polygon id="XMLID_140_" class="st9" points="611.7,66.8 569.9,53.3 569.9,-134.8 611.7,-148.3 	"/>
</g>
<ellipse id="XMLID_138_" class="st5" cx="574.5" cy="-39.8" rx="3" ry="8.8"/>
<path id="XMLID_137_" class="st5" d="M568.1-33h-2.8v-13.8h2.7c2.9,0,5.2,2.3,5.2,5.2v3.3C573.3-35.3,571-33,568.1-33z"/>
<ellipse id="XMLID_136_" class="st5" cx="565.1" cy="-39.8" rx="3" ry="6.9"/>
<g id="XMLID_126_">
	<line id="XMLID_135_" class="st9" x1="514.4" y1="-71.3" x2="552" y2="-71.3"/>
	<line id="XMLID_134_" class="st9" x1="489.5" y1="-58.2" x2="509.7" y2="-58.2"/>
	<line id="XMLID_133_" class="st9" x1="520" y1="-28.5" x2="540.1" y2="-28.5"/>
	<line id="XMLID_132_" class="st9" x1="520" y1="-58.2" x2="527.9" y2="-58.2"/>
	<line id="XMLID_131_" class="st9" x1="496.5" y1="-71.3" x2="501.6" y2="-71.3"/>
	<line id="XMLID_130_" class="st9" x1="531.2" y1="-41" x2="499.6" y2="-41"/>
	<line id="XMLID_129_" class="st9" x1="484.8" y1="-39.5" x2="480.3" y2="-39.5"/>
	<line id="XMLID_128_" class="st9" x1="490.5" y1="-28.5" x2="498.8" y2="-28.5"/>
	<line id="XMLID_127_" class="st9" x1="527.1" y1="-81.8" x2="535.4" y2="-81.8"/>
</g>
<path id="XMLID_115_" class="st9" d="M368.5,156.5c16.1,0,16.1,11.6,32.1,11.6c16.1,0,16.1-11.6,32.1-11.6
	c16.1,0,16.1,11.6,32.1,11.6c16.1,0,16.1-11.6,32.1-11.6c16.1,0,16.1,11.6,32.1,11.6c16.1,0,16.1-11.6,32.1-11.6
	c16.1,0,16.1,11.6,32.1,11.6c16.1,0,16.1-11.6,32.1-11.6c16.1,0,16.1,11.6,32.1,11.6c16.1,0,16.1-11.6,32.1-11.6
	c16.1,0,16.1,11.6,32.1,11.6"/>
<g>
	<g>
		<path class="st10" d="M477.7,33.5v13.7c0,1.2,0.9,2.2,2.1,2.2h28.5l0,0h29.3l0,0h28.5c1.1,0,2.1-1,2.1-2.2V32.9v-0.1v-4.6
			c0-0.8-0.6-1.4-1.3-1.4c-0.7,0-1.3,0.6-1.3,1.4v3.2h-12V19h12v3.6c0,0.8,0.6,1.4,1.3,1.4c0.7,0,1.3-0.6,1.3-1.4v-5v-0.1V2.6V2.5
			v-15.2v-0.1v-14.3c0-1.2-0.9-2.2-2.1-2.2h-28.5l0,0h-16.3c-0.7,0-1.3,0.6-1.3,1.4s0.6,1.4,1.3,1.4h15v12.4H523h-13.3v-12.4h6.3
			c0.7,0,1.3-0.6,1.3-1.4s-0.6-1.4-1.3-1.4h-6.9c-1.1,0-2.1,1-2.1,2.2v13h-12.6c-1.1,0-2.1,1-2.1,2.2v13h-12.6c-1.1,0-2.1,1-2.1,2.2
			V17c0,1.2,0.9,2.2,2.1,2.2h12.6v12.4h-12.6C478.5,31.3,477.7,32.3,477.7,33.5z M507,3.7v12.5h-13.3h-13.3V3.8h13.3H507V3.7z
			 M521.6,1h-13.3l0,0H495v-12.4h13.3h13.3V1z M522.9,3.7h13.3v12.5h-13.3l0,0h-13.3V3.8h13.3V3.7z M550.9-11.5V0.9h-13.3l0,0h-13.3
			v-12.4H550.9z M565.5-14.3h-13.3h-13.3v-12.4h26.6V-14.3L565.5-14.3z M565.5,1h-12v-12.4h12V1z M552.2,16.2L552.2,16.2h-13.3V3.8
			h13.3h13.3v12.4H552.2z M538.9,34.2h13.3l0,0h13.3v12.4h-26.6V34.2L538.9,34.2z M524.2,31.3V18.9h13.3l0,0h13.3v12.4h-13.3l0,0
			H524.2z M509.6,34.2h13.3l0,0h13.3v12.4h-26.6L509.6,34.2L509.6,34.2z M495,31.3V18.9h13.3l0,0h13.3v12.4h-13.3l0,0H495z
			 M480.3,34.2h13.3h13.3v12.4h-26.6C480.3,46.6,480.3,34.2,480.3,34.2z"/>
	</g>
</g>
<rect x="509.6" y="3.7" class="st11" width="26.6" height="12.4"/>
<rect x="538.9" y="34.8" class="st11" width="26.6" height="12.4"/>
<rect x="480.4" y="34.2" class="st11" width="26.6" height="12.4"/>
<rect x="509.6" y="-26.8" class="st11" width="26.6" height="12.4"/>
</svg>
