<?xml version="1.0" encoding="utf-8"?>
<!-- Generator: Adobe Illustrator 19.0.0, SVG Export Plug-In . SVG Version: 6.00 Build 0)  -->
<svg version="1.1" id="Layer_1" xmlns="http://www.w3.org/2000/svg" xmlns:xlink="http://www.w3.org/1999/xlink" x="0px" y="0px"
	 viewBox="-167 193.8 164.3 115.2" style="enable-background:new -167 193.8 164.3 115.2;" xml:space="preserve" height="350" width="350">
<style type="text/css">
	.st0{fill:none;stroke:#2B2B2B;stroke-miterlimit:10;}
	.st1{fill:none;stroke:#2B2B2B;stroke-miterlimit:10;stroke-dasharray:2.9858,2.9858;}
	.st2{font-family:'MyriadPro-Regular';}
	.st3{font-size:10px;}
	.st4{fill:#A0815C;}
	.st5{fill:#FFFFFF;}
	.st6{fill:#E0E0E2;}
	.st7{fill:#0F78BC;}
	.st8{fill:#206E99;}
</style>
<g>
	<g>
		<line class="st0" x1="-156.5" y1="284.8" x2="-155" y2="284.8"/>
		<line class="st1" x1="-152" y1="284.8" x2="-16.2" y2="284.8"/>
		<line class="st0" x1="-14.7" y1="284.8" x2="-13.2" y2="284.8"/>
	</g>
</g>
<text transform="matrix(1 0 0 1 -126.3943 300.9667)" class="st2 st3">No Rooms Available</text>
<g>
	<rect x="-59.1" y="252.9" class="st4" width="13.9" height="5.1"/>
	<polygon class="st5" points="-45.5,241.4 -57.8,241.4 -54.8,232.4 -48.6,232.4 	"/>
	<path class="st6" d="M-48.5,232.7c-1.4,3.7-4.7,6.4-8.7,6.8l-0.6,1.9h12.3L-48.5,232.7z"/>
	<rect x="-118.3" y="238.5" class="st7" width="48.9" height="14.4"/>
	<path class="st8" d="M-73.6,238.5h-44.7v8.9c4.4,1.2,9.1,1.9,14.2,1.9C-91.6,249.3-80.5,245.1-73.6,238.5z"/>
	<g>
		<path class="st6" d="M-97,245.7v7.3h-15.4v-7.3c0-0.9,0.8-1.7,1.7-1.7h12c0.2,0,0.4,0,0.6,0.1C-97.4,244.3-97,244.9-97,245.7z"/>
		<path class="st6" d="M-75.3,252.9h-15.5v-7.3c0-0.9,0.8-1.7,1.7-1.7h12c0.9,0,1.7,0.8,1.7,1.7v7.3H-75.3z"/>
	</g>
	<g>
		<path class="st5" d="M-98.1,244c-2,3.9-6.4,6.6-11.6,6.6c-0.9,0-1.8-0.1-2.7-0.3v-4.7c0-0.9,0.8-1.7,1.7-1.7h12
			C-98.5,243.9-98.3,244-98.1,244z"/>
		<path class="st5" d="M-76.5,244c-2,3.9-6.4,6.6-11.6,6.6c-0.9,0-1.8-0.1-2.7-0.3v-4.7c0-0.9,0.8-1.7,1.7-1.7h12
			C-76.9,243.9-76.8,244-76.5,244z"/>
	</g>
	<polygon class="st8" points="-124.5,278.7 -119.3,278.7 -119.3,273.5 -68.4,273.5 -68.4,278.7 -63.3,278.7 -63.3,265.5 
		-124.5,265.5 	"/>
	<path class="st7" d="M-92.1,271.2c-7.1,0-26.4,0.1-32.4,0v7.4h5.1v-5.1h50.9v5.1h5.1v-13.1C-63.3,265.5-77.3,271.2-92.1,271.2z"/>
	<path class="st5" d="M-66.8,252.9h-54.4c-1.9,0-3.4,1.5-3.4,3.4v9.2h61.2v-9.2C-63.3,254.5-64.8,252.9-66.8,252.9z"/>
	<path class="st6" d="M-66.4,253c-7.1,5.5-20.6,9.2-36.2,9.2h-21.9v3.3h61.2v-9.2C-63.3,254.6-64.6,253.1-66.4,253z"/>
	<rect x="-106.8" y="199.7" class="st5" width="43.7" height="24.4"/>
	<polygon class="st7" points="-77.9,212.5 -81.5,215 -88.3,210 -102.9,220.3 -89,220.3 -74.6,220.3 -66.9,220.3 	"/>
	<path d="M-108,225.4h46.3v-27H-108V225.4z M-105.4,201h41.2v21.8h-41.2V201z"/>
	<polygon points="-81.4,213.5 -88.3,208.4 -103.6,219.2 -102.1,221.3 -88.3,211.6 -75.3,221.3 -73.8,219.2 -79.3,215.1 -77.9,214.1 
		-67.6,221.3 -66.1,219.2 -77.9,211 	"/>
	<path d="M-81.5,210c2.1,0,3.9-1.7,3.9-3.9s-1.7-3.9-3.9-3.9s-3.9,1.7-3.9,3.9S-83.6,210-81.5,210z M-81.5,204.8
		c0.7,0,1.3,0.6,1.3,1.3s-0.6,1.3-1.3,1.3c-0.7,0-1.3-0.6-1.3-1.3S-82.3,204.8-81.5,204.8z"/>
	<rect x="-97.8" y="203.5" width="9.8" height="2.6"/>
	<rect x="-102.9" y="207.4" width="7.7" height="2.6"/>
	<rect x="-74.6" y="203.5" width="5.1" height="2.6"/>
	<rect x="-70.8" y="207.4" width="4" height="2.6"/>
	<path d="M-66.8,251.7h-1.5v-14.5h-51.4v14.4h-1.5c-2.6,0-4.7,2.1-4.7,4.7v23.6h7.7v-5.1h48.4v5.1h7.7v-23.5
		C-62,253.8-64.1,251.7-66.8,251.7z M-117,239.8h46.3v11.8h-3.3v-6c0-1.7-1.3-3-3-3h-12c-1.7,0-3,1.3-3,3v6h-3.6v-6c0-1.7-1.3-3-3-3
		h-12c-1.7,0-3,1.3-3,3v6h-3.3L-117,239.8L-117,239.8z M-76.6,251.7h-12.9v-6c0-0.2,0.2-0.4,0.4-0.4h12c0.2,0,0.4,0.2,0.4,0.4
		L-76.6,251.7L-76.6,251.7z M-98.3,251.7h-12.9v-6c0-0.2,0.2-0.4,0.4-0.4h12c0.2,0,0.4,0.2,0.4,0.4L-98.3,251.7L-98.3,251.7z
		 M-121.1,254.2h1.5h51.5h1.5c1.2,0,2.1,1,2.1,2.1v7.9h-58.7v-7.9C-123.3,255.2-122.3,254.2-121.1,254.2z M-67.1,277.4v-5.1h-53.5
		v5.1h-2.6v-10.6h58.7v10.5h-2.6V277.4z"/>
	<path d="M-52.8,248.1h-2.6v2.6h7.7v-2.6h-2.6v-5.4h6.4l-4-11.6h-8l-4,11.6h6.9L-52.8,248.1L-52.8,248.1z M-53.8,233.6h4.3l2.2,6.4
		H-56L-53.8,233.6z"/>
	<path d="M-60.4,267.1h2.6v-7.7h11.3v7.7h2.6v-15.4h-16.5V267.1z M-46.5,254.2v2.6h-11.3v-2.6H-46.5z"/>
</g>
</svg>
