<?xml version="1.0" encoding="utf-8"?>
<!-- Generator: Adobe Illustrator 19.0.0, SVG Export Plug-In . SVG Version: 6.00 Build 0)  -->
<svg version="1.1" id="Layer_1" xmlns="http://www.w3.org/2000/svg" xmlns:xlink="http://www.w3.org/1999/xlink" x="0px" y="0px"
	 viewBox="0 0 458.8 339" style="enable-background:new 0 0 458.8 339;" xml:space="preserve" width="400px" height="400px">
<style type="text/css">
	.st0{display:none;}
	.st1{display:inline;fill:#49494A;}
	.st2{fill:#ED1E78;}
	.st3{fill:none;stroke:#605F5F;stroke-miterlimit:10;}
	.st4{fill:none;stroke:#232323;stroke-miterlimit:10;}
	.st5{fill:#FFFBF9;stroke:#6D6D6D;stroke-miterlimit:10;}
	.st6{fill:#918B8B;}
	.st7{fill:none;stroke:#848484;stroke-miterlimit:10;}
	.st8{fill:#FFFBFB;}
	.st9{fill:#FFFCFC;}
	.st10{fill:#FFFDFD;}
	.st11{fill:#FFFAFA;}
	.st12{fill:#FEF9F8;}
	.st13{fill:#FFFEFF;}
	.st14{fill:#FEFAF9;}
	.st15{fill:#FFFCFD;}
	.st16{fill:#FFFCFB;}
	.st17{fill:#FFFDFE;}
	.st18{fill:none;stroke:#686867;}
	.st19{fill:none;stroke:#3D3A3A;}
	.st20{fill:#3D3A3A;stroke:#5B5C5C;}
	.st21{fill:none;stroke:#121212;}
	.st22{fill:#B3B3B3;}
	.st23{fill:none;stroke:#B3B3B3;stroke-miterlimit:10;}
	.st24{fill:none;stroke:#B3B3B3;stroke-miterlimit:10;stroke-dasharray:2.9801,2.9801;}
	.st25{fill:#0776BC;}
	.st26{font-family:'MyriadPro-Regular';}
	.st27{font-size:16.9622px;}
	.st28{font-size:16.6894px;}
	.st29{font-size:10.547px;}
	.st30{font-size:10.3743px;}
	.st31{display:inline;}
</style>
<g id="XMLID_225_" class="st0">
	<path id="XMLID_226_" class="st1" d="M163,382v-13.3h1.9l4.3,6.7c1,1.6,1.8,3,2.4,4.3l0,0c-0.2-1.8-0.2-3.4-0.2-5.5v-5.6h1.6V382
		h-1.7l-4.2-6.8c-0.9-1.5-1.8-3-2.5-4.4l-0.1,0c0.1,1.7,0.1,3.3,0.1,5.5v5.7H163z"/>
	<path id="XMLID_228_" class="st1" d="M184.6,377.1c0,3.5-2.5,5.1-4.8,5.1c-2.6,0-4.6-1.9-4.6-4.9c0-3.2,2.1-5.1,4.7-5.1
		C182.8,372.2,184.6,374.2,184.6,377.1z M177,377.2c0,2.1,1.2,3.7,2.9,3.7c1.7,0,2.9-1.6,2.9-3.7c0-1.6-0.8-3.7-2.9-3.7
		C177.9,373.5,177,375.4,177,377.2z"/>
	<path id="XMLID_231_" class="st1" d="M192.8,368.6v5.6h6.4v-5.6h1.7V382h-1.7v-6.2h-6.4v6.2h-1.7v-13.3H192.8z"/>
	<path id="XMLID_233_" class="st1" d="M212.5,377.1c0,3.5-2.5,5.1-4.8,5.1c-2.6,0-4.6-1.9-4.6-4.9c0-3.2,2.1-5.1,4.7-5.1
		C210.7,372.2,212.5,374.2,212.5,377.1z M205,377.2c0,2.1,1.2,3.7,2.9,3.7c1.7,0,2.9-1.6,2.9-3.7c0-1.6-0.8-3.7-2.9-3.7
		C205.9,373.5,205,375.4,205,377.2z"/>
	<path id="XMLID_236_" class="st1" d="M216.8,369.6v2.7h2.5v1.3h-2.5v5.2c0,1.2,0.3,1.9,1.3,1.9c0.5,0,0.8-0.1,1-0.1l0.1,1.3
		c-0.3,0.1-0.9,0.2-1.5,0.2c-0.8,0-1.5-0.3-1.9-0.7c-0.5-0.5-0.7-1.4-0.7-2.5v-5.2h-1.5v-1.3h1.5v-2.3L216.8,369.6z"/>
	<path id="XMLID_238_" class="st1" d="M222.1,377.5c0,2.4,1.5,3.3,3.3,3.3c1.2,0,2-0.2,2.6-0.5l0.3,1.2c-0.6,0.3-1.7,0.6-3.2,0.6
		c-2.9,0-4.7-1.9-4.7-4.8s1.7-5.2,4.5-5.2c3.1,0,4,2.7,4,4.5c0,0.4,0,0.6-0.1,0.8H222.1z M227.2,376.2c0-1.1-0.5-2.8-2.4-2.8
		c-1.8,0-2.5,1.6-2.7,2.8H227.2z"/>
	<path id="XMLID_241_" class="st1" d="M231.1,367.9h1.7v14h-1.7V367.9z"/>
	<path id="XMLID_243_" class="st1" d="M240,368.6h7.2v1.4h-5.5v4.4h5v1.4h-5v6H240V368.6z"/>
	<path id="XMLID_245_" class="st1" d="M257.6,377.1c0,3.5-2.5,5.1-4.8,5.1c-2.6,0-4.6-1.9-4.6-4.9c0-3.2,2.1-5.1,4.7-5.1
		C255.7,372.2,257.6,374.2,257.6,377.1z M250,377.2c0,2.1,1.2,3.7,2.9,3.7c1.7,0,2.9-1.6,2.9-3.7c0-1.6-0.8-3.7-2.9-3.7
		C250.9,373.5,250,375.4,250,377.2z"/>
	<path id="XMLID_248_" class="st1" d="M267.8,379.3c0,1,0,1.9,0.1,2.6h-1.5l-0.1-1.6h0c-0.5,0.8-1.5,1.8-3.2,1.8
		c-1.5,0-3.3-0.8-3.3-4.2v-5.6h1.7v5.3c0,1.8,0.6,3,2.1,3c1.2,0,2-0.8,2.3-1.6c0.1-0.3,0.2-0.6,0.2-0.9v-5.9h1.7V379.3z"/>
	<path id="XMLID_250_" class="st1" d="M270.7,375c0-1,0-1.8-0.1-2.6h1.5l0.1,1.6h0c0.5-0.9,1.6-1.8,3.2-1.8c1.3,0,3.4,0.8,3.4,4.1
		v5.7h-1.7v-5.5c0-1.5-0.6-2.8-2.2-2.8c-1.1,0-2,0.8-2.3,1.8c-0.1,0.2-0.1,0.5-0.1,0.8v5.8h-1.7V375z"/>
	<path id="XMLID_252_" class="st1" d="M289.9,367.9v11.6c0,0.8,0,1.8,0.1,2.5h-1.6l-0.1-1.7h0c-0.5,1.1-1.7,1.9-3.3,1.9
		c-2.3,0-4.1-2-4.1-4.9c0-3.2,2-5.1,4.3-5.1c1.5,0,2.5,0.7,2.9,1.5h0v-5.7H289.9z M288.2,376.3c0-0.2,0-0.5-0.1-0.7
		c-0.3-1.1-1.2-2-2.5-2c-1.8,0-2.9,1.6-2.9,3.7c0,1.9,0.9,3.5,2.8,3.5c1.2,0,2.2-0.8,2.5-2.1c0.1-0.2,0.1-0.5,0.1-0.8V376.3z"/>
</g>
<g id="XMLID_63_">
	<path id="XMLID_462_" class="st2" d="M47.9,329.4c-2.8-2-1.2-4.8-1.2-7.2c-0.2-8.8-0.1-17.7-0.1-26.6c0.1-32.1,29.7-49.5,57.6-33.7
		c0.6,0.3,1.2,0.6,2.9,1.4c-0.3-12.8,0.1-25,5.8-36.3l-0.1,0.1c8.3-8.7,17.7-15.3,30.1-16.1c2.1-0.1,2.2,1.4,2.2,2.8
		c-0.2,38,0.5,76-0.4,114c-2.5,1.4-5.2,0.7-7.8,0.7c-27.1,0.1-54.2,0-81.4,0.1C53,328.7,50.3,328,47.9,329.4z"/>
	<path id="XMLID_461_" class="st2" d="M333.8,212.4c25.9,7.3,30.4,27,28.5,50c3,0.8,4.4-1.3,6.2-2.3c24.3-12.6,53.4,3.8,54.5,31.1
		c0.5,12.2-0.1,24.5-0.2,36.7c-2,1.7-4.5,1.4-6.9,1.4c-27.9,0-55.7,0-83.6,0c-2.1,0-4.4,0.3-6.3-1.1c-2.1-2.6-2-5.8-2-8.9
		c-0.1-32.6-0.1-65.1,0-97.7C324.2,212.2,325.3,211.4,333.8,212.4z"/>
	<path id="XMLID_459_" class="st3" d="M283.9,251.5c-1.6-2.1-1-4.6-1-6.9c0-26.5,0.1-53.1-0.1-79.6c-0.1-6.4,1.6-9.5,8.4-8.8
		c3,0.3,5.9-1.9,9.1-1.2c2.4,0.9,3.8,2.1,3.7,5.2c-0.9,27,0.4,54,0.5,81c0,7.5-1.7,9.3-9.2,9.6C291.5,250.8,287.7,251.2,283.9,251.5
		z"/>
	<path id="XMLID_456_" class="st3" d="M246.7,146.2c-0.5,0-1-0.1-1.5-0.1c0.5-3.6-2.1-3.1-4.2-3.1c-26.2,0-52.4,0-78.6-0.1
		c-5.2,0-5,3-5,6.6c0,27.9,0,55.7,0,83.6c0,29.8,0,59.6-0.1,89.4c0,2.4,1.2,5.3-1.5,7.2c-2.2-0.3-1.7-2-1.7-3.3
		c0-61.5,0.1-123,0.2-184.5c0-0.5,0.2-0.9,0.3-1.4c1.7-1.2,3.7-0.7,5.6-0.7c26.9,0,53.8-0.1,80.7,0.1c2.1,0,5.6-2,6.2,2.5
		C247,143.6,246.9,144.9,246.7,146.2z"/>
	<path id="XMLID_454_" class="st4" d="M144.1,328c0.1-37.5,0.1-74.9,0.2-112.4c0-1.6,0.4-3.4-1.4-4.5c0-24.4,0-48.8,0.1-73.1
		c0-2.5-0.9-5.3,1-7.6c2-1.1,4.2-0.6,6.3-0.6c35.2,0,70.4-0.1,105.7,0.1c2.2,0,5.4-1.9,6.7,1.9c-36.2,0-72.4,0.1-108.7-0.1
		c-6.4-0.1-8.5,1.5-8.5,8.3c0.3,60.4,0.1,120.9,0.1,181.3c0,2.7,1.1,5.8-1.3,8.2c-0.4-0.2-0.6-0.5-0.5-0.8
		C143.9,328.1,144,328,144.1,328z"/>
	<path id="XMLID_452_" class="st3" d="M283.9,251.5c3.3-3.8,7.8-3.2,12-2.9c5.5,0.4,7-1.7,6.9-7c-0.5-25.5-0.5-50.9-0.9-76.4
		c-0.1-3.4,2.2-7.4-1.6-10.3c4.3-0.6,5.8,1.1,5.7,5.6c-0.2,29.1-0.1,58.1,0,87.2c0,4-1.1,5.9-5.3,5.3
		C295.1,252.3,289.3,254.5,283.9,251.5z"/>
	<path id="XMLID_448_" class="st5" d="M302.9,329.5c-2.2-2.2-1.2-5-1.2-7.5c-0.1-16.5-0.5-33.1,0.1-49.6c0.3-7.7-4.3-6.2-8.7-6.5
		c-4.7-0.3-7.5,0.2-7.4,6.3c0.4,16.3,0.2,32.6,0.1,48.9c0,2.5,0.8,5.2-0.9,7.6c-2.7-0.3-1.9-2.4-1.9-3.9
		c-0.1-18.5,0.1-36.9-0.1-55.4c0-5.1,2.1-7.1,6.9-6.4c5.3,0.8,10.9-1.7,15.9,1.6c-1.8,2.6-1.2,5.6-1.2,8.4
		c-0.1,16.1,0,32.1-0.1,48.2C304.5,324.1,305.1,327.1,302.9,329.5z"/>
	<path id="XMLID_446_" class="st3" d="M275.6,159.3c0.2,20.8,0.4,41.7,0.6,62.5c0,3.8,0,7.7,0,11.5c0,20.3,0,20.3-20.4,17.9
		c-0.4-0.9-0.3-1.7,0.3-2.4c1.8-2.7,4.5-3.6,7.5-3.6c6.5,0.1,7.2-3.9,7.2-9c-0.1-21.1-0.1-42.1,0-63.2c0-4-0.4-8.2,1.7-12
		C273.1,159.9,274,159,275.6,159.3z"/>
	<path id="XMLID_445_" class="st5" d="M272.9,263.1c3.9-1,3.7,1.7,3.7,4.2c0,19.2,0.1,38.4,0,57.5c0,1.6,1,4.5-2,4.3
		c-2.1-0.1-1.5-2.7-1.5-4.2c-0.2-20.1-0.3-40.2-0.5-60.4c-0.5-0.4-0.6-0.8-0.3-1C272.5,263.3,272.7,263.1,272.9,263.1z"/>
	<path id="XMLID_62_" class="st6" d="M324.1,134.1c0-0.3,0.6-0.6,0.2-0.3c-1.2,17.6,0.6,35.9-0.9,54.1c-0.6,0-1.2,0-1.8,0.1
		c0-16.7,0-33.5,0.1-50.2c0-3.9-0.3-6.5-5.4-5.7c-16,2.4-54,6.5-70,8.7c0-4.3,15-0.6,15-3.3c16.8-2.1,40.6-5.2,57.4-7.2
		c2.5-0.3,5.3-1.1,7.4,1.4c0,16.3,0,32.6-0.1,48.9c0,2.5,1.1,5.3-1.5,7.4"/>
	<path id="XMLID_441_" class="st5" d="M272.9,263.1c-0.1,0.5-0.2,0.9-0.3,1.4c-15.7,0.1-15.7,0.1-15.7,15.7c0,13.9,0,27.9,0,41.8
		c0,2.2,0.5,4.6-1.1,7c-2.3-1.7-1.7-3.7-1.7-5.4c0-18.3,0.2-36.5-0.1-54.8c-0.1-6.5,2.7-8,8.3-7.1
		C265.8,262.4,269.4,262.7,272.9,263.1z"/>
	<path id="XMLID_438_" class="st7" d="M321.9,187.9c0.4,0,0.9-2,1.3-2c1.2,1.7,0.7,8.7,0.7,10.6c0,42.4,0,84.8,0,127.2
		c0,1.9,0.5,3.9-0.8,5.6c-1.9-1-1.4-2.9-1.4-4.5C321.8,280.2,321.8,232.5,321.9,187.9z"/>
	<path id="XMLID_437_" class="st6" d="M323.2,329.3c0-46.1,0-92.3,0.1-138.4c2.5,1.4,1.6-38.9,1.6,5.8c0,44.2,0,88.4-0.1,132.6
		C324.3,329.3,323.7,329.3,323.2,329.3z"/>
	<path id="XMLID_435_" class="st5" d="M302.9,329.5c0-19.3-0.1-38.7,0.2-58c0-2.3-2.1-6.1,2.7-6.8c0.1,20,0.2,40,0.2,60
		C305.9,326.6,307.2,329.9,302.9,329.5z"/>
	<path id="XMLID_434_" class="st3" d="M275.6,159.3c-0.5,0.5-1,1-1.5,1.5c-2.1,1.2-4.4,1.8-6.8,2.2c-9.3,1.6-9.5,1.9-9.5,11.7
		c0,21.4,0,42.8,0,64.2c0,3.8,0.4,7.7-2.2,11.1c0.2,0.4,0.2,0.8,0.2,1.3c-2.7-1.6-1.6-4.3-1.6-6.5c-0.1-25.8,0.1-51.6-0.2-77.4
		c-0.1-5.3,1.8-7.9,6.6-7.8C265.5,159.7,270.5,157.3,275.6,159.3z"/>
	<path id="XMLID_420_" class="st3" d="M316.1,255.7c2.4,1.7,4.2,4.1,1.5,6.4c-3.2,2.6-6.7,2.1-9.1-1.8
		C309.4,256,313.1,256.4,316.1,255.7z"/>
	<path id="XMLID_410_" class="st3" d="M316.1,255.7c-1.6,3-5.8,1.8-7.6,4.6C307.9,254,309.6,252.9,316.1,255.7z"/>
	<path id="XMLID_392_" class="st8" d="M164.7,287.7c6.7,0,13.4,0.1,20-0.1c4.3-0.2,4.3,2.4,4.4,5.5c0.1,3.4-1.1,4.7-4.6,4.6
		c-6.7-0.2-13.4-0.1-20-0.1C163.9,294.3,164,291,164.7,287.7z"/>
	<path id="XMLID_389_" class="st8" d="M190.6,320.5c-8.7,0.1-17.3,0.1-26,0.2c-0.6-2.9-0.6-5.8-0.1-8.7c8.6-2,17.2-2.6,25.9-0.6
		C192.9,314.4,193,317.5,190.6,320.5z"/>
	<path id="XMLID_386_" class="st9" d="M182.2,250.1c-5.6,3.1-11.7,0.8-17.5,1.4c-0.6-3.4-0.7-6.7,0-10.1c4.3-3.2,9.3-2.5,13.8-1.4
		C183.8,241.4,184.8,245.3,182.2,250.1z"/>
	<path id="XMLID_385_" class="st10" d="M174.4,308.9c-3.3,0.1-6.6,0.3-10,0.4c-1.9-3.4-2.1-6.8,0.2-10.2
		C174.9,299.5,174.9,299.5,174.4,308.9z"/>
	<path id="XMLID_377_" class="st9" d="M189.6,286.1c-2.6,0-5.3-0.2-7.9,0c-3.9,0.3-5.5-0.9-5.5-5.2c0-4.5,2.1-5.1,5.8-5
		c5.5,0.2,11,0.3,16.5,0c4.4-0.3,5,1.9,5.1,5.6c0.1,4.2-2.1,4.7-5.4,4.5C195.3,286,192.5,286.1,189.6,286.1z"/>
	<path id="XMLID_375_" class="st9" d="M218.9,276c2.6,0,5.3,0.2,7.9,0c3.9-0.3,5.6,1,5.6,5.2c0.1,4.5-2.2,5.1-5.8,5
		c-5.3-0.2-10.5-0.1-15.8,0c-3.4,0.1-5.9-1-5.9-5.8c0-4.8,2.1-4.7,6.1-4.4C213.6,276.2,216.3,276,218.9,276z"/>
	<path id="XMLID_374_" class="st11" d="M203.7,297.7c-2.6,0-5.3-0.1-7.9,0c-3.3,0.2-5.4-0.4-5.4-4.6c0-3.9,1-5.7,5.3-5.5
		c5.7,0.3,11.5,0.2,17.3,0c3.8-0.2,5,1.4,5,5.1c0,3.6-1.1,5.3-4.9,5.1C210,297.5,206.8,297.7,203.7,297.7z"/>
	<path id="XMLID_373_" class="st12" d="M231,309.3c-8.6-0.1-17.2-0.2-25.7-0.4c-0.5-9.7-0.5-9.7,9.3-9.7c3.3,0,6.7,0,10,0
		C232.7,299.3,233.7,300.8,231,309.3z"/>
	<path id="XMLID_370_" class="st8" d="M232.6,287.7c2.4,0,4.8,0.1,7.2,0c3.6-0.3,5.8,0.3,5.8,4.9c0,4.2-1.5,5.4-5.5,5.2
		c-5-0.3-10-0.2-15.1,0c-3.5,0.1-5.9-0.3-5.8-4.9c0.1-4.2,1.5-5.6,5.5-5.2C227.4,287.9,230,287.7,232.6,287.7z"/>
	<path id="XMLID_369_" class="st13" d="M219.4,312.3c8.6,0,17.2-0.1,25.9-0.1c0,2.8,0,5.6,0,8.4c-8.6,0-17.2-0.1-25.8-0.1
		C217.1,317.7,217.3,315,219.4,312.3z"/>
	<path id="XMLID_79_" class="st14" d="M209,321.2c-8.5,0-17.1,0-25.6,0c-0.4-9.8-0.4-9.8,9.3-9.7c2.4,0,4.8,0,7.1,0
		C209.4,311.4,209.4,311.4,209,321.2z"/>
	<path id="XMLID_362_" class="st13" d="M245.3,203.8c-7.1,0.1-14.3,0.1-21.4,0.3c-3.5,0.1-4.4-1.5-4.4-4.8c0-3.2,1.4-4.1,4.4-4.1
		c7.1,0.2,14.3,0.2,21.4,0.2C245.2,198.2,245.3,201,245.3,203.8z"/>
	<path id="XMLID_359_" class="st15" d="M230.9,241.3c2.9,0,5.8,0.3,8.6,0.1c4-0.3,6.1,0.6,6.1,5.4c-0.1,4.8-2.7,4.2-6,4.8
		C230.6,253,230.4,247.6,230.9,241.3L230.9,241.3z"/>
	<path id="XMLID_356_" class="st16" d="M239.8,239.8c-3.9,0.6-6.1-0.3-6.1-5.1c0-4.5,2.2-4.8,5.7-4.8c3.8,0,6.2,0.3,6.1,5.2
		C245.4,239.5,243.5,240.3,239.8,239.8z"/>
	<path id="XMLID_354_" class="st17" d="M245.2,262.9c-3.7,0-7.4,0-11.1,0c1.2-3.4-3.9-9.3,4.5-10C247.7,252.1,245.2,258,245.2,262.9
		z"/>
	<path id="XMLID_346_" class="st5" d="M255.5,249.9c0-26,0.1-51.9,0.1-77.9c0-10,0-10.1,9.8-11.2c2.8-0.3,5.7,0,8.6,0
		c-1.2,2.7-1,5.6-1,8.5c0.1,23.7,0,47.4,0.3,71.1c0.1,5.4-1.1,8.2-7,7.2C262.5,247,258.8,247.8,255.5,249.9z"/>
	<path id="XMLID_332_" class="st10" d="M174.5,207c-0.3,3,2,6.7-1.9,8.7c-2,1-4.7,2.7-6.6,1.1c-3.1-2.6-1.4-6.5-1.3-9.9
		C167.9,206.9,171.2,206.9,174.5,207z"/>
	<line id="XMLID_4_" class="st18" x1="164.6" y1="157.7" x2="247.1" y2="158"/>
	<line id="XMLID_27_" class="st18" x1="164.6" y1="169.5" x2="247.1" y2="169.7"/>
	<line id="XMLID_28_" class="st18" x1="164.4" y1="182.2" x2="246.9" y2="182.5"/>
	<line id="XMLID_29_" class="st18" x1="164.4" y1="193.6" x2="246.9" y2="193.8"/>
	<line id="XMLID_30_" class="st18" x1="164.1" y1="205.4" x2="246.6" y2="205.7"/>
	<line id="XMLID_5_" class="st19" x1="246.7" y1="146.2" x2="246.7" y2="328.3"/>
	<line id="XMLID_6_" class="st20" x1="164.6" y1="323.6" x2="247.1" y2="323.6"/>
	<line id="XMLID_8_" class="st20" x1="164.4" y1="310.2" x2="246.9" y2="310.2"/>
	<line id="XMLID_9_" class="st20" x1="164.1" y1="299.3" x2="246.6" y2="299.3"/>
	<line id="XMLID_13_" class="st20" x1="164.6" y1="286.4" x2="247.1" y2="286.4"/>
	<line id="XMLID_14_" class="st20" x1="164.6" y1="275.9" x2="247.1" y2="275.9"/>
	<line id="XMLID_15_" class="st20" x1="164.4" y1="264.6" x2="246.9" y2="264.6"/>
	<line id="XMLID_7_" class="st21" x1="175.5" y1="299.3" x2="175.5" y2="308.9"/>
	<line id="XMLID_11_" class="st21" x1="204.3" y1="299.2" x2="204.3" y2="308.9"/>
	<line id="XMLID_115_" class="st21" x1="237.3" y1="310.6" x2="237.3" y2="320.3"/>
	<line id="XMLID_114_" class="st21" x1="177.8" y1="311.6" x2="177.8" y2="321.2"/>
	<line id="XMLID_16_" class="st21" x1="218" y1="287.2" x2="218" y2="296.9"/>
	<line id="XMLID_17_" class="st21" x1="189.2" y1="287.7" x2="189.2" y2="297.4"/>
	<line id="XMLID_18_" class="st21" x1="205.5" y1="277.1" x2="205.5" y2="286.7"/>
	<line id="XMLID_20_" class="st21" x1="174.7" y1="277.1" x2="174.7" y2="286.7"/>
	<line id="XMLID_21_" class="st21" x1="189.1" y1="265.9" x2="189.1" y2="275.6"/>
	<line id="XMLID_22_" class="st21" x1="218.3" y1="264.7" x2="218.3" y2="274.4"/>
	<line id="XMLID_23_" class="st21" x1="233.6" y1="159.5" x2="233.6" y2="169.2"/>
	<line id="XMLID_31_" class="st21" x1="203.9" y1="160" x2="203.9" y2="169.6"/>
	<line id="XMLID_33_" class="st21" x1="219.3" y1="148.6" x2="219.3" y2="158.3"/>
	<line id="XMLID_34_" class="st21" x1="189.9" y1="148.6" x2="189.9" y2="158.3"/>
	<line id="XMLID_32_" class="st21" x1="174.7" y1="159.5" x2="174.7" y2="169.2"/>
	<line id="XMLID_35_" class="st21" x1="190.6" y1="170.9" x2="190.6" y2="180.6"/>
	<line id="XMLID_36_" class="st21" x1="218.9" y1="170.9" x2="218.9" y2="180.6"/>
	<line id="XMLID_37_" class="st21" x1="233.9" y1="183.6" x2="233.9" y2="193.2"/>
	<line id="XMLID_113_" class="st21" x1="177.8" y1="183.6" x2="177.8" y2="193.2"/>
	<line id="XMLID_38_" class="st21" x1="219.5" y1="194.5" x2="219.5" y2="204.2"/>
	<line id="XMLID_41_" class="st21" x1="232.2" y1="205.4" x2="232.2" y2="215.1"/>
	<line id="XMLID_47_" class="st21" x1="174.7" y1="206.2" x2="174.7" y2="215.9"/>
	<line id="XMLID_46_" class="st21" x1="233.9" y1="230.1" x2="233.9" y2="239.7"/>
	<line id="XMLID_116_" class="st21" x1="189.9" y1="229.7" x2="189.9" y2="239.3"/>
	<line id="XMLID_49_" class="st21" x1="174.8" y1="229.1" x2="174.8" y2="238.8"/>
	<line id="XMLID_81_" class="st21" x1="224.7" y1="241.7" x2="224.7" y2="251.4"/>
	<line id="XMLID_82_" class="st21" x1="171.3" y1="241.7" x2="171.3" y2="251.4"/>
	<line id="XMLID_44_" class="st21" x1="202.8" y1="254.1" x2="202.8" y2="263.7"/>
	<line id="XMLID_84_" class="st21" x1="211.8" y1="313.3" x2="211.8" y2="323"/>
	<line id="XMLID_52_" class="st21" x1="167.9" y1="218.4" x2="167.9" y2="228"/>
	<line id="XMLID_39_" class="st21" x1="204.5" y1="218.1" x2="204.5" y2="227.8"/>
	<line id="XMLID_40_" class="st21" x1="167.9" y1="195.3" x2="167.9" y2="205"/>
	<line id="XMLID_26_" class="st21" x1="174.6" y1="253.9" x2="174.6" y2="263.6"/>
	<line id="XMLID_19_" class="st21" x1="232.2" y1="276.2" x2="232.2" y2="285.9"/>
	<line id="XMLID_12_" class="st21" x1="232.4" y1="299.2" x2="232.4" y2="308.9"/>
	<line id="XMLID_10_" class="st18" x1="228" y1="252.6" x2="246.6" y2="252.6"/>
	<line id="XMLID_45_" class="st18" x1="228.3" y1="240.8" x2="246.8" y2="240.8"/>
	<line id="XMLID_51_" class="st18" x1="162.6" y1="228.3" x2="247.1" y2="228.3"/>
	<line id="XMLID_50_" class="st18" x1="165.6" y1="240.8" x2="234.2" y2="240.8"/>
	<path id="XMLID_2_" class="st21" d="M247.5,228.6"/>
	<path id="XMLID_1_" class="st21" d="M228.9,228.6"/>
	<line id="XMLID_42_" class="st18" x1="228" y1="217.6" x2="246.6" y2="217.6"/>
	<line id="XMLID_43_" class="st18" x1="163" y1="217.6" x2="231.6" y2="217.6"/>
	<line id="XMLID_25_" class="st18" x1="162.9" y1="252.6" x2="228.4" y2="252.6"/>
	<g id="XMLID_91_">
		<g id="XMLID_92_">
			<path id="XMLID_93_" class="st22" d="M343.9,31.1c0.3-2.2,0-4.5-1-6.6c2.5-0.1,4.7-1.6,5.5-3.9c0.2-0.4-0.1-0.9-0.5-1.1
				c-0.4-0.2-0.9,0.1-1.1,0.5c-0.6,1.7-2.3,2.8-4.1,2.8h-0.8c-2.1-3.2-5.7-5.3-9.6-5.6c-2.7-0.2-4.5,0.6-4.7,0.6
				c-0.2,0-0.2-0.3-1.5-1.6c-2-2-4.4-3.4-7.1-4.1c1.7-1.9,4.3-2.6,6.7-1.8c0.6,0.2,1.3,0,1.7-0.5c1.5-2,3.9-3.2,6.4-3.2
				c4,0,7.3,2.8,7.9,6.8c0.1,0.4,0.4,0.7,0.9,0.7l0.1,0c0,0,0,0,0,0c1.7,0,3.2,1,3.9,2.5c0.2,0.4,0.7,0.6,1.1,0.4
				c0.4-0.2,0.6-0.7,0.4-1.1c-0.9-2-2.8-3.3-4.9-3.5c-0.5-2-1.6-3.8-3.1-5.1c-1.8-1.5-4-2.3-6.3-2.3c-3,0-5.8,1.4-7.7,3.8
				c-0.9-0.3-1.9-0.4-2.9-0.4c-2.4,0.1-4.7,1.4-6.1,3.4c-0.6-0.1-1.2-0.1-1.9-0.1c-3.6,0-7.1,1.3-9.9,3.6c-2.5,2.2-4.3,5.1-5,8.3
				c-4.9,0.3-8.7,4.3-8.6,9.3c0.1,5,4.2,9,9.3,9h8c-0.3,4.2,3.2,7.7,7.3,7.7H327c0.5,0,0.8-0.4,0.8-0.8c0-0.5-0.4-0.8-0.8-0.8h-10.5
				c-3.1,0-5.6-2.4-5.6-5.4c-0.1-3.3,2.7-5.7,5.6-5.6c0.5,0,0.9-0.3,0.9-0.7c1.4-8.9,12.8-11.5,18.1-4.5c0.4,0.6,1.2,0.8,1.8,0.6
				c5-1.7,10.3,2,10.6,7.3c0.2,4.6-3.5,8.4-8,8.4h-8.9c-0.5,0-0.8,0.4-0.8,0.8c0,0.5,0.4,0.8,0.8,0.8h8.9c2.7,0,5.2-1.1,7-3
				C351.4,41.8,350,33.9,343.9,31.1z M342.2,30.5c-1.8-0.5-3.7-0.4-5.4,0.2c-6.2-8.1-18.8-5.1-21,4.5c-3,0.2-5.5,2.3-6.3,5.1h-8.3
				c-4.1,0-7.5-3.3-7.6-7.3c-0.1-4.2,3.3-7.6,7.5-7.6c0,0,0.1,0,0.1,0l0.1,0c0,0,0,0,0,0c0.4,0,0.8-0.3,0.8-0.7
				c1.1-6.5,6.6-11.3,13.3-11.3c4.2,0,8.2,1.9,10.7,5.4c0.5,0.6,1.3,0.9,2.1,0.7C335.4,17,342.9,22.9,342.2,30.5z"/>
		</g>
	</g>
	<path id="XMLID_88_" class="st22" d="M269.9,32.7c-0.3-5.2-4.6-9.4-9.8-9.4c-3.1,0-6.2,1.5-8.1,4.1c0,0-0.1,0-0.1-0.1
		c-0.1-0.1-0.2-0.1-0.4-0.2c-0.1,0-0.1,0-0.2-0.1c-0.1,0-0.2-0.1-0.4-0.1c-0.1,0-0.1,0-0.2-0.1c-0.1,0-0.3-0.1-0.4-0.1
		c-0.1,0-0.1,0-0.2,0c-0.2,0-0.4,0-0.6,0c-2.9,0-5.2,2.3-5.2,5.2c0,0.1,0,0.1,0,0.2v0c-2.4,1.3-4.1,4.1-4.1,6.8
		c0,4.1,3.3,7.4,7.4,7.4H262c0.1,0,0.1,0,0.2,0l0,0l0.1,0c0.1,0,0.1,0,0.2,0h5.7c3.8,0,7-3.1,7-7C275.2,36.3,273,33.5,269.9,32.7z
		 M268.2,45.3h-5.7c0,0-0.1,0-0.1,0l-0.2,0l-0.1,0c0,0-0.1,0-0.1,0h-14.2c-3.5,0-6.3-2.8-6.3-6.3c0-2.4,1.6-4.9,3.7-5.9l0.3-0.2
		v-0.4c0-0.1,0-0.1,0-0.2l0-0.1l0-0.1c0,0,0-0.1,0-0.1c0-2.2,1.8-4.1,4.1-4.1c0.2,0,0.4,0,0.5,0c0,0,0.1,0,0.1,0
		c0.2,0,0.3,0.1,0.5,0.1c0,0,0,0,0.1,0c0.2,0.1,0.3,0.1,0.5,0.2c0,0,0.1,0,0.1,0.1c0.1,0.1,0.3,0.1,0.4,0.2c1.1,0.7,1.9,2,1.9,3.4
		c0,0.3,0.3,0.6,0.6,0.6s0.6-0.3,0.6-0.6c0-1.6-0.7-3-1.9-4c1.7-2.2,4.4-3.6,7.1-3.6c4.5,0,8.2,3.6,8.6,8.1c-0.6,0-1.5-0.1-2.4,0.1
		c-0.3,0-0.5,0.3-0.5,0.7c0,0.3,0.3,0.5,0.6,0.5c0,0,0.1,0,0.1,0c1.3-0.2,2.6,0,2.7,0c2.7,0.5,4.7,3,4.7,5.8
		C274,42.7,271.4,45.3,268.2,45.3z"/>
	<g id="XMLID_87_">
		<g id="XMLID_261_">
			<line id="XMLID_264_" class="st23" x1="0" y1="329.8" x2="1.5" y2="329.8"/>
			<line id="XMLID_263_" class="st24" x1="4.5" y1="329.8" x2="450" y2="329.8"/>
			<line id="XMLID_262_" class="st23" x1="451.5" y1="329.8" x2="453" y2="329.8"/>
		</g>
	</g>
	<text id="XMLID_95_" transform="matrix(1 0 0 1 127.3042 152.2969)" class="st25 st26 st27">+</text>
	<text id="XMLID_94_" transform="matrix(1 0 0 1 117.3043 125.7647)" class="st25 st26 st28">+</text>
	<text id="XMLID_90_" transform="matrix(1 0 0 1 131.4497 111.4453)" class="st25 st26 st29">O </text>
	<text id="XMLID_89_" transform="matrix(1 0 0 1 101.8823 146.2218)" class="st25 st26 st30">O</text>
</g>
<g id="XMLID_3_" class="st0">
	<path id="XMLID_48_" class="st31" d="M124.2,408l-2.3-8.6h1.2l1.3,5.6c0.1,0.6,0.3,1.2,0.4,1.8c0.2-0.9,0.3-1.4,0.4-1.6l1.6-5.8
		h1.4l1.2,4.3c0.3,1.1,0.5,2.1,0.7,3c0.1-0.5,0.3-1.2,0.4-1.9l1.3-5.5h1.1l-2.4,8.6h-1.1l-1.8-6.5c-0.2-0.5-0.2-0.9-0.3-1
		c-0.1,0.4-0.2,0.7-0.3,1l-1.8,6.5H124.2z"/>
	<path id="XMLID_107_" class="st31" d="M137.9,406l1.1,0.1c-0.2,0.6-0.5,1.1-1,1.5s-1.1,0.5-1.8,0.5c-0.9,0-1.6-0.3-2.2-0.8
		s-0.8-1.3-0.8-2.4c0-1,0.3-1.9,0.8-2.4s1.2-0.9,2.1-0.9c0.8,0,1.5,0.3,2,0.8s0.8,1.4,0.8,2.4c0,0.1,0,0.2,0,0.3h-4.6
		c0,0.7,0.2,1.2,0.6,1.6s0.8,0.5,1.3,0.5c0.4,0,0.7-0.1,1-0.3S137.8,406.4,137.9,406z M134.5,404.3h3.5c0-0.5-0.2-0.9-0.4-1.2
		c-0.3-0.4-0.8-0.6-1.3-0.6c-0.5,0-0.9,0.2-1.2,0.5S134.5,403.7,134.5,404.3z"/>
	<path id="XMLID_110_" class="st31" d="M140.3,408v-8.6h1.1v8.6H140.3z"/>
	<path id="XMLID_112_" class="st31" d="M143,408v-8.6h1.1v8.6H143z"/>
	<path id="XMLID_118_" class="st31" d="M146,408v-1.2h1.2v1.2c0,0.4-0.1,0.8-0.2,1.1s-0.4,0.5-0.7,0.6l-0.3-0.5
		c0.2-0.1,0.4-0.2,0.5-0.4s0.2-0.5,0.2-0.8H146z"/>
	<path id="XMLID_120_" class="st31" d="M154.7,407.1l0.2,0.9c-0.3,0.1-0.6,0.1-0.8,0.1c-0.4,0-0.7-0.1-0.9-0.2s-0.4-0.3-0.4-0.5
		s-0.1-0.6-0.1-1.2v-3.6h-0.8v-0.8h0.8v-1.5l1-0.6v2.2h1.1v0.8h-1.1v3.6c0,0.3,0,0.5,0.1,0.6s0.1,0.2,0.2,0.2s0.2,0.1,0.4,0.1
		C154.3,407.1,154.5,407.1,154.7,407.1z"/>
	<path id="XMLID_122_" class="st31" d="M155.7,408v-8.6h1.1v3.1c0.5-0.6,1.1-0.9,1.9-0.9c0.5,0,0.9,0.1,1.2,0.3s0.6,0.4,0.7,0.8
		s0.2,0.8,0.2,1.4v3.9h-1.1v-3.9c0-0.5-0.1-0.9-0.3-1.2s-0.6-0.4-1-0.4c-0.3,0-0.6,0.1-0.9,0.2s-0.5,0.4-0.6,0.7s-0.2,0.7-0.2,1.1
		v3.4H155.7z"/>
	<path id="XMLID_124_" class="st31" d="M166.4,407.2c-0.4,0.3-0.8,0.6-1.1,0.7s-0.7,0.2-1.2,0.2c-0.7,0-1.2-0.2-1.6-0.5
		s-0.6-0.8-0.6-1.3c0-0.3,0.1-0.6,0.2-0.8s0.3-0.5,0.5-0.6s0.5-0.3,0.8-0.3c0.2-0.1,0.5-0.1,0.9-0.2c0.9-0.1,1.5-0.2,1.9-0.4
		c0-0.1,0-0.2,0-0.3c0-0.4-0.1-0.7-0.3-0.9c-0.3-0.2-0.7-0.4-1.2-0.4c-0.5,0-0.9,0.1-1.1,0.3s-0.4,0.5-0.5,0.9l-1-0.1
		c0.1-0.4,0.2-0.8,0.5-1.1s0.5-0.5,0.9-0.6s0.9-0.2,1.4-0.2c0.5,0,1,0.1,1.3,0.2s0.6,0.3,0.7,0.5s0.3,0.4,0.3,0.7
		c0,0.2,0.1,0.5,0.1,1v1.4c0,1,0,1.6,0.1,1.9s0.1,0.5,0.3,0.7h-1.1C166.5,407.8,166.5,407.5,166.4,407.2z M166.3,404.9
		c-0.4,0.2-1,0.3-1.7,0.4c-0.4,0.1-0.7,0.1-0.9,0.2s-0.3,0.2-0.4,0.3s-0.1,0.3-0.1,0.5c0,0.3,0.1,0.5,0.3,0.7s0.5,0.3,0.9,0.3
		c0.4,0,0.8-0.1,1.1-0.3s0.5-0.4,0.7-0.7c0.1-0.2,0.2-0.6,0.2-1.1V404.9z"/>
	<path id="XMLID_127_" class="st31" d="M171.3,407.1l0.2,0.9c-0.3,0.1-0.6,0.1-0.8,0.1c-0.4,0-0.7-0.1-0.9-0.2s-0.4-0.3-0.4-0.5
		s-0.1-0.6-0.1-1.2v-3.6h-0.8v-0.8h0.8v-1.5l1-0.6v2.2h1.1v0.8h-1.1v3.6c0,0.3,0,0.5,0.1,0.6s0.1,0.2,0.2,0.2s0.2,0.1,0.4,0.1
		C171,407.1,171.1,407.1,171.3,407.1z"/>
	<path id="XMLID_129_" class="st31" d="M172.3,400.5v-1.2h1.1v1c0,0.5-0.1,0.9-0.2,1.1c-0.2,0.3-0.4,0.6-0.8,0.7l-0.3-0.4
		c0.2-0.1,0.4-0.2,0.5-0.4s0.2-0.4,0.2-0.8H172.3z"/>
	<path id="XMLID_131_" class="st31" d="M174.4,406.1l1-0.2c0.1,0.4,0.2,0.7,0.5,1s0.6,0.3,1.1,0.3c0.5,0,0.8-0.1,1.1-0.3
		s0.4-0.4,0.4-0.7c0-0.2-0.1-0.4-0.3-0.6c-0.1-0.1-0.5-0.2-1.1-0.4c-0.8-0.2-1.3-0.4-1.6-0.5s-0.5-0.3-0.7-0.6s-0.2-0.5-0.2-0.8
		c0-0.3,0.1-0.5,0.2-0.8s0.3-0.4,0.5-0.6c0.2-0.1,0.4-0.2,0.7-0.3s0.6-0.1,0.9-0.1c0.5,0,0.9,0.1,1.3,0.2s0.6,0.3,0.8,0.6
		s0.3,0.6,0.4,1l-1,0.1c0-0.3-0.2-0.6-0.4-0.8s-0.5-0.3-1-0.3c-0.5,0-0.8,0.1-1,0.2s-0.3,0.3-0.3,0.6c0,0.1,0,0.3,0.1,0.4
		c0.1,0.1,0.2,0.2,0.4,0.3c0.1,0,0.4,0.1,0.9,0.3c0.7,0.2,1.3,0.4,1.6,0.5s0.5,0.3,0.7,0.6s0.3,0.5,0.3,0.9c0,0.4-0.1,0.7-0.3,1
		s-0.5,0.6-0.9,0.7s-0.8,0.3-1.3,0.3c-0.8,0-1.4-0.2-1.8-0.5S174.5,406.8,174.4,406.1z"/>
	<path id="XMLID_133_" class="st31" d="M184.2,408v-6.2h0.9v0.9c0.5-0.7,1.1-1,2-1c0.4,0,0.7,0.1,1,0.2s0.5,0.3,0.7,0.5
		s0.3,0.5,0.3,0.8c0,0.2,0.1,0.5,0.1,1v3.8h-1.1v-3.8c0-0.4,0-0.8-0.1-1s-0.2-0.4-0.4-0.5s-0.5-0.2-0.7-0.2c-0.4,0-0.8,0.1-1.2,0.4
		s-0.5,0.8-0.5,1.6v3.4H184.2z"/>
	<path id="XMLID_135_" class="st31" d="M190.4,404.9c0-1.2,0.3-2,1-2.6c0.5-0.5,1.2-0.7,2-0.7c0.9,0,1.6,0.3,2.1,0.8
		s0.8,1.3,0.8,2.3c0,0.8-0.1,1.4-0.4,1.9s-0.6,0.8-1,1.1s-1,0.4-1.5,0.4c-0.9,0-1.6-0.3-2.1-0.8S190.4,405.9,190.4,404.9z
		 M191.5,404.9c0,0.8,0.2,1.4,0.5,1.8s0.8,0.6,1.3,0.6c0.5,0,1-0.2,1.3-0.6s0.5-1,0.5-1.8c0-0.8-0.2-1.4-0.5-1.7s-0.8-0.6-1.3-0.6
		c-0.5,0-1,0.2-1.3,0.6S191.5,404.1,191.5,404.9z"/>
	<path id="XMLID_138_" class="st31" d="M199.8,407.1l0.2,0.9c-0.3,0.1-0.6,0.1-0.8,0.1c-0.4,0-0.7-0.1-0.9-0.2s-0.4-0.3-0.4-0.5
		s-0.1-0.6-0.1-1.2v-3.6h-0.8v-0.8h0.8v-1.5l1-0.6v2.2h1.1v0.8h-1.1v3.6c0,0.3,0,0.5,0.1,0.6s0.1,0.2,0.2,0.2s0.2,0.1,0.4,0.1
		C199.5,407.1,199.6,407.1,199.8,407.1z"/>
	<path id="XMLID_140_" class="st31" d="M206.5,407.1l0.2,0.9c-0.3,0.1-0.6,0.1-0.8,0.1c-0.4,0-0.7-0.1-0.9-0.2s-0.4-0.3-0.4-0.5
		s-0.1-0.6-0.1-1.2v-3.6h-0.8v-0.8h0.8v-1.5l1-0.6v2.2h1.1v0.8h-1.1v3.6c0,0.3,0,0.5,0.1,0.6s0.1,0.2,0.2,0.2s0.2,0.1,0.4,0.1
		C206.1,407.1,206.3,407.1,206.5,407.1z"/>
	<path id="XMLID_143_" class="st31" d="M207.5,408v-8.6h1.1v3.1c0.5-0.6,1.1-0.9,1.9-0.9c0.5,0,0.9,0.1,1.2,0.3s0.6,0.4,0.7,0.8
		s0.2,0.8,0.2,1.4v3.9h-1.1v-3.9c0-0.5-0.1-0.9-0.3-1.2s-0.6-0.4-1-0.4c-0.3,0-0.6,0.1-0.9,0.2s-0.5,0.4-0.6,0.7s-0.2,0.7-0.2,1.1
		v3.4H207.5z"/>
	<path id="XMLID_145_" class="st31" d="M218.4,406l1.1,0.1c-0.2,0.6-0.5,1.1-1,1.5s-1.1,0.5-1.8,0.5c-0.9,0-1.6-0.3-2.2-0.8
		s-0.8-1.3-0.8-2.4c0-1,0.3-1.9,0.8-2.4s1.2-0.9,2.1-0.9c0.8,0,1.5,0.3,2,0.8s0.8,1.4,0.8,2.4c0,0.1,0,0.2,0,0.3h-4.6
		c0,0.7,0.2,1.2,0.6,1.6s0.8,0.5,1.3,0.5c0.4,0,0.7-0.1,1-0.3S218.3,406.4,218.4,406z M215,404.3h3.5c0-0.5-0.2-0.9-0.4-1.2
		c-0.3-0.4-0.8-0.6-1.3-0.6c-0.5,0-0.9,0.2-1.2,0.5S215,403.7,215,404.3z"/>
	<path id="XMLID_148_" class="st31" d="M224.1,410.4l-0.1-1c0.2,0.1,0.4,0.1,0.6,0.1c0.2,0,0.4,0,0.6-0.1s0.3-0.2,0.3-0.3
		c0.1-0.1,0.2-0.4,0.3-0.8c0-0.1,0.1-0.1,0.1-0.3l-2.4-6.2h1.1l1.3,3.6c0.2,0.5,0.3,0.9,0.5,1.4c0.1-0.5,0.3-1,0.4-1.4l1.3-3.6h1.1
		l-2.4,6.3c-0.3,0.7-0.5,1.2-0.6,1.4c-0.2,0.3-0.4,0.6-0.6,0.8s-0.5,0.2-0.9,0.2C224.6,410.5,224.4,410.5,224.1,410.4z"/>
	<path id="XMLID_150_" class="st31" d="M229.8,404.9c0-1.2,0.3-2,1-2.6c0.5-0.5,1.2-0.7,2-0.7c0.9,0,1.6,0.3,2.1,0.8
		s0.8,1.3,0.8,2.3c0,0.8-0.1,1.4-0.4,1.9s-0.6,0.8-1,1.1s-1,0.4-1.5,0.4c-0.9,0-1.6-0.3-2.1-0.8S229.8,405.9,229.8,404.9z
		 M230.9,404.9c0,0.8,0.2,1.4,0.5,1.8s0.8,0.6,1.3,0.6c0.5,0,1-0.2,1.3-0.6s0.5-1,0.5-1.8c0-0.8-0.2-1.4-0.5-1.7s-0.8-0.6-1.3-0.6
		c-0.5,0-1,0.2-1.3,0.6S230.9,404.1,230.9,404.9z"/>
	<path id="XMLID_153_" class="st31" d="M240.9,408v-0.9c-0.5,0.7-1.1,1.1-2,1.1c-0.4,0-0.7-0.1-1-0.2s-0.6-0.3-0.7-0.5
		s-0.3-0.5-0.3-0.8c0-0.2-0.1-0.5-0.1-1v-3.9h1.1v3.5c0,0.6,0,0.9,0.1,1.1c0.1,0.3,0.2,0.5,0.4,0.7s0.5,0.2,0.8,0.2s0.6-0.1,0.9-0.2
		s0.5-0.4,0.6-0.7s0.2-0.7,0.2-1.2v-3.3h1.1v6.2H240.9z"/>
	<path id="XMLID_155_" class="st31" d="M250.9,407.2c-0.4,0.3-0.8,0.6-1.1,0.7s-0.7,0.2-1.2,0.2c-0.7,0-1.2-0.2-1.6-0.5
		s-0.6-0.8-0.6-1.3c0-0.3,0.1-0.6,0.2-0.8s0.3-0.5,0.5-0.6s0.5-0.3,0.8-0.3c0.2-0.1,0.5-0.1,0.9-0.2c0.9-0.1,1.5-0.2,1.9-0.4
		c0-0.1,0-0.2,0-0.3c0-0.4-0.1-0.7-0.3-0.9c-0.3-0.2-0.7-0.4-1.2-0.4c-0.5,0-0.9,0.1-1.1,0.3s-0.4,0.5-0.5,0.9l-1-0.1
		c0.1-0.4,0.2-0.8,0.5-1.1s0.5-0.5,0.9-0.6s0.9-0.2,1.4-0.2c0.5,0,1,0.1,1.3,0.2s0.6,0.3,0.7,0.5s0.3,0.4,0.3,0.7
		c0,0.2,0.1,0.5,0.1,1v1.4c0,1,0,1.6,0.1,1.9s0.1,0.5,0.3,0.7h-1.1C251,407.8,251,407.5,250.9,407.2z M250.8,404.9
		c-0.4,0.2-1,0.3-1.7,0.4c-0.4,0.1-0.7,0.1-0.9,0.2s-0.3,0.2-0.4,0.3s-0.1,0.3-0.1,0.5c0,0.3,0.1,0.5,0.3,0.7s0.5,0.3,0.9,0.3
		c0.4,0,0.8-0.1,1.1-0.3s0.5-0.4,0.7-0.7c0.1-0.2,0.2-0.6,0.2-1.1V404.9z"/>
	<path id="XMLID_158_" class="st31" d="M253.5,408v-6.2h0.9v0.9c0.2-0.4,0.5-0.7,0.7-0.9s0.4-0.2,0.7-0.2c0.4,0,0.7,0.1,1.1,0.3
		l-0.4,1c-0.3-0.2-0.5-0.2-0.8-0.2c-0.2,0-0.4,0.1-0.6,0.2s-0.3,0.3-0.4,0.6c-0.1,0.4-0.2,0.8-0.2,1.2v3.3H253.5z"/>
	<path id="XMLID_160_" class="st31" d="M261.8,406l1.1,0.1c-0.2,0.6-0.5,1.1-1,1.5s-1.1,0.5-1.8,0.5c-0.9,0-1.6-0.3-2.2-0.8
		s-0.8-1.3-0.8-2.4c0-1,0.3-1.9,0.8-2.4s1.2-0.9,2.1-0.9c0.8,0,1.5,0.3,2,0.8s0.8,1.4,0.8,2.4c0,0.1,0,0.2,0,0.3h-4.6
		c0,0.7,0.2,1.2,0.6,1.6s0.8,0.5,1.3,0.5c0.4,0,0.7-0.1,1-0.3S261.6,406.4,261.8,406z M258.3,404.3h3.5c0-0.5-0.2-0.9-0.4-1.2
		c-0.3-0.4-0.8-0.6-1.3-0.6c-0.5,0-0.9,0.2-1.2,0.5S258.4,403.7,258.3,404.3z"/>
	<path id="XMLID_163_" class="st31" d="M267.1,406.1l1-0.2c0.1,0.4,0.2,0.7,0.5,1s0.6,0.3,1.1,0.3c0.5,0,0.8-0.1,1.1-0.3
		s0.4-0.4,0.4-0.7c0-0.2-0.1-0.4-0.3-0.6c-0.1-0.1-0.5-0.2-1.1-0.4c-0.8-0.2-1.3-0.4-1.6-0.5s-0.5-0.3-0.7-0.6s-0.2-0.5-0.2-0.8
		c0-0.3,0.1-0.5,0.2-0.8s0.3-0.4,0.5-0.6c0.2-0.1,0.4-0.2,0.7-0.3s0.6-0.1,0.9-0.1c0.5,0,0.9,0.1,1.3,0.2s0.6,0.3,0.8,0.6
		s0.3,0.6,0.4,1l-1,0.1c0-0.3-0.2-0.6-0.4-0.8s-0.5-0.3-1-0.3c-0.5,0-0.8,0.1-1,0.2s-0.3,0.3-0.3,0.6c0,0.1,0,0.3,0.1,0.4
		c0.1,0.1,0.2,0.2,0.4,0.3c0.1,0,0.4,0.1,0.9,0.3c0.7,0.2,1.3,0.4,1.6,0.5s0.5,0.3,0.7,0.6s0.3,0.5,0.3,0.9c0,0.4-0.1,0.7-0.3,1
		s-0.5,0.6-0.9,0.7s-0.8,0.3-1.3,0.3c-0.8,0-1.4-0.2-1.8-0.5S267.2,406.8,267.1,406.1z"/>
	<path id="XMLID_165_" class="st31" d="M277.8,406l1.1,0.1c-0.2,0.6-0.5,1.1-1,1.5s-1.1,0.5-1.8,0.5c-0.9,0-1.6-0.3-2.2-0.8
		s-0.8-1.3-0.8-2.4c0-1,0.3-1.9,0.8-2.4s1.2-0.9,2.1-0.9c0.8,0,1.5,0.3,2,0.8s0.8,1.4,0.8,2.4c0,0.1,0,0.2,0,0.3h-4.6
		c0,0.7,0.2,1.2,0.6,1.6s0.8,0.5,1.3,0.5c0.4,0,0.7-0.1,1-0.3S277.6,406.4,277.8,406z M274.3,404.3h3.5c0-0.5-0.2-0.9-0.4-1.2
		c-0.3-0.4-0.8-0.6-1.3-0.6c-0.5,0-0.9,0.2-1.2,0.5S274.4,403.7,274.3,404.3z"/>
	<path id="XMLID_168_" class="st31" d="M280.2,408v-6.2h0.9v0.9c0.2-0.4,0.5-0.7,0.7-0.9s0.4-0.2,0.7-0.2c0.4,0,0.7,0.1,1.1,0.3
		l-0.4,1c-0.3-0.2-0.5-0.2-0.8-0.2c-0.2,0-0.4,0.1-0.6,0.2s-0.3,0.3-0.4,0.6c-0.1,0.4-0.2,0.8-0.2,1.2v3.3H280.2z"/>
	<path id="XMLID_170_" class="st31" d="M288.3,405.7l1,0.1c-0.1,0.7-0.4,1.3-0.9,1.7s-1,0.6-1.7,0.6c-0.9,0-1.5-0.3-2.1-0.8
		s-0.8-1.4-0.8-2.4c0-0.7,0.1-1.3,0.3-1.8s0.6-0.9,1-1.1s1-0.4,1.5-0.4c0.7,0,1.2,0.2,1.7,0.5s0.7,0.8,0.8,1.5l-1,0.2
		c-0.1-0.4-0.3-0.7-0.5-0.9s-0.5-0.3-0.9-0.3c-0.5,0-1,0.2-1.3,0.6s-0.5,1-0.5,1.8c0,0.8,0.2,1.4,0.5,1.8s0.7,0.6,1.3,0.6
		c0.4,0,0.8-0.1,1-0.4S288.2,406.2,288.3,405.7z"/>
	<path id="XMLID_172_" class="st31" d="M290.2,408v-8.6h1.1v3.1c0.5-0.6,1.1-0.9,1.9-0.9c0.5,0,0.9,0.1,1.2,0.3s0.6,0.4,0.7,0.8
		s0.2,0.8,0.2,1.4v3.9h-1.1v-3.9c0-0.5-0.1-0.9-0.3-1.2s-0.6-0.4-1-0.4c-0.3,0-0.6,0.1-0.9,0.2s-0.5,0.4-0.6,0.7s-0.2,0.7-0.2,1.1
		v3.4H290.2z"/>
	<path id="XMLID_174_" class="st31" d="M296.9,400.6v-1.2h1.1v1.2H296.9z M296.9,408v-6.2h1.1v6.2H296.9z"/>
	<path id="XMLID_177_" class="st31" d="M299.6,408v-6.2h0.9v0.9c0.5-0.7,1.1-1,2-1c0.4,0,0.7,0.1,1,0.2s0.5,0.3,0.7,0.5
		s0.3,0.5,0.3,0.8c0,0.2,0.1,0.5,0.1,1v3.8h-1.1v-3.8c0-0.4,0-0.8-0.1-1s-0.2-0.4-0.4-0.5s-0.5-0.2-0.7-0.2c-0.4,0-0.8,0.1-1.2,0.4
		s-0.5,0.8-0.5,1.6v3.4H299.6z"/>
	<path id="XMLID_179_" class="st31" d="M306,408.5l1,0.2c0,0.3,0.2,0.5,0.4,0.7c0.3,0.2,0.6,0.3,1.1,0.3c0.5,0,0.9-0.1,1.1-0.3
		s0.4-0.5,0.5-0.8c0.1-0.2,0.1-0.7,0.1-1.4c-0.5,0.5-1,0.8-1.7,0.8c-0.9,0-1.5-0.3-2-0.9s-0.7-1.4-0.7-2.2c0-0.6,0.1-1.1,0.3-1.6
		s0.5-0.9,0.9-1.2s0.9-0.4,1.4-0.4c0.7,0,1.3,0.3,1.8,0.9v-0.8h1v5.4c0,1-0.1,1.7-0.3,2.1s-0.5,0.7-0.9,1s-1,0.4-1.6,0.4
		c-0.7,0-1.3-0.2-1.8-0.5S306,409.2,306,408.5z M306.9,404.8c0,0.8,0.2,1.4,0.5,1.8s0.7,0.6,1.2,0.6c0.5,0,0.9-0.2,1.2-0.6
		s0.5-1,0.5-1.8c0-0.8-0.2-1.3-0.5-1.7s-0.7-0.6-1.2-0.6c-0.5,0-0.9,0.2-1.2,0.6S306.9,404,306.9,404.8z"/>
	<path id="XMLID_182_" class="st31" d="M316.5,408v-5.4h-0.9v-0.8h0.9v-0.7c0-0.4,0-0.7,0.1-0.9c0.1-0.3,0.3-0.5,0.5-0.7
		s0.6-0.3,1.1-0.3c0.3,0,0.6,0,1,0.1l-0.2,0.9c-0.2,0-0.4-0.1-0.6-0.1c-0.3,0-0.5,0.1-0.7,0.2s-0.2,0.4-0.2,0.8v0.6h1.2v0.8h-1.2
		v5.4H316.5z"/>
	<path id="XMLID_184_" class="st31" d="M319.2,404.9c0-1.2,0.3-2,1-2.6c0.5-0.5,1.2-0.7,2-0.7c0.9,0,1.6,0.3,2.1,0.8
		s0.8,1.3,0.8,2.3c0,0.8-0.1,1.4-0.4,1.9s-0.6,0.8-1,1.1s-1,0.4-1.5,0.4c-0.9,0-1.6-0.3-2.1-0.8S319.2,405.9,319.2,404.9z
		 M320.3,404.9c0,0.8,0.2,1.4,0.5,1.8s0.8,0.6,1.3,0.6c0.5,0,1-0.2,1.3-0.6s0.5-1,0.5-1.8c0-0.8-0.2-1.4-0.5-1.7s-0.8-0.6-1.3-0.6
		c-0.5,0-1,0.2-1.3,0.6S320.3,404.1,320.3,404.9z"/>
	<path id="XMLID_187_" class="st31" d="M326.2,408v-6.2h0.9v0.9c0.2-0.4,0.5-0.7,0.7-0.9s0.4-0.2,0.7-0.2c0.4,0,0.7,0.1,1.1,0.3
		l-0.4,1c-0.3-0.2-0.5-0.2-0.8-0.2c-0.2,0-0.4,0.1-0.6,0.2s-0.3,0.3-0.4,0.6c-0.1,0.4-0.2,0.8-0.2,1.2v3.3H326.2z"/>
	<path id="XMLID_189_" class="st31" d="M329.9,408v-1.2h1.2v1.2H329.9z"/>
	<path id="XMLID_191_" class="st31" d="M194.5,422.4v-8.6h1.1v8.6H194.5z"/>
	<path id="XMLID_193_" class="st31" d="M201.5,420.4l1.1,0.1c-0.2,0.6-0.5,1.1-1,1.5s-1.1,0.5-1.8,0.5c-0.9,0-1.6-0.3-2.2-0.8
		s-0.8-1.3-0.8-2.4c0-1,0.3-1.9,0.8-2.4s1.2-0.9,2.1-0.9c0.8,0,1.5,0.3,2,0.8s0.8,1.4,0.8,2.4c0,0.1,0,0.2,0,0.3H198
		c0,0.7,0.2,1.2,0.6,1.6s0.8,0.5,1.3,0.5c0.4,0,0.7-0.1,1-0.3S201.3,420.8,201.5,420.4z M198,418.7h3.5c0-0.5-0.2-0.9-0.4-1.2
		c-0.3-0.4-0.8-0.6-1.3-0.6c-0.5,0-0.9,0.2-1.2,0.5S198.1,418.1,198,418.7z"/>
	<path id="XMLID_196_" class="st31" d="M206.2,421.5l0.2,0.9c-0.3,0.1-0.6,0.1-0.8,0.1c-0.4,0-0.7-0.1-0.9-0.2s-0.4-0.3-0.4-0.5
		s-0.1-0.6-0.1-1.2V417h-0.8v-0.8h0.8v-1.5l1-0.6v2.2h1.1v0.8h-1.1v3.6c0,0.3,0,0.5,0.1,0.6s0.1,0.2,0.2,0.2s0.2,0.1,0.4,0.1
		C205.9,421.5,206,421.5,206.2,421.5z"/>
	<path id="XMLID_198_" class="st31" d="M207.2,414.9v-1.2h1.1v1c0,0.5-0.1,0.9-0.2,1.1c-0.2,0.3-0.4,0.6-0.8,0.7l-0.3-0.4
		c0.2-0.1,0.4-0.2,0.5-0.4s0.2-0.4,0.2-0.8H207.2z"/>
	<path id="XMLID_200_" class="st31" d="M215.1,421.5l0.2,0.9c-0.3,0.1-0.6,0.1-0.8,0.1c-0.4,0-0.7-0.1-0.9-0.2s-0.4-0.3-0.4-0.5
		s-0.1-0.6-0.1-1.2V417h-0.8v-0.8h0.8v-1.5l1-0.6v2.2h1.1v0.8H214v3.6c0,0.3,0,0.5,0.1,0.6s0.1,0.2,0.2,0.2s0.2,0.1,0.4,0.1
		C214.8,421.5,214.9,421.5,215.1,421.5z"/>
	<path id="XMLID_202_" class="st31" d="M216.1,422.4v-6.2h0.9v0.9c0.2-0.4,0.5-0.7,0.7-0.9s0.4-0.2,0.7-0.2c0.4,0,0.7,0.1,1.1,0.3
		l-0.4,1c-0.3-0.2-0.5-0.2-0.8-0.2c-0.2,0-0.4,0.1-0.6,0.2s-0.3,0.3-0.4,0.6c-0.1,0.4-0.2,0.8-0.2,1.2v3.3H216.1z"/>
	<path id="XMLID_204_" class="st31" d="M220.1,424.8l-0.1-1c0.2,0.1,0.4,0.1,0.6,0.1c0.2,0,0.4,0,0.6-0.1s0.3-0.2,0.3-0.3
		c0.1-0.1,0.2-0.4,0.3-0.8c0-0.1,0.1-0.1,0.1-0.3l-2.4-6.2h1.1l1.3,3.6c0.2,0.5,0.3,0.9,0.5,1.4c0.1-0.5,0.3-1,0.4-1.4l1.3-3.6h1.1
		l-2.4,6.3c-0.3,0.7-0.5,1.2-0.6,1.4c-0.2,0.3-0.4,0.6-0.6,0.8s-0.5,0.2-0.9,0.2C220.6,424.9,220.3,424.9,220.1,424.8z"/>
	<path id="XMLID_206_" class="st31" d="M229.5,415v-1.2h1.1v1.2H229.5z M229.5,422.4v-6.2h1.1v6.2H229.5z"/>
	<path id="XMLID_209_" class="st31" d="M234.4,421.5l0.2,0.9c-0.3,0.1-0.6,0.1-0.8,0.1c-0.4,0-0.7-0.1-0.9-0.2s-0.4-0.3-0.4-0.5
		s-0.1-0.6-0.1-1.2V417h-0.8v-0.8h0.8v-1.5l1-0.6v2.2h1.1v0.8h-1.1v3.6c0,0.3,0,0.5,0.1,0.6s0.1,0.2,0.2,0.2s0.2,0.1,0.4,0.1
		C234.1,421.5,234.2,421.5,234.4,421.5z"/>
	<path id="XMLID_211_" class="st31" d="M242.9,421.6c-0.4,0.3-0.8,0.6-1.1,0.7s-0.7,0.2-1.2,0.2c-0.7,0-1.2-0.2-1.6-0.5
		s-0.6-0.8-0.6-1.3c0-0.3,0.1-0.6,0.2-0.8s0.3-0.5,0.5-0.6s0.5-0.3,0.8-0.3c0.2-0.1,0.5-0.1,0.9-0.2c0.9-0.1,1.5-0.2,1.9-0.4
		c0-0.1,0-0.2,0-0.3c0-0.4-0.1-0.7-0.3-0.9c-0.3-0.2-0.7-0.4-1.2-0.4c-0.5,0-0.9,0.1-1.1,0.3s-0.4,0.5-0.5,0.9l-1-0.1
		c0.1-0.4,0.2-0.8,0.5-1.1s0.5-0.5,0.9-0.6s0.9-0.2,1.4-0.2c0.5,0,1,0.1,1.3,0.2s0.6,0.3,0.7,0.5s0.3,0.4,0.3,0.7
		c0,0.2,0.1,0.5,0.1,1v1.4c0,1,0,1.6,0.1,1.9s0.1,0.5,0.3,0.7h-1.1C243,422.2,242.9,421.9,242.9,421.6z M242.8,419.3
		c-0.4,0.2-1,0.3-1.7,0.4c-0.4,0.1-0.7,0.1-0.9,0.2s-0.3,0.2-0.4,0.3s-0.1,0.3-0.1,0.5c0,0.3,0.1,0.5,0.3,0.7s0.5,0.3,0.9,0.3
		c0.4,0,0.8-0.1,1.1-0.3s0.5-0.4,0.7-0.7c0.1-0.2,0.2-0.6,0.2-1.1V419.3z"/>
	<path id="XMLID_214_" class="st31" d="M245.3,422.9l1,0.2c0,0.3,0.2,0.5,0.4,0.7c0.3,0.2,0.6,0.3,1.1,0.3c0.5,0,0.9-0.1,1.1-0.3
		s0.4-0.5,0.5-0.8c0.1-0.2,0.1-0.7,0.1-1.4c-0.5,0.5-1,0.8-1.7,0.8c-0.9,0-1.5-0.3-2-0.9s-0.7-1.4-0.7-2.2c0-0.6,0.1-1.1,0.3-1.6
		s0.5-0.9,0.9-1.2s0.9-0.4,1.4-0.4c0.7,0,1.3,0.3,1.8,0.9v-0.8h1v5.4c0,1-0.1,1.7-0.3,2.1s-0.5,0.7-0.9,1s-1,0.4-1.6,0.4
		c-0.7,0-1.3-0.2-1.8-0.5S245.3,423.6,245.3,422.9z M246.1,419.2c0,0.8,0.2,1.4,0.5,1.8s0.7,0.6,1.2,0.6c0.5,0,0.9-0.2,1.2-0.6
		s0.5-1,0.5-1.8c0-0.8-0.2-1.3-0.5-1.7s-0.7-0.6-1.2-0.6c-0.5,0-0.9,0.2-1.2,0.6S246.1,418.4,246.1,419.2z"/>
	<path id="XMLID_217_" class="st31" d="M256.2,421.6c-0.4,0.3-0.8,0.6-1.1,0.7s-0.7,0.2-1.2,0.2c-0.7,0-1.2-0.2-1.6-0.5
		s-0.6-0.8-0.6-1.3c0-0.3,0.1-0.6,0.2-0.8s0.3-0.5,0.5-0.6s0.5-0.3,0.8-0.3c0.2-0.1,0.5-0.1,0.9-0.2c0.9-0.1,1.5-0.2,1.9-0.4
		c0-0.1,0-0.2,0-0.3c0-0.4-0.1-0.7-0.3-0.9c-0.3-0.2-0.7-0.4-1.2-0.4c-0.5,0-0.9,0.1-1.1,0.3s-0.4,0.5-0.5,0.9l-1-0.1
		c0.1-0.4,0.2-0.8,0.5-1.1s0.5-0.5,0.9-0.6s0.9-0.2,1.4-0.2c0.5,0,1,0.1,1.3,0.2s0.6,0.3,0.7,0.5s0.3,0.4,0.3,0.7
		c0,0.2,0.1,0.5,0.1,1v1.4c0,1,0,1.6,0.1,1.9s0.1,0.5,0.3,0.7h-1.1C256.3,422.2,256.2,421.9,256.2,421.6z M256.1,419.3
		c-0.4,0.2-1,0.3-1.7,0.4c-0.4,0.1-0.7,0.1-0.9,0.2s-0.3,0.2-0.4,0.3s-0.1,0.3-0.1,0.5c0,0.3,0.1,0.5,0.3,0.7s0.5,0.3,0.9,0.3
		c0.4,0,0.8-0.1,1.1-0.3s0.5-0.4,0.7-0.7c0.1-0.2,0.2-0.6,0.2-1.1V419.3z"/>
	<path id="XMLID_220_" class="st31" d="M258.8,415v-1.2h1.1v1.2H258.8z M258.8,422.4v-6.2h1.1v6.2H258.8z"/>
	<path id="XMLID_223_" class="st31" d="M261.5,422.4v-6.2h0.9v0.9c0.5-0.7,1.1-1,2-1c0.4,0,0.7,0.1,1,0.2s0.5,0.3,0.7,0.5
		s0.3,0.5,0.3,0.8c0,0.2,0.1,0.5,0.1,1v3.8h-1.1v-3.8c0-0.4,0-0.8-0.1-1s-0.2-0.4-0.4-0.5s-0.5-0.2-0.7-0.2c-0.4,0-0.8,0.1-1.2,0.4
		s-0.5,0.8-0.5,1.6v3.4H261.5z"/>
</g>
</svg>
