<?xml version="1.0" encoding="utf-8"?>
<!-- Generator: Adobe Illustrator 21.0.0, SVG Export Plug-In . SVG Version: 6.00 Build 0)  -->
<svg version="1.1" id="Layer_1" xmlns="http://www.w3.org/2000/svg" xmlns:xlink="http://www.w3.org/1999/xlink" x="0px" y="0px"
	 viewBox="0 0 512 512" style="enable-background:new 0 0 512 512;" xml:space="preserve" width="54px" height="19px">
<style type="text/css">
	.st0{fill:#E6EA57;}
</style>
<path class="st0" d="M501.3,117.3h-352L128,138.7l-21.3-21.3h-96C4.8,117.3,0,122.1,0,128v256c0,5.9,4.8,10.7,10.7,10.7h96
	l21.3-21.3l21.3,21.3h352c5.9,0,10.7-4.8,10.7-10.7V128C512,122.1,507.2,117.3,501.3,117.3z M128,330.6c-5.9,0-10.7-4.8-10.7-10.7
	s4.8-10.7,10.7-10.7c5.9,0,10.7,4.8,10.7,10.7S133.9,330.6,128,330.6z M128,288c-5.9,0-10.7-4.8-10.7-10.7c0-5.9,4.8-10.7,10.7-10.7
	c5.9,0,10.7,4.8,10.7,10.7C138.7,283.2,133.9,288,128,288z M128,245.3c-5.9,0-10.7-4.8-10.7-10.7S122.1,224,128,224
	c5.9,0,10.7,4.8,10.7,10.7S133.9,245.3,128,245.3z M128,202.7c-5.9,0-10.7-4.8-10.7-10.7s4.8-10.7,10.7-10.7
	c5.9,0,10.7,4.8,10.7,10.7S133.9,202.7,128,202.7z"/>
</svg>
