<svg id="Layer_1" data-name="Layer 1" xmlns="http://www.w3.org/2000/svg" viewBox="0 0 512 277.31"><defs><style>.cls-1{fill:#ed5564;}.cls-2{fill:#ffce54;}</style></defs><title>coupon</title><path class="cls-1" d="M152,48,106,14.67S13.33,9.33,10.67,7.33l4,258.67L96,270l29.33-26,40,16.67Z"/><polygon class="cls-2" points="153 262.66 495 262.66 495 10.66 153 10.66 128 51.5 128 232.66 153 262.66"/><path d="M501.34,0h-352L128,21.31,106.67,0h-96A10.66,10.66,0,0,0,0,10.66v256a10.66,10.66,0,0,0,10.67,10.66h96L128,256l21.34,21.31h352A10.65,10.65,0,0,0,512,266.66v-256A10.65,10.65,0,0,0,501.34,0ZM490.67,256H158.17l-15.08-15.09L128,225.81l-15.08,15.09L97.84,256H21.34V21.31h76.5l15.08,15.09L128,51.5l15.09-15.09,15.08-15.09h332.5Z"/><path d="M128,64a10.66,10.66,0,1,0,10.67,10.66A10.66,10.66,0,0,0,128,64Z"/><path d="M128,106.66a10.67,10.67,0,1,0,10.67,10.66A10.67,10.67,0,0,0,128,106.66Z"/><path d="M128,149.31A10.67,10.67,0,1,0,138.67,160,10.68,10.68,0,0,0,128,149.31Z"/><path d="M128,192a10.66,10.66,0,1,0,10.67,10.66A10.66,10.66,0,0,0,128,192Z"/></svg>