<?xml version="1.0" encoding="utf-8"?>
<!-- Generator: Adobe Illustrator 19.0.0, SVG Export Plug-In . SVG Version: 6.00 Build 0)  -->
<svg version="1.1" id="train_1_" xmlns="http://www.w3.org/2000/svg" xmlns:xlink="http://www.w3.org/1999/xlink" x="0px" y="0px"
	 viewBox="0 0 1366 768" style="enable-background:new 0 0 1366 768;" xml:space="preserve">
<style type="text/css">
	.st0{fill:url(#SVGID_1_);}
	.st1{fill:#020202;}
	.st2{display:none;}
	.st3{display:inline;fill:#020202;}
	.st4{fill:#424242;}
	.st5{fill:url(#SVGID_2_);}
	.st6{fill:url(#SVGID_3_);}
	.st7{fill:url(#SVGID_4_);}
	.st8{fill:url(#SVGID_5_);}
	.st9{fill:url(#SVGID_6_);}
	.st10{fill:url(#SVGID_7_);}
	.st11{fill:#020202;stroke:#020202;stroke-width:0.8;stroke-miterlimit:10;}
	.st12{fill:url(#SVGID_8_);}
	.st13{fill:url(#SVGID_9_);}
</style>
<g id="train">
	<g>
		<linearGradient id="SVGID_1_" gradientUnits="userSpaceOnUse" x1="754.7173" y1="345.7385" x2="1076.8984" y2="345.7385">
			<stop  offset="0" style="stop-color:#0776BC"/>
			<stop  offset="1" style="stop-color:#9ECB3B"/>
		</linearGradient>
		<path class="st0" d="M1035.8,384.2l-79.1-76.6L884.3,259L839,237.9h-81.4c-1.9,10.4-2.8,21.1-2.8,32.1v0
			c0,101,82.6,183.6,183.6,183.6h138.6l-3.2-11.6L1035.8,384.2z"/>
	</g>
	<g>
		<path class="st1" d="M1110.6,490.8c-20.5-63.4-56-116.3-108.6-161.8c-43.8-38-99.9-70.7-171.5-100.1l0,0c-1.9-0.8-3.9-1.2-6-1.2
			H327.4c-0.2,0-0.3,0.1-0.3,0.3v30.7c0,0.2,0.1,0.3,0.3,0.3h494.1c0,0,0.1,0,0.1,0c143.5,59.5,223.4,133.4,258.5,239
			c0,0,0,0.1,0,0.1v21.8c0,55-44.5,99.5-99.5,99.5l-55.7,0c-0.2,0-0.3-0.2-0.3-0.4c3.1-17.7-1.3-36.1-12.7-50.9
			c-9.7-12.6-24-20.8-39.6-23.9l-0.3-0.1c0,0,0,0-0.1,0H342.7c-8.7,0-15.7,7-15.7,15.7v0c0,8.7,7,15.7,15.7,15.7l525.9,0
			c0,0,0.1,0,0.1,0c12.1,3,21.8,12.5,24.7,25.4c1.5,6.5,0.7,13.2-1.6,19.4l-11.1,30c-0.1,0.2,0.1,0.4,0.3,0.4h99.5
			c72.3,0,130.8-58.6,130.8-130.8v-26.7c0,0,0-0.1,0-0.1L1110.6,490.8z"/>
	</g>
	<g class="st2">
		<path class="st3" d="M739,48.4H590c-8.7,0-15.7,7-15.7,15.7v0c0,8.7,7,15.7,15.7,15.7H739c8.7,0,15.7-7,15.7-15.7v0
			C754.7,55.4,747.7,48.4,739,48.4z"/>
	</g>
	<g class="st2">
		<path class="st3" d="M808.7,48.4h-1.4c-8.7,0-15.7,7-15.7,15.7v0c0,8.7,7,15.7,15.7,15.7h1.4c8.7,0,15.7-7,15.7-15.7v0
			C824.4,55.4,817.4,48.4,808.7,48.4z"/>
	</g>
	<g>
		<rect x="309" y="717.1" class="st4" width="32.7" height="40.4"/>
	</g>
	<g>
		<rect x="380" y="717.1" class="st4" width="32.7" height="40.4"/>
	</g>
	<g>
		<rect x="451" y="717.1" class="st4" width="32.7" height="40.4"/>
	</g>
	<g>
		<rect x="522.1" y="717.1" class="st4" width="32.7" height="40.4"/>
	</g>
	<g>
		<rect x="593.1" y="717.1" class="st4" width="32.7" height="40.4"/>
	</g>
	<g>
		<rect x="664.2" y="717.1" class="st4" width="32.7" height="40.4"/>
	</g>
	<g>
		<rect x="735.2" y="717.1" class="st4" width="32.7" height="40.4"/>
	</g>
	<g>
		<rect x="806.3" y="717.1" class="st4" width="32.7" height="40.4"/>
	</g>
	<g>
		<rect x="877.3" y="717.1" class="st4" width="32.7" height="40.4"/>
	</g>
	<g>
		<rect x="948.3" y="717.1" class="st4" width="32.7" height="40.4"/>
	</g>
	<g>
		<rect x="1019.4" y="717.1" class="st4" width="32.7" height="40.4"/>
	</g>
	<g>
		<rect x="325.7" y="401.6" class="st1" width="32.7" height="40.4"/>
	</g>
	<g>
		<linearGradient id="SVGID_2_" gradientUnits="userSpaceOnUse" x1="325.6711" y1="421.7712" x2="358.4069" y2="421.7712">
			<stop  offset="0" style="stop-color:#0776BC"/>
			<stop  offset="1" style="stop-color:#9ECB3B"/>
		</linearGradient>
		<rect x="325.7" y="401.6" class="st5" width="32.7" height="40.4"/>
	</g>
	<g>
		<path class="st1" d="M287.4,129.9h-32.7v504.6c0,9,7.3,16.4,16.4,16.4h0c9,0,16.4-7.3,16.4-16.4V129.9z"/>
	</g>
	<g>
		<linearGradient id="SVGID_3_" gradientUnits="userSpaceOnUse" x1="398.804" y1="421.7712" x2="431.5398" y2="421.7712">
			<stop  offset="0" style="stop-color:#0776BC"/>
			<stop  offset="1" style="stop-color:#9ECB3B"/>
		</linearGradient>
		<rect x="398.8" y="401.6" class="st6" width="32.7" height="40.4"/>
	</g>
	<g>
		<linearGradient id="SVGID_4_" gradientUnits="userSpaceOnUse" x1="471.9369" y1="421.7712" x2="504.6727" y2="421.7712">
			<stop  offset="0" style="stop-color:#0776BC"/>
			<stop  offset="1" style="stop-color:#9ECB3B"/>
		</linearGradient>
		<rect x="471.9" y="401.6" class="st7" width="32.7" height="40.4"/>
	</g>
	<g>
		<linearGradient id="SVGID_5_" gradientUnits="userSpaceOnUse" x1="545.0698" y1="421.7712" x2="577.8056" y2="421.7712">
			<stop  offset="0" style="stop-color:#0776BC"/>
			<stop  offset="1" style="stop-color:#9ECB3B"/>
		</linearGradient>
		<rect x="545.1" y="401.6" class="st8" width="32.7" height="40.4"/>
	</g>
	<g>
		<linearGradient id="SVGID_6_" gradientUnits="userSpaceOnUse" x1="618.2026" y1="421.7712" x2="650.9385" y2="421.7712">
			<stop  offset="0" style="stop-color:#0776BC"/>
			<stop  offset="1" style="stop-color:#9ECB3B"/>
		</linearGradient>
		<rect x="618.2" y="401.6" class="st9" width="32.7" height="40.4"/>
	</g>
	<g>
		<linearGradient id="SVGID_7_" gradientUnits="userSpaceOnUse" x1="691.3355" y1="421.7712" x2="724.0714" y2="421.7712">
			<stop  offset="0" style="stop-color:#0776BC"/>
			<stop  offset="1" style="stop-color:#9ECB3B"/>
		</linearGradient>
		<rect x="691.3" y="401.6" class="st10" width="32.7" height="40.4"/>
	</g>
	<g>
		<path class="st1" d="M1019.4,511.6L1019.4,511.6c0,9,7.3,16.4,16.4,16.4h66.2v-32.7h-66.2C1026.7,495.3,1019.4,502.6,1019.4,511.6
			z"/>
	</g>
	<g>
		<path class="st1" d="M498.8,125.9h-28.6c-1.1,0-2.1,0.9-2.1,2.1v42.2c0,9,7.3,16.4,16.4,16.4h0c9,0,16.4-7.3,16.4-16.4v-42.2
			C500.9,126.8,500,125.9,498.8,125.9z"/>
	</g>
	<g>
		<path class="st1" d="M540.9,618.9H343.1c-8.5,0-15.4,6.9-15.4,15.4v0.6c0,8.5,6.9,15.4,15.4,15.4h197.8V618.9z"/>
	</g>
	<g>
		<path class="st1" d="M1093.8,687.8H272.4c-8.7,0-15.7,7-15.7,15.7v0c0,8.7,7,15.7,15.7,15.7h821.4c8.7,0,15.7-7,15.7-15.7v0
			C1109.4,694.8,1102.4,687.8,1093.8,687.8z"/>
	</g>
	<g class="st2">
		<path class="st3" d="M1037.3,190.5H964c-8.7,0-15.7,7-15.7,15.7v15.7H1053v-15.7C1053,197.5,1046,190.5,1037.3,190.5z"/>
	</g>
	<g>
		<path class="st1" d="M688.8,618.2c-2.5,21.7-21,38.7-43.3,38.7c-22.4,0-40.8-16.9-43.3-38.7h-27.3c2.6,36.7,33.2,65.8,70.6,65.8
			c37.4,0,68-29.1,70.6-65.8H688.8z"/>
	</g>
	<g>
		<path class="st1" d="M833,618.2c-2.5,21.7-21,38.7-43.3,38.7c-22.4,0-40.8-16.9-43.3-38.7H719c2.6,36.7,33.2,65.8,70.6,65.8
			c37.4,0,68-29.1,70.6-65.8H833z"/>
	</g>
	<g>
		<path class="st11" d="M377.7,41.8c49.8,0,90.5,40.2,91.2,89.8h31.3c-0.8-67-55.4-121.2-122.6-121.2S255.9,64.7,255.1,131.7h31.3
			C287.2,82,327.8,41.8,377.7,41.8z"/>
	</g>
	<linearGradient id="SVGID_8_" gradientUnits="userSpaceOnUse" x1="328.4573" y1="329.3244" x2="500.1994" y2="329.3244">
		<stop  offset="0" style="stop-color:#0776BC"/>
		<stop  offset="1" style="stop-color:#9ECB3B"/>
	</linearGradient>
	<path class="st12" d="M492.7,362.2H336c-4.1,0-7.5-3.4-7.5-7.5v-50.8c0-4.1,3.4-7.5,7.5-7.5h156.7c4.1,0,7.5,3.4,7.5,7.5v50.8
		C500.2,358.9,496.8,362.2,492.7,362.2z"/>
	<linearGradient id="SVGID_9_" gradientUnits="userSpaceOnUse" x1="541.5875" y1="329.3244" x2="713.3295" y2="329.3244">
		<stop  offset="0" style="stop-color:#0776BC"/>
		<stop  offset="1" style="stop-color:#9ECB3B"/>
	</linearGradient>
	<path class="st13" d="M705.8,362.2H549.1c-4.1,0-7.5-3.4-7.5-7.5v-50.8c0-4.1,3.4-7.5,7.5-7.5h156.7c4.1,0,7.5,3.4,7.5,7.5v50.8
		C713.3,358.9,710,362.2,705.8,362.2z"/>
</g>
</svg>
