<svg width="44" height="44" version="1.1" id="Layer_1" xmlns="http://www.w3.org/2000/svg" xmlns:xlink="http://www.w3.org/1999/xlink" x="0px" y="0px"
	 viewBox="0 0 640 480" style="enable-background:new 0 0 640 480;" xml:space="preserve">
<style type="text/css">
	.st0{fill:url(#XMLID_2_);}
</style>
<g id="XMLID_26_">
	<g id="XMLID_27_">
		<linearGradient id="XMLID_2_" gradientUnits="userSpaceOnUse" x1="21.4245" y1="240" x2="618.5755" y2="240">
			<stop  offset="0" style="stop-color:#9ECB3B"/>
			<stop  offset="1" style="stop-color:#0776BC"/>
		</linearGradient>
		<path id="XMLID_28_" class="st0" d="M522.2,270.8H361.9v-4h24.2c4.9,0,8.9-4,8.9-8.9V137.6c0-22.1-18-40.1-40.1-40.1h-6.5
			c8.4-7.7,13.6-18.7,13.6-30.9v-18c0-0.1,0-0.1,0-0.2C361.8,25.3,343,6.6,320,6.6c-23.1,0-41.9,18.8-41.9,41.9v18
			c0,12.2,5.3,23.2,13.6,30.9h-6.5c-22.1,0-40.1,18-40.1,40.1v120.4c0,4.9,4,8.9,8.9,8.9h24.2v4H117.8c-53.1,0-96.4,43.2-96.4,96.4
			v9.8c0,53.1,43.2,96.4,96.4,96.4h404.4c53.1,0,96.4-43.2,96.4-96.4v-9.8C618.6,314,575.3,270.8,522.2,270.8z M320,24.4
			c8.5,0,15.9,4.4,20.2,11l-29.7-9.1C313.4,25.1,316.6,24.4,320,24.4z M295.8,48.5L295.8,48.5c0-2.7,0.5-5.3,1.3-7.8l47,14.3v11.5
			c0,13.3-10.8,24.2-24.2,24.2s-24.2-10.8-24.2-24.2L295.8,48.5L295.8,48.5z M262.8,249.1V137.6c0-12.3,10-22.4,22.4-22.4H320h34.8
			c12.3,0,22.4,10,22.4,22.4v111.5h-15.3v-32.3v-66.6v-10.8c0-4.9-4-8.9-8.9-8.9c-4.9,0-8.9,4-8.9,8.9v10.8v66.5h-48.3v-66.5v-10.8
			c0-4.9-4-8.9-8.9-8.9s-8.9,4-8.9,8.9v10.8v66.6v32.3H262.8z M482.4,411.2h55.2c2.8,0,5.2,2.4,5.2,5.2c0,2.8-2.4,5.2-5.2,5.2H102.4
			c-2.8,0-5.2-2.4-5.2-5.2c0-2.8,2.4-5.2,5.2-5.2h311.3H482.4z M422.6,393.4v-60.6h50.9v60.6H422.6z M328.9,270.8v-21
			c0-4.9-4-8.9-8.9-8.9s-8.9,4-8.9,8.9v21h-15.3v-12.9h0v-23.5h48.3v23.5v12.9H328.9z M344.2,288.5v97.9h-15.3v-97.9L344.2,288.5
			L344.2,288.5z M295.8,288.5h15.3v97.9h-15.3L295.8,288.5L295.8,288.5z M600.8,377c0,43.4-35.3,78.6-78.6,78.6H117.8
			c-43.4,0-78.6-35.3-78.6-78.6v-9.8c0-43.4,35.3-78.6,78.6-78.6h160.3v104.9H102.4c-12.7,0-23,10.3-23,23s10.3,23,23,23h435.2
			c12.7,0,23-10.3,23-23s-10.3-23-23-23h-46.4v-69.5c0-4.9-4-8.9-8.9-8.9h-68.7c-4.9,0-8.9,4-8.9,8.9v69.5h-42.9V288.5h160.3
			c43.4,0,78.6,35.3,78.6,78.6V377z"/>
	</g>
</g>
</svg>