<?xml version="1.0" encoding="utf-8"?>
<!-- Generator: Adobe Illustrator 19.0.0, SVG Export Plug-In . SVG Version: 6.00 Build 0)  -->
<svg version="1.1" id="Layer_1" xmlns="http://www.w3.org/2000/svg" xmlns:xlink="http://www.w3.org/1999/xlink" x="0px" y="0px"
	 viewBox="0 0 640 480" style="enable-background:new 0 0 640 480;" xml:space="preserve">
<style type="text/css">
	.st0{fill:url(#SVGID_1_);}
</style>
<g id="XMLID_1_">
	<linearGradient id="SVGID_1_" gradientUnits="userSpaceOnUse" x1="84" y1="239.9704" x2="563.9526" y2="239.9704">
		<stop  offset="0" style="stop-color:#ED1D78"/>
		<stop  offset="1" style="stop-color:#F26326"/>
	</linearGradient>
	<path class="st0" d="M559.8,455.5L443.1,338.9c31.3-36,50.2-82.9,50.2-134.2c0-112.9-91.9-204.7-204.7-204.7
		C175.8-0.1,84,91.8,84,204.6s91.9,204.7,204.7,204.7c51.3,0,98.2-18.9,134.2-50.2l116.7,116.7c2.8,2.8,6.5,4.3,10.1,4.3
		c3.6,0,7.3-1.4,10.1-4.3C565.3,470.2,565.3,461.1,559.8,455.5z M112.6,204.6c0-97.1,79-176,176-176c97.1,0,176,79,176,176
		s-78.9,176.1-176,176.1C191.6,380.7,112.6,301.7,112.6,204.6z"/>
</g>
</svg>
