<?xml version="1.0" encoding="utf-8"?>
<!-- Generator: Adobe Illustrator 19.0.0, SVG Export Plug-In . SVG Version: 6.00 Build 0)  -->
<svg version="1.1" id="Layer_1" xmlns="http://www.w3.org/2000/svg" xmlns:xlink="http://www.w3.org/1999/xlink" x="0px" y="0px"
	 viewBox="0 0 640 480" style="enable-background:new 0 0 640 480;" xml:space="preserve">
<style type="text/css">
	.st0{display:none;}
	.st1{display:inline;}
	.st2{fill:url(#XMLID_26_);}
	.st3{display:inline;fill:url(#XMLID_27_);}
	.st4{display:inline;fill:url(#XMLID_28_);}
	.st5{display:inline;fill:url(#XMLID_29_);}
	.st6{display:inline;fill:url(#XMLID_30_);}
	.st7{fill:url(#XMLID_31_);}
	.st8{fill:url(#XMLID_32_);}
	.st9{fill:url(#XMLID_33_);}
	.st10{fill:url(#XMLID_34_);}
	.st11{fill:url(#SVGID_1_);}
	.st12{fill:url(#XMLID_35_);}
	.st13{display:inline;fill:url(#XMLID_36_);}
	.st14{fill:url(#XMLID_37_);}
	.st15{fill:url(#XMLID_38_);}
</style>
<g id="XMLID_1_" class="st0">
	<g id="XMLID_2_" class="st1">
		<linearGradient id="XMLID_26_" gradientUnits="userSpaceOnUse" x1="-1.686298e-006" y1="240" x2="475.6444" y2="240">
			<stop  offset="0" style="stop-color:#ED1D78"/>
			<stop  offset="1" style="stop-color:#0776BC"/>
		</linearGradient>
		<path id="XMLID_3_" class="st2" d="M180.6,226.8c5,5.5,7.8,12.6,7.8,20v218.3c0,13.1,15.9,19.8,25.2,10.6l60.9-69.8
			c8.1-9.8,12.6-14.6,12.6-24.3V246.9c0-7.4,2.8-14.6,7.8-20.1L469.7,37.3c13.1-14.2,3-37.3-16.3-37.3H22.3C2.9,0-7.2,23,5.9,37.3
			L180.6,226.8z"/>
	</g>
	<linearGradient id="XMLID_27_" gradientUnits="userSpaceOnUse" x1="451" y1="238.2951" x2="627" y2="238.2951">
		<stop  offset="0" style="stop-color:#ED1D78"/>
		<stop  offset="1" style="stop-color:#0776BC"/>
	</linearGradient>
	<path id="XMLID_4_" class="st3" d="M622,250.5H456c-2.8,0-5-2.3-5-5v-14.4c0-2.8,2.3-5,5-5h166c2.8,0,5,2.3,5,5v14.4
		C627,248.2,624.8,250.5,622,250.5z"/>
	<linearGradient id="XMLID_28_" gradientUnits="userSpaceOnUse" x1="451" y1="283.2951" x2="539" y2="283.2951">
		<stop  offset="0" style="stop-color:#ED1D78"/>
		<stop  offset="1" style="stop-color:#0776BC"/>
	</linearGradient>
	<path id="XMLID_5_" class="st4" d="M534,295.5h-78c-2.8,0-5-2.3-5-5v-14.4c0-2.8,2.3-5,5-5h78c2.8,0,5,2.3,5,5v14.4
		C539,293.2,536.8,295.5,534,295.5z"/>
	<linearGradient id="XMLID_29_" gradientUnits="userSpaceOnUse" x1="451" y1="328.2951" x2="591.5814" y2="328.2951">
		<stop  offset="0" style="stop-color:#ED1D78"/>
		<stop  offset="1" style="stop-color:#0776BC"/>
	</linearGradient>
	<path id="XMLID_6_" class="st5" d="M586.6,340.5H456c-2.8,0-5-2.3-5-5v-14.4c0-2.8,2.3-5,5-5h130.6c2.8,0,5,2.3,5,5v14.4
		C591.6,338.2,589.3,340.5,586.6,340.5z"/>
</g>
<g id="XMLID_7_" class="st0">
	<linearGradient id="XMLID_30_" gradientUnits="userSpaceOnUse" x1="20" y1="221" x2="149.8107" y2="221">
		<stop  offset="0" style="stop-color:#9ECB3B"/>
		<stop  offset="1" style="stop-color:#0776BC"/>
	</linearGradient>
	<rect id="XMLID_10_" x="20" y="208" class="st6" width="129.8" height="26"/>
	<g id="XMLID_8_" class="st1">
		<linearGradient id="XMLID_31_" gradientUnits="userSpaceOnUse" x1="490.1893" y1="221" x2="620" y2="221">
			<stop  offset="0" style="stop-color:#9ECB3B"/>
			<stop  offset="1" style="stop-color:#0776BC"/>
		</linearGradient>
		<rect id="XMLID_9_" x="490.2" y="208" class="st7" width="129.8" height="26"/>
		
			<linearGradient id="XMLID_32_" gradientUnits="userSpaceOnUse" x1="105.0946" y1="606.0947" x2="234.9053" y2="606.0947" gradientTransform="matrix(4.489700e-011 -1 1 4.489700e-011 -51 391)">
			<stop  offset="0" style="stop-color:#9ECB3B"/>
			<stop  offset="1" style="stop-color:#0776BC"/>
		</linearGradient>
		<rect id="XMLID_11_" x="542.1" y="156.1" class="st8" width="26" height="129.8"/>
	</g>
	<g id="XMLID_12_" class="st1">
		<g id="XMLID_13_">
			<linearGradient id="XMLID_33_" gradientUnits="userSpaceOnUse" x1="394.5128" y1="113.445" x2="498.6013" y2="113.445">
				<stop  offset="0" style="stop-color:#9ECB3B"/>
				<stop  offset="1" style="stop-color:#0776BC"/>
			</linearGradient>
			<path id="XMLID_14_" class="st9" d="M396.8,163.2c3,3,7.8,3,10.8,0l88.8-88.8c3-3,3-7.8,0-10.8c-3-3-7.8-3-10.8,0l-88.8,88.8
				C393.8,155.4,393.8,160.3,396.8,163.2z"/>
			<linearGradient id="XMLID_34_" gradientUnits="userSpaceOnUse" x1="141.3987" y1="252.5361" x2="473.532" y2="252.5361">
				<stop  offset="0" style="stop-color:#9ECB3B"/>
				<stop  offset="1" style="stop-color:#0776BC"/>
			</linearGradient>
			<path id="XMLID_15_" class="st10" d="M473.5,230.4l-9.7-107.1L437,150.1c1.6,9.9-1.5,20.4-9.1,28.1c-12.7,12.7-33.3,12.7-46,0
				c-12.7-12.7-12.7-33.3,0-46c7.6-7.6,18.1-10.7,28.1-9.1l26.7-26.7l-107.1-9.7c-4.2-0.4-8.4,1.1-11.4,4.1L145.6,263.3
				c-5.6,5.6-5.6,14.6,0,20.1l38.4,38.4l19-19l54.1,54.1L238.1,376l38.4,38.4c5.6,5.6,14.6,5.6,20.1,0l172.7-172.7
				C472.3,238.8,473.9,234.6,473.5,230.4z"/>
		</g>
	</g>
</g>
<g id="XMLID_16_" class="st0">
	<g id="XMLID_17_" class="st1">
		<linearGradient id="SVGID_1_" gradientUnits="userSpaceOnUse" x1="81" y1="240" x2="559" y2="240">
			<stop  offset="0" style="stop-color:#9ECB3B"/>
			<stop  offset="1" style="stop-color:#0776BC"/>
		</linearGradient>
		<path class="st11" d="M527,120c-21.4-36.6-50.4-65.6-87-87C403.4,11.7,363.4,1,320,1c-43.4,0-83.4,10.7-120,32.1
			c-36.6,21.4-65.6,50.4-87,87C91.7,156.7,81,196.6,81,240c0,43.4,10.7,83.3,32.1,120c21.4,36.6,50.4,65.6,87,87
			c36.6,21.4,76.6,32.1,120,32.1s83.4-10.7,120-32.1c36.6-21.4,65.6-50.4,87-87c21.4-36.6,32-76.6,32-120
			C559,196.6,548.3,156.6,527,120z M466.6,325c-15.1,25.9-35.7,46.5-61.6,61.6c-25.9,15.1-54.3,22.7-85,22.7c-30.7,0-59-7.6-85-22.7
			c-25.9-15.1-46.5-35.7-61.6-61.6c-15.1-25.9-22.7-54.3-22.7-85c0-30.7,7.6-59,22.7-85c15.1-25.9,35.7-46.5,61.6-61.6
			c25.9-15.1,54.3-22.7,85-22.7c30.7,0,59,7.6,85,22.7c25.9,15.1,46.5,35.7,61.6,61.6c15.1,25.9,22.7,54.3,22.7,85
			C489.3,270.7,481.7,299,466.6,325z"/>
		<linearGradient id="XMLID_35_" gradientUnits="userSpaceOnUse" x1="240.3395" y1="200.1616" x2="359.8427" y2="200.1616">
			<stop  offset="0" style="stop-color:#9ECB3B"/>
			<stop  offset="1" style="stop-color:#0776BC"/>
		</linearGradient>
		<path id="XMLID_18_" class="st12" d="M349.9,120.5h-9.6H330c-2.9,0-5.3,0.9-7.2,2.8c-1.9,1.9-2.8,4.3-2.8,7.2V240h-69.7
			c-2.9,0-5.3,0.9-7.2,2.8c-1.9,1.9-2.8,4.3-2.8,7.2v19.9c0,2.9,0.9,5.3,2.8,7.2c1.9,1.9,4.3,2.8,7.2,2.8h99.6
			c2.9,0,5.3-0.9,7.2-2.8c1.9-1.9,2.8-4.3,2.8-7.2V130.5c0-2.9-0.9-5.3-2.8-7.2C355.2,121.4,352.8,120.5,349.9,120.5z"/>
	</g>
</g>
<g id="XMLID_21_" class="st0">
	<linearGradient id="XMLID_36_" gradientUnits="userSpaceOnUse" x1="82" y1="240" x2="558" y2="240">
		<stop  offset="0" style="stop-color:#9ECB3B"/>
		<stop  offset="1" style="stop-color:#0776BC"/>
	</linearGradient>
	<path id="XMLID_22_" class="st13" d="M526.7,98.1c19.5-26.2,31.2-53.3,31.3-72.7c0-6.3-1.3-11.2-3.7-14.8c-0.3-0.4-0.9-1.6-2.2-2.8
		c-1.2-1.2-2.3-1.8-2.5-2c-3.8-2.6-8.8-3.8-15.1-3.8c-19.4,0-46.5,11.7-72.7,31.3c-21.1,15.8-42.3,38.1-71.6,69
		c-5,5.2-10.2,10.7-15.7,16.5l-56.7-17l0.2-0.2c2.4-2.4,3.7-5.7,3.7-8.9c0-3.4-1.3-6.7-3.7-9l-10.2-10.3c-2.4-2.4-5.6-3.7-9-3.7
		c-3.4,0-6.6,1.3-9,3.7l-15.3,15.3l-8.1-2.4c1.7-2.2,2.7-5,2.7-7.7c0-3.4-1.3-6.7-3.7-9l-10.3-10.3c-2.3-2.4-5.6-3.7-9-3.7
		c-3.4,0-6.6,1.3-8.9,3.7l-14.1,14.1l-57.7-17.3c-1.3-0.4-2.7-0.6-4.1-0.6c-4.1,0-7.9,1.6-10.7,4.3l-20.3,20.3
		c-2.3,2.3-3.6,5.4-3.6,8.4c-0.1,4.3,2.3,8.4,6.2,10.4l121.2,67.7c0.6,0.3,2.3,1.6,2.9,2.2l34.6,34.6
		c-32.3,34.1-61.1,67.1-83.6,95.7c-2.1,2.7-4.1,5.3-6,7.8l-93.8-8.5c-0.5-0.1-1-0.1-1.6-0.1c-4.3,0.1-8.5,1.8-11.6,4.8l-9.5,9.4
		c-2.3,2.3-3.6,5.4-3.6,8.4c-0.1,4.6,2.7,8.8,6.8,10.6l66,31.3c0.6,0.3,2,1.3,2.5,1.8l5.5,5.4c-1.7,4.8-2.6,9-2.6,12.7
		c0,4.9,1.6,9.1,4.6,12.2l0.2,0.2l0.1,0c3.1,3,7.1,4.6,12.1,4.6c3.6-0.1,7.7-0.9,12.6-2.6l5.6,5.6c0.4,0.5,1.5,1.9,1.7,2.5
		l31.3,65.8c1.9,4.2,6,6.9,10.5,6.9h0.1c3.1,0,6.1-1.2,8.3-3.5l9.7-9.7c2.9-3,4.6-7.2,4.6-11.6c0-0.5,0-1,0-1.2l-8.5-94.1
		c2.6-1.9,5.2-3.9,7.8-6c28.7-22.5,61.7-51.3,95.7-83.6l34.6,34.6c0.6,0.5,1.9,2.3,2.3,3l67.6,121c2.1,3.9,6,6.3,10.4,6.3
		c3.1,0,6.1-1.2,8.4-3.6l20.4-20.4c2.6-2.8,4.1-6.5,4.2-10.6c0-1.4-0.2-2.7-0.6-4L486.7,337l14.1-14.1c2.4-2.3,3.7-5.6,3.7-9
		c0-3.4-1.3-6.5-3.7-9l-10.3-10.3c-2.4-2.4-5.6-3.7-9-3.7c-2.8,0-5.6,1-7.8,2.7l-2.4-8.1l15.3-15.3c2.4-2.4,3.7-5.6,3.7-9
		c0-3.4-1.3-6.6-3.7-8.9L476.3,242c-2.4-2.4-5.6-3.8-9-3.8c-3.4,0-6.7,1.4-9,3.7l-0.1,0.1l-17-56.7c5.9-5.6,11.4-10.9,16.8-15.9
		C488.7,140.3,510.9,119.2,526.7,98.1z"/>
</g>
<g>
	<linearGradient id="XMLID_37_" gradientUnits="userSpaceOnUse" x1="261.7754" y1="440.5688" x2="460.3252" y2="440.5688">
		<stop  offset="0" style="stop-color:#9ECB3B"/>
		<stop  offset="1" style="stop-color:#0776BC"/>
	</linearGradient>
	<path id="XMLID_24_" class="st14" d="M444.8,401.1H277.3c-8.6,0-15.5,6.9-15.5,15.5v47.8c0,8.6,6.9,15.5,15.5,15.5h167.5
		c8.6,0,15.5-6.9,15.5-15.5v-47.8C460.3,408.1,453.4,401.1,444.8,401.1z"/>
	<linearGradient id="XMLID_38_" gradientUnits="userSpaceOnUse" x1="149.2099" y1="186.6938" x2="490.7901" y2="186.6938">
		<stop  offset="0" style="stop-color:#9ECB3B"/>
		<stop  offset="1" style="stop-color:#0776BC"/>
	</linearGradient>
	<path id="XMLID_25_" class="st15" d="M470.7,82.5c-13.6-2.8-26.8,6-29.6,19.6l-11.9,58.5c-0.4,2.2-2.5,3.7-4.8,3.4
		c-2.2-0.3-3.8-2.3-3.6-4.6l9.1-106.5c1.3-15.2-10-28.5-25.1-29.8c-15.2-1.3-28.5,10-29.8,25.1l-7.7,90.7c-0.2,2.4-2.2,4.2-4.6,4.1
		c-2.4-0.1-4.3-2.1-4.3-4.4V27.6C358.3,12.3,346,0,330.8,0s-27.6,12.3-27.6,27.6v109.1c0,2-1.5,3.6-3.5,3.7
		c-1.9,0.1-3.6-1.3-3.9-3.2l-10.4-88.6c-1.8-15.1-15.5-25.9-30.6-24.2c-15.1,1.8-25.9,15.5-24.2,30.6l21.5,182.7
		c0.3,2.4-1,4.6-3.1,5.6c-2.1,1-4.7,0.5-6.3-1.2l-46.1-47.9c-10.6-11-28-11.3-39-0.7c-11,10.6-11.3,28-0.7,39l109.4,113.6
		c12.6,16.6,32.5,27.3,54.9,27.3h66.1c40.3,0,73-32.8,73-73c0-27.7,2.8-55.3,8.3-82.4l21.6-106C493,98.5,484.3,85.2,470.7,82.5z"/>
</g>
</svg>
