<?xml version="1.0" encoding="iso-8859-1"?>
<!-- Generator: Adobe Illustrator 19.0.0, SVG Export Plug-In . SVG Version: 6.00 Build 0)  -->
<svg version="1.1" id="Capa_1" xmlns="http://www.w3.org/2000/svg" xmlns:xlink="http://www.w3.org/1999/xlink" x="0px" y="0px"
	 viewBox="0 0 512 512" style="enable-background:new 0 0 512 512;" xml:space="preserve" width="20" height="20">
<g>
	<g>
		<path d="M150.946,0c-16.538,0-30,13.462-30,30s13.462,30,30,30c16.538,0,30-13.462,30-30S167.484,0,150.946,0z"/>
	</g>
</g>
<g>
	<g>
		<path d="M463.002,0.293l-150,30C306,31.699,300.946,37.852,300.946,45v15h-45V45c0-24.814-20.186-45-45-45
			c-2.631,0-5.149,0.698-7.712,1.161c4.763,8.597,7.712,18.333,7.712,28.839c0,27.881-19.193,51.163-45,57.87v37.026
			c-43.218,13.006-75,52.707-75,100.104v242c0,24.814,20.186,45,45,45h150c24.814,0,45-20.186,45-45v-75h-165
			c-8.291,0-15-6.709-15-15V255c0-8.291,6.709-15,15-15h165v-15c0-47.397-31.782-87.098-75-100.104V90h45v15
			c0,7.148,5.054,13.301,12.056,14.707l150,30c9.569,1.857,17.944-5.482,17.944-14.707V15
			C480.946,5.742,472.615-1.511,463.002,0.293z"/>
	</g>
</g>
<g>
	<g>
		<rect x="180.95" y="270" width="150" height="92"/>
	</g>
</g>
<g>
	<g>
		<path d="M100.116,61.523c-23.022,4.894-41.788,22.355-47.869,46.176l-20.7,83.701c-2.1,8.099,2.699,16.199,10.8,17.999
			C43.546,210,44.747,210,45.946,210c6.599,0,12.9-4.501,14.399-11.4l21-83.701C85.246,100.199,98.146,90,113.146,90h37.8
			C129.451,90,110.712,78.55,100.116,61.523z"/>
	</g>
</g>
<g>
</g>
<g>
</g>
<g>
</g>
<g>
</g>
<g>
</g>
<g>
</g>
<g>
</g>
<g>
</g>
<g>
</g>
<g>
</g>
<g>
</g>
<g>
</g>
<g>
</g>
<g>
</g>
<g>
</g>
</svg>
