<svg id="Layer_1" data-name="Layer 1" xmlns="http://www.w3.org/2000/svg" xmlns:xlink="http://www.w3.org/1999/xlink" viewBox="0 0 25 49" width="35" height="35"><defs><style>.cls-1{fill:url(#linear-gradient);}.cls-2{fill:#e6e6e6;}.cls-3{fill:#b3b3b3;}</style><linearGradient id="linear-gradient" x1="4.77" y1="13.87" x2="51.77" y2="13.87" gradientTransform="translate(26.65 -3.38) rotate(90.58)" gradientUnits="userSpaceOnUse"><stop offset="0" stop-color="#9e9e9e"/><stop offset="1" stop-color="#9e9e9e"/></linearGradient></defs><title>Artboard 1 copy 2</title><g id="_Rectangle_" data-name="&lt;Rectangle&gt;"><path class="cls-1" d="M5.26,48.18A4.51,4.51,0,0,1,.81,43.63l.38-38a4.51,4.51,0,0,1,4.5-4.45l14,.14a4.51,4.51,0,0,1,4.45,4.54l-.38,38a4.51,4.51,0,0,1-4.5,4.45Z"/><path class="cls-2" d="M5.69.68l0,1,14,.14a4,4,0,0,1,4,4l-.38,38a4,4,0,0,1-4,4l-14-.14a4,4,0,0,1-4-4l.38-38a4,4,0,0,1,4-4v-1m0,0a5,5,0,0,0-5,4.95l-.38,38a5,5,0,0,0,4.95,5l14,.14h.05a5,5,0,0,0,5-4.95l.38-38A5,5,0,0,0,19.74.82L5.74.68Z"/></g><g id="_Rectangle_2" data-name="&lt;Rectangle&gt;"><path class="cls-3" d="M7.65,45.12a1.29,1.29,0,0,1-1.28-1.3l0-1.83A1.3,1.3,0,0,1,7.68,40.7l9.3.09a1.29,1.29,0,0,1,1.28,1.3l0,1.83A1.3,1.3,0,0,1,17,45.21Z"/><path class="cls-2" d="M7.68,40.2v1L17,41.3a.79.79,0,0,1,.78.8l0,1.83a.8.8,0,0,1-.8.78l-9.29-.09a.8.8,0,0,1-.78-.8l0-1.83a.79.79,0,0,1,.79-.78v-1m0,0A1.8,1.8,0,0,0,5.89,42l0,1.83a1.8,1.8,0,0,0,1.77,1.81l9.29.09h0a1.8,1.8,0,0,0,1.79-1.77l0-1.83A1.8,1.8,0,0,0,17,40.3L7.7,40.2Z"/></g></svg>