<?xml version="1.0" encoding="utf-8"?>
<!-- Generator: Adobe Illustrator 19.0.0, SVG Export Plug-In . SVG Version: 6.00 Build 0)  -->
<svg version="1.1" id="Layer_1" xmlns="http://www.w3.org/2000/svg" xmlns:xlink="http://www.w3.org/1999/xlink" x="0px" y="0px"
	 viewBox="0 0 24 24" style="enable-background:new 0 0 24 24;" xml:space="preserve" width="25" height="25">
<style type="text/css">
	.st0{fill:#9E9E9E;}
	.st1{fill:#E6E6E6;}
</style>
<g id="XMLID_509_">
	<path id="XMLID_1147_" class="st0" d="M19,24h-8.2c-2.8,0-5-2.3-5-5V5c0-2.8,2.2-5,5-5H19c2.8,0,5,2.3,5,5v14
		C24,21.8,21.8,24,19,24z"/>
</g>
<g id="XMLID_503_">
	<path id="XMLID_1144_" class="st0" d="M5,20.5c-2.5,0-4.5-2-4.5-4.5V8c0-2.5,2-4.5,4.5-4.5h10.6c2.5,0,4.5,2,4.5,4.5v8
		c0,2.5-2,4.5-4.5,4.5H5z"/>
	<g id="XMLID_1140_">
		<path id="XMLID_1141_" class="st1" d="M15.6,4c2.2,0,4,1.8,4,4v8c0,2.2-1.8,4-4,4H5c-2.2,0-4-1.8-4-4V8c0-2.2,1.8-4,4-4H15.6
			 M15.6,3H5C2.3,3,0,5.3,0,8v8c0,2.8,2.3,5,5,5h10.6c2.8,0,5-2.3,5-5V8C20.6,5.3,18.3,3,15.6,3L15.6,3z"/>
	</g>
</g>
</svg>
