<svg id="Layer_1" data-name="Layer 1" xmlns="http://www.w3.org/2000/svg" viewBox="0 0 24 24" width="25" height="25"><defs><style>.cls-1{fill:#9e9e9e;}.cls-2{fill:#e6e6e6;}</style></defs><title>Artboard 5 copy 2</title><g id="_Rectangle_" data-name="&lt;Rectangle&gt;"><rect class="cls-1" x="3.29" y="2.9" width="18.17" height="24" rx="5" ry="5" transform="translate(-2.65 27.12) rotate(-89.42)"/></g><g id="_Rectangle_2" data-name="&lt;Rectangle&gt;"><path class="cls-1" d="M8.32,20a4.51,4.51,0,0,1-4.45-4.54L4,4.9A4.51,4.51,0,0,1,8.47.45l8,.08A4.51,4.51,0,0,1,21,5.07l-.11,10.58a4.51,4.51,0,0,1-4.5,4.45Z"/><path class="cls-2" d="M8.47-.05l0,1,8,.08a4,4,0,0,1,4,4l-.11,10.58a4,4,0,0,1-4,4l-8-.08a4,4,0,0,1-4-4L4.47,4.9a4,4,0,0,1,4-4v-1m0,0a5,5,0,0,0-5,4.95L3.36,15.48a5,5,0,0,0,4.95,5l8,.08h.05a5,5,0,0,0,5-4.95l.11-10.58A5,5,0,0,0,16.52,0l-8-.08Z"/></g></svg>