<svg id="Layer_1" data-name="Layer 1" xmlns="http://www.w3.org/2000/svg" xmlns:xlink="http://www.w3.org/1999/xlink" viewBox="0 0 24.63 49.25" width="35" height="35"><defs><style>.cls-1{fill:url(#linear-gradient);}.cls-2{fill:#ccc;}.cls-3{fill:#b3b3b3;}.cls-4{fill:#e6e6e6;}</style><linearGradient id="linear-gradient" x1="-7.06" y1="98.48" x2="39.94" y2="98.48" gradientTransform="translate(111.22 17.39) rotate(90.58)" gradientUnits="userSpaceOnUse"><stop offset="0" stop-color="#1a1a1a"/><stop offset="1" stop-color="#333"/></linearGradient></defs><title>Artboard 1</title><g id="_Rectangle_" data-name="&lt;Rectangle&gt;"><path class="cls-1" d="M5.42,48.68A4.51,4.51,0,0,1,1,44.13l.38-38a4.51,4.51,0,0,1,4.5-4.45l14,.14a4.51,4.51,0,0,1,4.45,4.54l-.38,38a4.51,4.51,0,0,1-4.5,4.46Z"/><path class="cls-2" d="M5.85,1.18l0,1,14,.14a4,4,0,0,1,4,4l-.38,38a4,4,0,0,1-4,4l-14-.14a4,4,0,0,1-4-4l.38-38a4,4,0,0,1,4-4v-1m0,0a5,5,0,0,0-5,4.95l-.38,38a5,5,0,0,0,4.95,5l14,.14h.05a5,5,0,0,0,5-4.95l.38-38a5,5,0,0,0-4.95-5.05l-14-.14Z"/></g><g id="_Rectangle_2" data-name="&lt;Rectangle&gt;"><path class="cls-3" d="M7.8,45.62a1.29,1.29,0,0,1-1.28-1.3l0-1.83A1.3,1.3,0,0,1,7.83,41.2l9.3.09a1.29,1.29,0,0,1,1.28,1.3l0,1.83a1.3,1.3,0,0,1-1.29,1.28Z"/><path class="cls-4" d="M7.83,40.7v1l9.29.09a.8.8,0,0,1,.78.8l0,1.83a.8.8,0,0,1-.8.78l-9.29-.09a.79.79,0,0,1-.78-.8l0-1.83a.79.79,0,0,1,.79-.78v-1m0,0A1.8,1.8,0,0,0,6,42.48l0,1.83A1.8,1.8,0,0,0,7.8,46.12l9.29.09h0a1.8,1.8,0,0,0,1.79-1.77l0-1.83a1.8,1.8,0,0,0-1.77-1.81L7.85,40.7Z"/></g></svg>