<svg id="Layer_1" data-name="Layer 1" xmlns="http://www.w3.org/2000/svg" xmlns:xlink="http://www.w3.org/1999/xlink" viewBox="0 0 24 24" width="25" height="25"><defs><style>.cls-1{fill:url(#linear-gradient);}.cls-2{fill:url(#linear-gradient-2);}.cls-3{fill:#ccc;}</style><linearGradient id="linear-gradient" x1="29.04" y1="-66.04" x2="47.21" y2="-66.04" gradientTransform="translate(50.13 -51.13) rotate(180)" gradientUnits="userSpaceOnUse"><stop offset="0" stop-color="#1a1a1a"/><stop offset="1" stop-color="#333"/></linearGradient><linearGradient id="linear-gradient-2" x1="23.71" y1="-66.04" x2="43.29" y2="-66.04" gradientTransform="translate(-53.65 -23.89) rotate(90.58)" xlink:href="#linear-gradient"/></defs><title>Artboard 5 copy 3</title><g id="_Rectangle_" data-name="&lt;Rectangle&gt;"><rect class="cls-1" x="2.92" y="2.9" width="18.17" height="24" rx="5" ry="5" transform="translate(-3.02 26.75) rotate(-89.42)"/></g><g id="_Rectangle_2" data-name="&lt;Rectangle&gt;"><path class="cls-2" d="M7.95,20a4.51,4.51,0,0,1-4.45-4.54L3.6,4.9A4.51,4.51,0,0,1,8.1.45l8,.08A4.51,4.51,0,0,1,20.6,5.07l-.11,10.58A4.51,4.51,0,0,1,16,20.11Z"/><path class="cls-3" d="M8.1-.05l0,1,8,.08a4,4,0,0,1,4,4L20,15.65a4,4,0,0,1-4,4l-8-.08a4,4,0,0,1-4-4L4.1,4.9a4,4,0,0,1,4-4v-1m0,0a5,5,0,0,0-5,4.95L3,15.48a5,5,0,0,0,4.95,5l8,.08H16a5,5,0,0,0,5-4.95L21.1,5.08a5,5,0,0,0-4.95-5l-8-.08Z"/></g></svg>