<svg id="Layer_1" data-name="Layer 1" xmlns="http://www.w3.org/2000/svg" xmlns:xlink="http://www.w3.org/1999/xlink" viewBox="0 0 25 49.25" width="35" height="35"><defs><style>.cls-1{fill:url(#linear-gradient);}.cls-2{fill:#e6e6e6;}.cls-3{fill:#b3b3b3;}</style><linearGradient id="linear-gradient" x1="-46.96" y1="66.74" x2="0.04" y2="66.74" gradientTransform="translate(78.9 49.39) rotate(90.58)" gradientUnits="userSpaceOnUse"><stop offset="0" stop-color="#ffb6c1"/><stop offset="1" stop-color="#ff68c1"/></linearGradient></defs><title>Artboard 1 copy</title><g id="_Rectangle_" data-name="&lt;Rectangle&gt;"><path class="cls-1" d="M5.16,48.69A4.51,4.51,0,0,1,.71,44.14l.38-38a4.51,4.51,0,0,1,4.5-4.45l14,.14a4.51,4.51,0,0,1,4.46,4.54l-.38,38a4.51,4.51,0,0,1-4.5,4.45Z"/><path class="cls-2" d="M5.59,1.19l0,1,14,.14a4,4,0,0,1,4,4l-.38,38a4,4,0,0,1-4,4l-14-.14a4,4,0,0,1-4-4l.38-38a4,4,0,0,1,4-4v-1m0,0a5,5,0,0,0-5,4.95l-.38,38a5,5,0,0,0,4.95,5.05l14,.14h.05a5,5,0,0,0,5-4.95l.38-38a5,5,0,0,0-4.95-5.05l-14-.14Z"/></g><g id="_Rectangle_2" data-name="&lt;Rectangle&gt;"><path class="cls-3" d="M7.55,46.63a1.29,1.29,0,0,1-1.28-1.3l0-1.83a1.3,1.3,0,0,1,1.29-1.28l9.3.09a1.3,1.3,0,0,1,1.28,1.3l0,1.83a1.3,1.3,0,0,1-1.29,1.28Z"/><path class="cls-2" d="M7.58,41.71v1l9.29.09a.79.79,0,0,1,.78.8l0,1.83a.8.8,0,0,1-.8.78l-9.29-.09a.8.8,0,0,1-.78-.8l0-1.83a.79.79,0,0,1,.79-.78v-1m0,0a1.8,1.8,0,0,0-1.79,1.77l0,1.83a1.8,1.8,0,0,0,1.77,1.81l9.29.09h0a1.8,1.8,0,0,0,1.79-1.77l0-1.83a1.8,1.8,0,0,0-1.77-1.81L7.6,41.71Z"/></g></svg>