<svg id="Layer_1" data-name="Layer 1" xmlns="http://www.w3.org/2000/svg" xmlns:xlink="http://www.w3.org/1999/xlink" viewBox="0 0 24 24" width="25" height="25"><defs><style>.cls-1{fill:url(#linear-gradient);}.cls-2{fill:url(#linear-gradient-2);}.cls-3{fill:#e6e6e6;}</style><linearGradient id="linear-gradient" x1="-37.96" y1="0.91" x2="-19.79" y2="0.91" gradientTransform="translate(-16.14 15.81) rotate(180)" gradientUnits="userSpaceOnUse"><stop offset="0" stop-color="#ffb6c1"/><stop offset="1" stop-color="#ff68c1"/></linearGradient><linearGradient id="linear-gradient-2" x1="-43.29" y1="0.91" x2="-23.71" y2="0.91" gradientTransform="translate(13.35 43.79) rotate(90.58)" xlink:href="#linear-gradient"/></defs><title>Artboard 5 copy</title><g id="_Rectangle_" data-name="&lt;Rectangle&gt;"><rect class="cls-1" x="3.65" y="2.9" width="18.17" height="24" rx="5" ry="5" transform="translate(-2.3 27.48) rotate(-89.42)"/></g><g id="_Rectangle_2" data-name="&lt;Rectangle&gt;"><path class="cls-2" d="M8.68,20a4.51,4.51,0,0,1-4.45-4.54L4.33,4.9A4.51,4.51,0,0,1,8.83.45l8,.08a4.51,4.51,0,0,1,4.45,4.54l-.11,10.58a4.51,4.51,0,0,1-4.5,4.45Z"/><path class="cls-3" d="M8.83-.05l0,1,8,.08a4,4,0,0,1,4,4l-.11,10.58a4,4,0,0,1-4,4l-8-.08a4,4,0,0,1-4-4L4.83,4.9a4,4,0,0,1,4-4v-1m0,0a5,5,0,0,0-5,4.95L3.73,15.48a5,5,0,0,0,4.95,5.05l8,.08h.05a5,5,0,0,0,5-4.95l.11-10.58a5,5,0,0,0-4.95-5l-8-.08Z"/></g></svg>