<svg id="Layer_1" data-name="Layer 1" xmlns="http://www.w3.org/2000/svg" xmlns:xlink="http://www.w3.org/1999/xlink" viewBox="0 0 35 17.5"><defs><style>.cls-1{fill:url(#linear-gradient);}.cls-2{fill:#e6e6e6;}.cls-3{fill:#b3b3b3;}</style><linearGradient id="linear-gradient" x1="0.5" y1="14.25" x2="47.5" y2="14.25" gradientTransform="matrix(0.73, 0, 0, -0.73, 0, 19.14)" gradientUnits="userSpaceOnUse"><stop offset="0" stop-color="#ffb6c1"/><stop offset="1" stop-color="#ff68c1"/></linearGradient></defs><title>lady_sleeper_1</title><g id="_Group_" data-name="&lt;Group&gt;"><path id="_Path_" data-name="&lt;Path&gt;" class="cls-1" d="M3.65,17.14A3.27,3.27,0,0,1,.36,13.85V3.65A3.27,3.27,0,0,1,3.65.36H31.35a3.27,3.27,0,0,1,3.28,3.28V13.85a3.27,3.27,0,0,1-3.28,3.28Z"/><path id="_Compound_Path_" data-name="&lt;Compound Path&gt;" class="cls-2" d="M31.35.73a2.93,2.93,0,0,1,2.92,2.92V13.85a2.93,2.93,0,0,1-2.92,2.92H3.65A2.93,2.93,0,0,1,.73,13.85V3.65A2.93,2.93,0,0,1,3.65.73H31.35m0-.73H3.65A3.7,3.7,0,0,0,0,3.65V13.85A3.66,3.66,0,0,0,3.65,17.5H31.35A3.66,3.66,0,0,0,35,13.85V3.65A3.66,3.66,0,0,0,31.35,0Z"/></g><g id="_Group_2" data-name="&lt;Group&gt;"><path id="_Path_2" data-name="&lt;Path&gt;" class="cls-3" d="M30.11,13.05a1,1,0,0,1-.95-.95V5.4a1,1,0,0,1,.95-.95h1.31a1,1,0,0,1,.95.95v6.78a1,1,0,0,1-.95.95H30.11Z"/><g id="_Group_3" data-name="&lt;Group&gt;"><path id="_Compound_Path_2" data-name="&lt;Compound Path&gt;" class="cls-2" d="M31.43,4.81A.63.63,0,0,1,32,5.4v6.78a.63.63,0,0,1-.58.58H30.11a.63.63,0,0,1-.58-.58V5.4a.63.63,0,0,1,.58-.58h1.31m0-.73H30.11A1.31,1.31,0,0,0,28.8,5.4v6.78a1.31,1.31,0,0,0,1.31,1.31h1.31a1.31,1.31,0,0,0,1.31-1.31V5.4a1.31,1.31,0,0,0-1.31-1.31Z"/></g></g></svg>