<svg id="Layer_1" data-name="Layer 1" xmlns="http://www.w3.org/2000/svg" xmlns:xlink="http://www.w3.org/1999/xlink" viewBox="0 0 24 24" width="25" height="25"><defs><style>.cls-1{fill:url(#linear-gradient);}.cls-2{fill:url(#linear-gradient-2);}.cls-3{fill:#e6e6e6;}</style><linearGradient id="linear-gradient" x1="-71.95" y1="35.93" x2="-53.78" y2="35.93" gradientTransform="translate(-50.82 50.83) rotate(180)" gradientUnits="userSpaceOnUse"><stop offset="0" stop-color="#59c43b"/><stop offset="1" stop-color="#59c495"/></linearGradient><linearGradient id="linear-gradient-2" x1="-77.28" y1="35.93" x2="-57.7" y2="35.93" gradientTransform="translate(47.35 78.13) rotate(90.58)" xlink:href="#linear-gradient"/></defs><title>Artboard 5</title><g id="_Rectangle_" data-name="&lt;Rectangle&gt;"><rect class="cls-1" x="2.96" y="2.9" width="18.17" height="24" rx="5" ry="5" transform="translate(-2.98 26.8) rotate(-89.42)"/></g><g id="_Rectangle_2" data-name="&lt;Rectangle&gt;"><path class="cls-2" d="M8,20a4.51,4.51,0,0,1-4.45-4.55L3.65,4.9A4.51,4.51,0,0,1,8.15.45l8,.08a4.51,4.51,0,0,1,4.45,4.54l-.11,10.58A4.51,4.51,0,0,1,16,20.11Z"/><path class="cls-3" d="M8.15-.05l0,1,8,.08a4,4,0,0,1,4,4L20,15.65a4,4,0,0,1-4,4l-8-.08a4,4,0,0,1-4-4L4.15,4.9a4,4,0,0,1,4-4v-1m0,0a5,5,0,0,0-5,4.95L3,15.48a5,5,0,0,0,4.95,5l8,.08H16a5,5,0,0,0,5-4.95l.11-10.58A5,5,0,0,0,16.2,0l-8-.08Z"/></g></svg>