<svg id="Layer_1" data-name="Layer 1" xmlns="http://www.w3.org/2000/svg" xmlns:xlink="http://www.w3.org/1999/xlink" viewBox="0 0 24.63 48.01" width="35" height="35"><defs><style>.cls-1{fill:url(#linear-gradient);}.cls-2{fill:#e6e6e6;}.cls-3{fill:#b3b3b3;}</style><linearGradient id="linear-gradient" x1="37.34" y1="44.99" x2="84.34" y2="44.99" gradientTransform="translate(57.98 -36.38) rotate(90.58)" gradientUnits="userSpaceOnUse"><stop offset="0" stop-color="#59c43b"/><stop offset="1" stop-color="#59c495"/></linearGradient></defs><title>Artboard 1 copy 3</title><g id="_Rectangle_" data-name="&lt;Rectangle&gt;"><path class="cls-1" d="M5.15,47.43A4.51,4.51,0,0,1,.7,42.89l.38-38A4.51,4.51,0,0,1,5.58.43l14,.14a4.51,4.51,0,0,1,4.45,4.54l-.38,38a4.51,4.51,0,0,1-4.5,4.45Z"/><path class="cls-2" d="M5.58-.07l0,1,14,.14a4,4,0,0,1,4,4l-.38,38a4,4,0,0,1-4,4l-14-.14a4,4,0,0,1-4-4l.38-38a4,4,0,0,1,4-4v-1m0,0a5,5,0,0,0-5,4.95l-.38,38a5,5,0,0,0,4.95,5.05l14,.14h.05a5,5,0,0,0,5-4.95l.38-38A5,5,0,0,0,19.63.07l-14-.14Z"/></g><g id="_Rectangle_2" data-name="&lt;Rectangle&gt;"><path class="cls-3" d="M7.54,45.37a1.29,1.29,0,0,1-1.28-1.3l0-1.83A1.3,1.3,0,0,1,7.57,41l9.3.09a1.29,1.29,0,0,1,1.28,1.3l0,1.83a1.29,1.29,0,0,1-1.29,1.28Z"/><path class="cls-2" d="M7.57,40.46v1l9.29.09a.79.79,0,0,1,.78.8l0,1.83a.8.8,0,0,1-.8.78l-9.29-.09a.8.8,0,0,1-.78-.8l0-1.83a.79.79,0,0,1,.79-.78v-1m0,0a1.8,1.8,0,0,0-1.79,1.77l0,1.83a1.8,1.8,0,0,0,1.77,1.81l9.29.09h0a1.8,1.8,0,0,0,1.79-1.77l0-1.83a1.8,1.8,0,0,0-1.77-1.81l-9.29-.09Z"/></g></svg>