<svg id="Layer_1" data-name="Layer 1" xmlns="http://www.w3.org/2000/svg" xmlns:xlink="http://www.w3.org/1999/xlink" viewBox="0 0 125.68 79.15"><defs><style>.cls-1{fill:url(#linear-gradient);}.cls-2{fill:url(#linear-gradient-2);}.cls-3{fill:#e6e6e6;}.cls-4{fill:url(#linear-gradient-3);}.cls-5{fill:#9e9e9e;}.cls-6{fill:url(#linear-gradient-4);}.cls-7{fill:url(#linear-gradient-5);}.cls-8{fill:#ccc;}.cls-9{fill:url(#linear-gradient-6);}.cls-10{fill:url(#linear-gradient-7);}.cls-11{fill:#b3b3b3;}.cls-12{fill:url(#linear-gradient-8);}.cls-13{fill:url(#linear-gradient-9);}.cls-14{fill:url(#linear-gradient-10);}</style><linearGradient id="linear-gradient" x1="59.83" y1="12" x2="78" y2="12" gradientTransform="translate(158.11 104.92) rotate(180)" gradientUnits="userSpaceOnUse"><stop offset="0" stop-color="#ffb6c1"/><stop offset="1" stop-color="#ff68c1"/></linearGradient><linearGradient id="linear-gradient-2" x1="0.5" x2="47.5" gradientTransform="translate(101.89 24.13) rotate(90.58)" xlink:href="#linear-gradient"/><linearGradient id="linear-gradient-3" x1="54.5" x2="74.08" gradientTransform="translate(101.89 24.13) rotate(90.58)" xlink:href="#linear-gradient"/><linearGradient id="linear-gradient-4" x1="59.83" y1="79" x2="78" y2="79" gradientTransform="translate(91.12 171.25) rotate(180)" gradientUnits="userSpaceOnUse"><stop offset="0" stop-color="#1a1a1a"/><stop offset="1" stop-color="#333"/></linearGradient><linearGradient id="linear-gradient-5" x1="54.5" x2="74.08" gradientTransform="translate(101.89 24.13) rotate(90.58)" xlink:href="#linear-gradient-4"/><linearGradient id="linear-gradient-6" x1="59.83" y1="113" x2="78" y2="113" gradientTransform="translate(57.12 204.91) rotate(180)" gradientUnits="userSpaceOnUse"><stop offset="0" stop-color="#59c43b"/><stop offset="1" stop-color="#59c495"/></linearGradient><linearGradient id="linear-gradient-7" x1="54.5" x2="74.08" gradientTransform="translate(101.89 24.13) rotate(90.58)" xlink:href="#linear-gradient-6"/><linearGradient id="linear-gradient-8" x1="0.5" y1="46" x2="47.5" y2="46" gradientTransform="translate(101.89 24.13) rotate(90.58)" gradientUnits="userSpaceOnUse"><stop offset="0" stop-color="#9e9e9e"/><stop offset="1" stop-color="#9e9e9e"/></linearGradient><linearGradient id="linear-gradient-9" x1="8.09" x2="55.09" gradientTransform="translate(101.89 24.13) rotate(90.58)" xlink:href="#linear-gradient-4"/><linearGradient id="linear-gradient-10" x1="0.5" x2="47.5" gradientTransform="translate(101.89 24.13) rotate(90.58)" xlink:href="#linear-gradient-6"/></defs><title>selected</title><g id="_Rectangle_" data-name="&lt;Rectangle&gt;"><rect class="cls-1" x="80.11" y="80.92" width="18.17" height="24" rx="5" ry="5" transform="translate(19.22 158.26) rotate(-89.42)"/></g><g id="_Rectangle_2" data-name="&lt;Rectangle&gt;"><path class="cls-2" d="M82.41,71.44A4.51,4.51,0,0,1,78,66.89l.38-38a4.51,4.51,0,0,1,4.5-4.45l14,.14a4.51,4.51,0,0,1,4.46,4.54l-.38,38a4.51,4.51,0,0,1-4.5,4.45Z" transform="translate(23.84 -22.92)"/><path class="cls-3" d="M82.84,23.94l0,1,14,.14a4,4,0,0,1,4,4l-.38,38a4,4,0,0,1-4,4l-14-.14a4,4,0,0,1-4-4l.38-38a4,4,0,0,1,4-4v-1m0,0a5,5,0,0,0-5,4.95l-.38,38a5,5,0,0,0,4.95,5.05l14,.14h.05a5,5,0,0,0,5-4.95l.38-38a5,5,0,0,0-4.95-5.05l-14-.14Z" transform="translate(23.84 -22.92)"/></g><g id="_Rectangle_3" data-name="&lt;Rectangle&gt;"><path class="cls-4" d="M85.14,98a4.51,4.51,0,0,1-4.45-4.54l.11-10.58a4.51,4.51,0,0,1,4.5-4.45l8,.08a4.51,4.51,0,0,1,4.45,4.54l-.11,10.58a4.51,4.51,0,0,1-4.5,4.45Z" transform="translate(23.84 -22.92)"/><path class="cls-3" d="M85.3,78l0,1,8,.08a4,4,0,0,1,4,4l-.11,10.58a4,4,0,0,1-4,4l-8-.08a4,4,0,0,1-4-4l.11-10.58a4,4,0,0,1,4-4V78m0,0a5,5,0,0,0-5,4.95L80.19,93.5a5,5,0,0,0,4.95,5.05l8,.08h.05a5,5,0,0,0,5-4.95L98.3,83.1a5,5,0,0,0-4.95-5l-8-.08Z" transform="translate(23.84 -22.92)"/></g><g id="_Rectangle_4" data-name="&lt;Rectangle&gt;"><rect class="cls-5" x="46.12" y="80.58" width="18.17" height="24" rx="5" ry="5" transform="translate(-14.09 123.92) rotate(-89.42)"/></g><g id="_Rectangle_5" data-name="&lt;Rectangle&gt;"><path class="cls-5" d="M51.15,97.71a4.51,4.51,0,0,1-4.45-4.54l.11-10.58a4.51,4.51,0,0,1,4.5-4.45l8,.08a4.51,4.51,0,0,1,4.45,4.54l-.11,10.58a4.51,4.51,0,0,1-4.5,4.45Z" transform="translate(23.84 -22.92)"/><path class="cls-3" d="M51.3,77.62l0,1,8,.08a4,4,0,0,1,4,4l-.11,10.58a4,4,0,0,1-4,4l-8-.08a4,4,0,0,1-4-4l.11-10.58a4,4,0,0,1,4-4v-1m0,0a5,5,0,0,0-5,4.95l-.11,10.58a5,5,0,0,0,4.95,5l8,.08h.05a5,5,0,0,0,5-4.95l.11-10.58a5,5,0,0,0-4.95-5.05l-8-.08Z" transform="translate(23.84 -22.92)"/></g><g id="_Rectangle_6" data-name="&lt;Rectangle&gt;"><rect class="cls-6" x="13.12" y="80.25" width="18.17" height="24" rx="5" ry="5" transform="translate(-46.43 90.6) rotate(-89.42)"/></g><g id="_Rectangle_7" data-name="&lt;Rectangle&gt;"><path class="cls-7" d="M18.15,97.38a4.51,4.51,0,0,1-4.45-4.54l.11-10.58a4.51,4.51,0,0,1,4.5-4.46l8,.08a4.51,4.51,0,0,1,4.45,4.54L30.69,93a4.51,4.51,0,0,1-4.5,4.45Z" transform="translate(23.84 -22.92)"/><path class="cls-8" d="M18.3,77.29l0,1,8,.08a4,4,0,0,1,4,4L30.19,93a4,4,0,0,1-4,4l-8-.08a4,4,0,0,1-4-4l.11-10.58a4,4,0,0,1,4-4v-1m0,0a5,5,0,0,0-5,4.95l-.11,10.58a5,5,0,0,0,4.95,5l8,.08h.05a5,5,0,0,0,5-4.95l.11-10.58a5,5,0,0,0-4.95-5l-8-.08Z" transform="translate(23.84 -22.92)"/></g><g id="_Rectangle_8" data-name="&lt;Rectangle&gt;"><rect class="cls-9" x="-20.88" y="79.91" width="18.17" height="24" rx="5" ry="5" transform="translate(-79.74 56.26) rotate(-89.42)"/></g><g id="_Rectangle_9" data-name="&lt;Rectangle&gt;"><path class="cls-10" d="M-15.85,97a4.51,4.51,0,0,1-4.45-4.55l.11-10.58a4.51,4.51,0,0,1,4.5-4.46l8,.08a4.47,4.47,0,0,1,3.16,1.35A4.47,4.47,0,0,1-3.2,82.08l-.11,10.58a4.51,4.51,0,0,1-4.5,4.45Z" transform="translate(23.84 -22.92)"/><path class="cls-3" d="M-15.7,77l0,1,8,.08a4,4,0,0,1,4,4l-.11,10.58a4,4,0,0,1-4,4l-8-.08a4,4,0,0,1-2.81-1.2,4,4,0,0,1-1.15-2.84l.11-10.58a4,4,0,0,1,4-4V77m0,0a5,5,0,0,0-5,4.95l-.11,10.58a5,5,0,0,0,4.95,5l8,.08h.05a5,5,0,0,0,5-4.95l.11-10.58A5,5,0,0,0-7.65,77l-8-.08Z" transform="translate(23.84 -22.92)"/></g><g id="_Rectangle_10" data-name="&lt;Rectangle&gt;"><path class="cls-11" d="M84.8,68.38a1.29,1.29,0,0,1-1.28-1.3l0-1.83A1.3,1.3,0,0,1,84.83,64l9.3.09a1.3,1.3,0,0,1,1.28,1.3l0,1.83a1.3,1.3,0,0,1-1.29,1.28Z" transform="translate(23.84 -22.92)"/><path class="cls-3" d="M84.83,63.46v1l9.29.09a.79.79,0,0,1,.78.8l0,1.83a.8.8,0,0,1-.8.78l-9.29-.09a.8.8,0,0,1-.78-.8l0-1.83a.79.79,0,0,1,.79-.78v-1m0,0A1.8,1.8,0,0,0,83,65.23l0,1.83a1.8,1.8,0,0,0,1.77,1.81l9.29.09h0a1.8,1.8,0,0,0,1.79-1.77l0-1.83a1.8,1.8,0,0,0-1.77-1.81l-9.29-.09Z" transform="translate(23.84 -22.92)"/></g><g id="_Rectangle_11" data-name="&lt;Rectangle&gt;"><path class="cls-12" d="M48.41,71.09A4.51,4.51,0,0,1,44,66.55l.38-38a4.51,4.51,0,0,1,4.5-4.45l14,.14a4.51,4.51,0,0,1,4.45,4.54l-.38,38a4.51,4.51,0,0,1-4.5,4.45Z" transform="translate(23.84 -22.92)"/><path class="cls-3" d="M48.84,23.6l0,1,14,.14a4,4,0,0,1,4,4l-.38,38a4,4,0,0,1-4,4l-14-.14a4,4,0,0,1-4-4l.38-38a4,4,0,0,1,4-4v-1m0,0a5,5,0,0,0-5,4.95l-.38,38a5,5,0,0,0,4.95,5l14,.14h.05a5,5,0,0,0,5-4.95l.38-38a5,5,0,0,0-4.95-5.05l-14-.14Z" transform="translate(23.84 -22.92)"/></g><g id="_Rectangle_12" data-name="&lt;Rectangle&gt;"><path class="cls-11" d="M50.8,68a1.29,1.29,0,0,1-1.28-1.3l0-1.83a1.3,1.3,0,0,1,1.29-1.28l9.3.09A1.29,1.29,0,0,1,61.41,65l0,1.83a1.3,1.3,0,0,1-1.29,1.28Z" transform="translate(23.84 -22.92)"/><path class="cls-3" d="M50.83,63.12v1l9.29.09a.79.79,0,0,1,.78.8l0,1.83a.8.8,0,0,1-.8.78l-9.29-.09a.8.8,0,0,1-.78-.8l0-1.83a.79.79,0,0,1,.79-.78v-1m0,0A1.8,1.8,0,0,0,49,64.89l0,1.83a1.8,1.8,0,0,0,1.77,1.81l9.29.09h0a1.8,1.8,0,0,0,1.79-1.77l0-1.83a1.8,1.8,0,0,0-1.77-1.81l-9.29-.09Z" transform="translate(23.84 -22.92)"/></g><g id="_Rectangle_13" data-name="&lt;Rectangle&gt;"><path class="cls-13" d="M15.42,70.76A4.51,4.51,0,0,1,11,66.22l.38-38a4.51,4.51,0,0,1,4.5-4.45l14,.14a4.51,4.51,0,0,1,4.45,4.54l-.38,38a4.51,4.51,0,0,1-4.5,4.46Z" transform="translate(23.84 -22.92)"/><path class="cls-8" d="M15.85,23.27l0,1,14,.14a4,4,0,0,1,4,4l-.38,38a4,4,0,0,1-4,4l-14-.14a4,4,0,0,1-4-4l.38-38a4,4,0,0,1,4-4v-1m0,0a5,5,0,0,0-5,4.95l-.38,38a5,5,0,0,0,4.95,5l14,.14h.05a5,5,0,0,0,5-4.95l.38-38a5,5,0,0,0-4.95-5.05l-14-.14Z" transform="translate(23.84 -22.92)"/></g><g id="_Rectangle_14" data-name="&lt;Rectangle&gt;"><path class="cls-11" d="M17.8,67.7a1.29,1.29,0,0,1-1.28-1.3l0-1.83a1.3,1.3,0,0,1,1.29-1.28l9.3.09a1.29,1.29,0,0,1,1.28,1.3l0,1.83A1.3,1.3,0,0,1,27.1,67.8Z" transform="translate(23.84 -22.92)"/><path class="cls-3" d="M17.83,62.79v1l9.29.09a.8.8,0,0,1,.78.8l0,1.83a.8.8,0,0,1-.8.78l-9.29-.09a.79.79,0,0,1-.78-.8l0-1.83a.79.79,0,0,1,.79-.78v-1m0,0A1.8,1.8,0,0,0,16,64.56l0,1.83A1.8,1.8,0,0,0,17.8,68.2l9.29.09h0a1.8,1.8,0,0,0,1.79-1.77l0-1.83a1.8,1.8,0,0,0-1.77-1.81l-9.29-.09Z" transform="translate(23.84 -22.92)"/></g><g id="_Rectangle_15" data-name="&lt;Rectangle&gt;"><path class="cls-14" d="M-18.58,70.42A4.51,4.51,0,0,1-23,65.88l.38-38a4.51,4.51,0,0,1,4.5-4.45l14,.14A4.51,4.51,0,0,1,.34,28.11L0,66.11a4.51,4.51,0,0,1-4.5,4.45Z" transform="translate(23.84 -22.92)"/><path class="cls-3" d="M-18.15,22.92l0,1,14,.14a4,4,0,0,1,2.81,1.2A4,4,0,0,1-.16,28.1l-.38,38a4,4,0,0,1-4,4l-14-.14a4,4,0,0,1-4-4l.38-38a4,4,0,0,1,4-4v-1m0,0a5,5,0,0,0-5,4.95l-.38,38a5,5,0,0,0,4.95,5l14,.14h.05a5,5,0,0,0,5-4.95l.38-38a5,5,0,0,0-4.95-5.05l-14-.14Z" transform="translate(23.84 -22.92)"/></g><g id="_Rectangle_16" data-name="&lt;Rectangle&gt;"><path class="cls-11" d="M-16.2,67.36a1.29,1.29,0,0,1-1.28-1.3l0-1.83a1.3,1.3,0,0,1,1.29-1.28l9.3.09a1.28,1.28,0,0,1,.91.39,1.28,1.28,0,0,1,.37.92l0,1.83a1.29,1.29,0,0,1-1.29,1.28Z" transform="translate(23.84 -22.92)"/><path class="cls-3" d="M-16.17,62.45v1l9.29.09a.79.79,0,0,1,.78.8l0,1.83a.8.8,0,0,1-.8.78l-9.29-.09a.79.79,0,0,1-.56-.24.79.79,0,0,1-.23-.56l0-1.83a.79.79,0,0,1,.79-.78v-1m0,0A1.8,1.8,0,0,0-18,64.22l0,1.83a1.8,1.8,0,0,0,1.77,1.81l9.29.09h0A1.8,1.8,0,0,0-5.1,66.18l0-1.83a1.8,1.8,0,0,0-1.77-1.81l-9.29-.09Z" transform="translate(23.84 -22.92)"/></g></svg>