<?xml version="1.0" encoding="utf-8"?>
<!-- Generator: Adobe Illustrator 19.0.0, SVG Export Plug-In . SVG Version: 6.00 Build 0)  -->
<svg version="1.1" id="Layer_1" xmlns="http://www.w3.org/2000/svg" xmlns:xlink="http://www.w3.org/1999/xlink" x="0px" y="0px"
	 viewBox="0 0 48 24" style="enable-background:new 0 0 48 24;" xml:space="preserve" width="35px" height="35px">
<style type="text/css">
	.st0{fill:url(#XMLID_2_);}
	.st1{fill:#E6E6E6;}
	.st2{fill:#B3B3B3;}
</style>
<g id="XMLID_656_">
	<linearGradient id="XMLID_2_" gradientUnits="userSpaceOnUse" x1="0.5" y1="12" x2="47.5" y2="12">
		<stop  offset="0" style="stop-color:#59C43B"/>
		<stop  offset="1" style="stop-color:#59C495"/>
	</linearGradient>
	<path id="XMLID_1191_" class="st0" d="M5,23.5c-2.5,0-4.5-2-4.5-4.5V5c0-2.5,2-4.5,4.5-4.5h38c2.5,0,4.5,2,4.5,4.5v14
		c0,2.5-2,4.5-4.5,4.5H5z"/>
	<path id="XMLID_1188_" class="st1" d="M43,1c2.2,0,4,1.8,4,4v14c0,2.2-1.8,4-4,4H5c-2.2,0-4-1.8-4-4V5c0-2.2,1.8-4,4-4H43 M43,0H5
		C2.3,0,0,2.3,0,5v14c0,2.8,2.3,5,5,5h38c2.8,0,5-2.3,5-5V5C48,2.3,45.8,0,43,0L43,0z"/>
</g>
<g id="XMLID_650_">
	<path id="XMLID_655_" class="st2" d="M41.3,17.9c-0.7,0-1.3-0.6-1.3-1.3V7.4c0-0.7,0.6-1.3,1.3-1.3h1.8c0.7,0,1.3,0.6,1.3,1.3v9.3
		c0,0.7-0.6,1.3-1.3,1.3H41.3z"/>
	<path id="XMLID_652_" class="st1" d="M43.1,6.6c0.4,0,0.8,0.4,0.8,0.8v9.3c0,0.4-0.4,0.8-0.8,0.8h-1.8c-0.4,0-0.8-0.4-0.8-0.8V7.4
		c0-0.4,0.4-0.8,0.8-0.8H43.1 M43.1,5.6h-1.8c-1,0-1.8,0.8-1.8,1.8v9.3c0,1,0.8,1.8,1.8,1.8h1.8c1,0,1.8-0.8,1.8-1.8V7.4
		C44.9,6.4,44.1,5.6,43.1,5.6L43.1,5.6z"/>
</g>
</svg>
