<?xml version="1.0" encoding="utf-8"?>
<!-- Generator: Adobe Illustrator 19.0.0, SVG Export Plug-In . SVG Version: 6.00 Build 0)  -->
<svg version="1.1" id="Layer_1" xmlns="http://www.w3.org/2000/svg" xmlns:xlink="http://www.w3.org/1999/xlink" x="0px" y="0px"
	 viewBox="0 0 48 48" style="enable-background:new 0 0 48 48;" xml:space="preserve" width="40" height="40">
<style type="text/css">
	.st0{fill:#CCCCCC;}
</style>
<g id="XMLID_1_">
	<path id="XMLID_41_" class="st0" d="M0.3,25.4c0-1,0-1.9,0-2.9c0-0.1,0.1-0.2,0.1-0.3c0.2-2.9,0.9-5.7,2.2-8.3
		c3.7-7.5,9.7-12,18-13.4c0.7-0.1,1.4-0.2,2.1-0.3c0.9,0,1.8,0,2.7,0c0.2,0,0.3,0.1,0.5,0.1c3,0.2,5.9,1,8.6,2.3
		C45.7,8.2,50.7,21.2,46,32.9c-3.9,9.7-14,15.8-24.4,14.8c-3.9-0.4-7.4-1.6-10.7-3.8c-5.7-3.8-9.1-9-10.4-15.8
		C0.5,27.2,0.4,26.3,0.3,25.4z M29.9,21.6c4.1-2.3,8.3-4.6,12.4-6.8C38.9,7.8,31.6,3.1,23.1,3.4C14.4,3.8,8.3,9.3,5.7,14.7
		c4.1,2.3,8.3,4.6,12.4,6.8C20.2,16.4,27.8,16.5,29.9,21.6z M25.6,44.5c6.6-0.4,13.1-4.2,16.6-10.7c2.7-5.1,3.1-10.5,1.4-16
		c-0.1,0.1-0.2,0.1-0.2,0.1c-4.3,2.4-8.6,4.7-12.9,7.1c-0.2,0.1-0.3,0.4-0.4,0.6c-0.6,2.3-1.9,3.8-4.1,4.5c-0.3,0.1-0.4,0.3-0.4,0.6
		c0,4.5,0,9,0,13.4C25.6,44.2,25.6,44.3,25.6,44.5z M4.5,17.7C0.3,30,9.1,43.6,22.4,44.4c0-0.1,0-0.2,0-0.3c0-4.6,0-9.2,0-13.7
		c0-0.3-0.2-0.4-0.4-0.5c-2.2-0.8-3.6-2.3-4.1-4.5c-0.1-0.3-0.2-0.5-0.5-0.7c-3.8-2.1-7.7-4.2-11.5-6.3C5.4,18.2,4.9,17.9,4.5,17.7z
		 M24,20.8c-1.7,0-3.2,1.4-3.2,3.1c0,1.7,1.4,3.1,3.1,3.2c1.7,0,3.2-1.4,3.2-3.1C27.2,22.3,25.8,20.8,24,20.8z"/>
</g>
</svg>
