<?xml version="1.0" encoding="iso-8859-1"?>
<!-- Generator: Adobe Illustrator 19.0.0, SVG Export Plug-In . SVG Version: 6.00 Build 0)  -->
<svg xmlns="http://www.w3.org/2000/svg" xmlns:xlink="http://www.w3.org/1999/xlink" version="1.1" id="Layer_1" x="0px" y="0px" viewBox="0 0 512 512" style="enable-background:new 0 0 512 512;" xml:space="preserve" width="25px" height="25px">
<g>
	<g>
		<g>
			<path d="M426.667,277.333C473.728,277.333,512,239.061,512,192s-38.272-85.333-85.333-85.333h-85.333     c-6.379,0-12.416,2.859-16.448,7.765l-47.552,57.728v-22.827c0-16.448-6.421-31.317-16.64-42.667     c10.219-11.349,16.64-26.219,16.64-42.667c0-35.285-28.715-64-64-64s-64,28.715-64,64c0,16.448,6.421,31.317,16.64,42.667     c-10.219,11.349-16.64,26.219-16.64,42.667v178.261l-11.307,13.739H85.333C38.272,341.333,0,379.605,0,426.667     S38.272,512,85.333,512h128c6.421,0,12.501-2.901,16.555-7.893l184.256-226.773H426.667z M234.667,223.957L192,275.776V149.333     c0-11.755,9.557-21.333,21.333-21.333s21.333,9.579,21.333,21.333V223.957z" fill="#1f3c4a"/>
			<path d="M441.769,347.601c-1.963-1.984-4.331-3.541-6.955-4.629c-5.205-2.155-11.093-2.155-16.299,0     c-2.624,1.088-4.971,2.645-6.955,4.629l-42.645,42.645c-8.341,8.341-8.341,21.845,0,30.165c8.341,8.341,21.845,8.341,30.165,0     l6.251-6.251v76.501c0,11.776,9.536,21.333,21.333,21.333s21.333-9.557,21.333-21.333v-76.501l6.251,6.251     c4.16,4.181,9.621,6.251,15.083,6.251c5.461,0,10.923-2.069,15.083-6.251c8.341-8.32,8.341-21.824,0-30.165L441.769,347.601z" fill="#1f3c4a"/>
		</g>
	</g>
</g>
<g>
</g>
<g>
</g>
<g>
</g>
<g>
</g>
<g>
</g>
<g>
</g>
<g>
</g>
<g>
</g>
<g>
</g>
<g>
</g>
<g>
</g>
<g>
</g>
<g>
</g>
<g>
</g>
<g>
</g>
</svg>
